%TF.GenerationSoftware,KiCad,Pcbnew,(6.0.4)*%
%TF.CreationDate,2023-01-18T12:07:05-06:00*%
%TF.ProjectId,Flight_Controller,466c6967-6874-45f4-936f-6e74726f6c6c,rev?*%
%TF.SameCoordinates,Original*%
%TF.FileFunction,Copper,L2,Inr*%
%TF.FilePolarity,Positive*%
%FSLAX46Y46*%
G04 Gerber Fmt 4.6, Leading zero omitted, Abs format (unit mm)*
G04 Created by KiCad (PCBNEW (6.0.4)) date 2023-01-18 12:07:05*
%MOMM*%
%LPD*%
G01*
G04 APERTURE LIST*
%TA.AperFunction,ComponentPad*%
%ADD10C,0.700000*%
%TD*%
%TA.AperFunction,ComponentPad*%
%ADD11C,4.400000*%
%TD*%
%TA.AperFunction,ViaPad*%
%ADD12C,0.508000*%
%TD*%
%TA.AperFunction,ViaPad*%
%ADD13C,0.400000*%
%TD*%
G04 APERTURE END LIST*
D10*
%TO.N,N/C*%
%TO.C,H3*%
X122510000Y-94110000D03*
D11*
X122510000Y-92460000D03*
D10*
X123676726Y-91293274D03*
X121343274Y-93626726D03*
X123676726Y-93626726D03*
X124160000Y-92460000D03*
X121343274Y-91293274D03*
X122510000Y-90810000D03*
X120860000Y-92460000D03*
%TD*%
%TO.N,N/C*%
%TO.C,H4*%
X121343274Y-63126726D03*
X123676726Y-60793274D03*
X121343274Y-60793274D03*
X122510000Y-60310000D03*
X122510000Y-63610000D03*
D11*
X122510000Y-61960000D03*
D10*
X124160000Y-61960000D03*
X120860000Y-61960000D03*
X123676726Y-63126726D03*
%TD*%
%TO.N,N/C*%
%TO.C,H1*%
X154176732Y-60793272D03*
X151843280Y-60793272D03*
X151843280Y-63126724D03*
X153010006Y-63609998D03*
X154660006Y-61959998D03*
X154176732Y-63126724D03*
D11*
X153010006Y-61959998D03*
D10*
X151360006Y-61959998D03*
X153010006Y-60309998D03*
%TD*%
%TO.N,N/C*%
%TO.C,H2*%
X154176726Y-93626726D03*
X153010000Y-90810000D03*
X154176726Y-91293274D03*
X154660000Y-92460000D03*
X151843274Y-91293274D03*
X153010000Y-94110000D03*
X151360000Y-92460000D03*
D11*
X153010000Y-92460000D03*
D10*
X151843274Y-93626726D03*
%TD*%
D12*
%TO.N,+3V3*%
X137940000Y-79750000D03*
X135450000Y-79620000D03*
%TO.N,GND*%
X140530000Y-66110000D03*
X140520000Y-67410000D03*
X140520000Y-66730000D03*
%TO.N,+5V*%
X147890000Y-70720000D03*
%TO.N,GND*%
X128300000Y-79690000D03*
X148850000Y-64750000D03*
X129750000Y-67980000D03*
X131600000Y-67975000D03*
X129600000Y-73625000D03*
X137300000Y-86100000D03*
X123300000Y-80775000D03*
X153750000Y-66330000D03*
X145690000Y-62840000D03*
X151360000Y-80260000D03*
X130120000Y-84900000D03*
X125970000Y-67290000D03*
X123690000Y-81890000D03*
X142925000Y-75475000D03*
X124275000Y-73525000D03*
X123380000Y-69250000D03*
X144520000Y-85070000D03*
X128440000Y-64850000D03*
X127980000Y-89280000D03*
X133550000Y-69860000D03*
X134940000Y-81320000D03*
X127150000Y-71300000D03*
X151930000Y-95610000D03*
X146250000Y-88120000D03*
X129240000Y-85770000D03*
X146330000Y-92640000D03*
X139530000Y-92880000D03*
X145874994Y-76049988D03*
X128340000Y-59280000D03*
X147000000Y-78375000D03*
X142170000Y-59270000D03*
X144540000Y-88070000D03*
X123930000Y-88850000D03*
X144840000Y-62850000D03*
X138710000Y-78100000D03*
X134400000Y-76020000D03*
X122120000Y-85720000D03*
X150910000Y-69590000D03*
X126860000Y-67290000D03*
X137570000Y-59270000D03*
X140225000Y-84525000D03*
X139530000Y-87980000D03*
X151390000Y-73350000D03*
X150070000Y-63280000D03*
X135530000Y-92880000D03*
X135800000Y-80500000D03*
X151610000Y-70260000D03*
X146200000Y-85080000D03*
X119940000Y-77750000D03*
X143980000Y-78040000D03*
X154390000Y-86040000D03*
X132030000Y-70910000D03*
X146920000Y-61200000D03*
X147690000Y-80570000D03*
X154120000Y-68400000D03*
X148270000Y-67360000D03*
X145850000Y-77350010D03*
X151590000Y-89960000D03*
X130950000Y-85750000D03*
X148860000Y-61860000D03*
X129730000Y-92820000D03*
X138530000Y-92880000D03*
X127140000Y-72150000D03*
X141010000Y-61340000D03*
X148860000Y-61120000D03*
X127820000Y-67290000D03*
%TO.N,+3V3*%
X142820000Y-73030000D03*
X141690000Y-68790000D03*
X142925000Y-74650000D03*
X148380000Y-80570000D03*
X119900000Y-72330000D03*
X133610000Y-67600000D03*
X140580000Y-73040000D03*
X141250000Y-89880000D03*
X132120000Y-77570000D03*
X139880000Y-59270000D03*
X143990000Y-78920000D03*
X141690000Y-69600000D03*
X143990000Y-80700000D03*
X140450000Y-70580000D03*
X146710000Y-59300000D03*
X151580000Y-88990000D03*
X137500000Y-70430000D03*
X139675000Y-85750000D03*
X141690000Y-73030000D03*
X131220000Y-70900000D03*
%TO.N,+5V*%
X134930000Y-80420000D03*
X122120000Y-86730000D03*
X121830000Y-67710000D03*
X125490000Y-85870000D03*
X154400000Y-87030000D03*
X153740000Y-67310000D03*
X125670000Y-63170000D03*
X144950000Y-71940000D03*
X146200000Y-74220000D03*
X129090000Y-93180000D03*
X122130000Y-84730000D03*
X147320000Y-92670000D03*
X133210000Y-91110000D03*
X130730000Y-59260000D03*
%TO.N,+BATT*%
X142380000Y-64610000D03*
X143220000Y-64600000D03*
X144060000Y-64590000D03*
%TO.N,Net-(C24-Pad1)*%
X150730000Y-67070000D03*
X145650000Y-68870000D03*
%TO.N,Net-(C25-Pad1)*%
X127100000Y-69610000D03*
%TO.N,+9V*%
X123180000Y-70550000D03*
X126810000Y-61060000D03*
X124630000Y-72100000D03*
X140770000Y-91000000D03*
X124030000Y-70560000D03*
X147644500Y-95150000D03*
X124610000Y-71290000D03*
%TO.N,NRST*%
X128370000Y-77910000D03*
X133530000Y-68740000D03*
%TO.N,ESC_TEL_RX*%
X135750000Y-61280000D03*
X123170000Y-82730000D03*
%TO.N,ADC_Current*%
X136750000Y-61250000D03*
X130900000Y-76240000D03*
%TO.N,RADIO_RX*%
X129330000Y-89630000D03*
%TO.N,RADIO_TX*%
X128640000Y-89656000D03*
%TO.N,Net-(P1-PadA5)*%
X150490000Y-75390000D03*
X152250000Y-71480000D03*
%TO.N,Net-(P1-PadB5)*%
X152160000Y-81710000D03*
X150580000Y-78316979D03*
%TO.N,VIDEO_IN*%
X124780000Y-86730000D03*
%TO.N,V_SENSE1*%
X125850000Y-69569500D03*
X132260000Y-74350000D03*
%TO.N,V_SENSE2*%
X150690000Y-68550000D03*
%TO.N,BOOT0*%
X133460000Y-74410000D03*
X123480000Y-73310000D03*
%TO.N,GPS_TX*%
X128700000Y-61760000D03*
X139310000Y-77530000D03*
%TO.N,GYRO_CS*%
X136460000Y-74140000D03*
%TO.N,GYRO_SCK*%
X137960000Y-74150000D03*
%TO.N,GYRO_MOSI*%
X137112500Y-75810000D03*
%TO.N,GYRO_MISO*%
X137780000Y-75830000D03*
%TO.N,GYRO_INT1*%
X138890000Y-79090000D03*
X130910000Y-75430000D03*
%TO.N,OSD_CS*%
X139480000Y-83050000D03*
X134076044Y-83173956D03*
%TO.N,OSD_MOSI*%
X139470000Y-80910000D03*
X133720000Y-88650000D03*
%TO.N,OSD_CLK*%
X139470000Y-82310000D03*
X131220000Y-89000000D03*
%TO.N,OSD_MISO*%
X139470000Y-81610000D03*
X131980000Y-88810000D03*
%TO.N,Flash_CS*%
X139700000Y-88650000D03*
X134880000Y-88330000D03*
%TO.N,Flash_MISO*%
X134740000Y-86690000D03*
X140520000Y-87060000D03*
%TO.N,Flash_MOSI*%
X135516000Y-86484948D03*
X148280000Y-84520000D03*
%TO.N,Flash_CLK*%
X134730000Y-87490000D03*
X148300000Y-85790000D03*
%TO.N,ADC_BATT*%
X131630000Y-76880000D03*
X144830000Y-61840000D03*
D13*
%TO.N,/Connectors/D-*%
X144730000Y-76952500D03*
D12*
%TO.N,LED_STRIP*%
X119600000Y-67660000D03*
X153740000Y-88030000D03*
X123450000Y-83760000D03*
X129980000Y-87520000D03*
X154960000Y-67830000D03*
%TO.N,DJI_TX*%
X142390000Y-92930000D03*
X137530000Y-92880000D03*
%TO.N,DJI_RX*%
X136530000Y-92870000D03*
%TO.N,DJI_SBUS*%
X135900000Y-89940000D03*
%TO.N,GPS_RX*%
X129700000Y-61650000D03*
X139310000Y-76780000D03*
%TO.N,GPS_I2C_SDA*%
X139910000Y-60920000D03*
X132500000Y-70220000D03*
%TO.N,GPS_I2C_SCL*%
X137610000Y-60780000D03*
X133210000Y-66280000D03*
D13*
%TO.N,/Connectors/D+*%
X144730000Y-76317500D03*
D12*
%TO.N,VIDEO_OUT*%
X122690000Y-81870000D03*
X144330000Y-92830000D03*
%TO.N,Motor 1*%
X138040000Y-75030000D03*
X142880000Y-69180000D03*
%TO.N,Motor 2*%
X135480000Y-75430000D03*
X137640000Y-66040000D03*
%TO.N,Motor 3*%
X135460000Y-74190000D03*
%TO.N,Motor 4*%
X134960000Y-71810000D03*
%TO.N,Motor 5*%
X133751044Y-62651044D03*
X135020000Y-74800000D03*
%TO.N,GPIO_3*%
X137540000Y-90210000D03*
X126530000Y-75910000D03*
%TO.N,GPIO_4*%
X126044000Y-76410000D03*
X138530000Y-90210000D03*
%TO.N,GPIO_1*%
X133250000Y-90330000D03*
X131500000Y-79280000D03*
%TO.N,GPIO_2*%
X136530000Y-90210000D03*
X135516000Y-85740000D03*
%TO.N,Net-(R27-Pad1)*%
X125420000Y-90550000D03*
X134400000Y-75260000D03*
%TD*%
%TA.AperFunction,Conductor*%
%TO.N,GND*%
G36*
X152991324Y-58161444D02*
G01*
X153009641Y-58165656D01*
X153013715Y-58164734D01*
X153013718Y-58164734D01*
X153023483Y-58162524D01*
X153033491Y-58161654D01*
X153380596Y-58178707D01*
X153384220Y-58179064D01*
X153672116Y-58221768D01*
X153749442Y-58233238D01*
X153753009Y-58233948D01*
X154111177Y-58323664D01*
X154114647Y-58324717D01*
X154282702Y-58384848D01*
X154462290Y-58449106D01*
X154465653Y-58450499D01*
X154799422Y-58608360D01*
X154802633Y-58610076D01*
X155119329Y-58799896D01*
X155122356Y-58801919D01*
X155418911Y-59021860D01*
X155421726Y-59024170D01*
X155432202Y-59033665D01*
X155692959Y-59270000D01*
X155695302Y-59272124D01*
X155697871Y-59274693D01*
X155720808Y-59300000D01*
X155945830Y-59548274D01*
X155948140Y-59551089D01*
X156168081Y-59847644D01*
X156170104Y-59850671D01*
X156359924Y-60167367D01*
X156361640Y-60170578D01*
X156519501Y-60504347D01*
X156520894Y-60507710D01*
X156641041Y-60843495D01*
X156645281Y-60855346D01*
X156646336Y-60858823D01*
X156712203Y-61121780D01*
X156736052Y-61216989D01*
X156736762Y-61220560D01*
X156790936Y-61585780D01*
X156791293Y-61589403D01*
X156808326Y-61936099D01*
X156807427Y-61946234D01*
X156804344Y-61959641D01*
X156805266Y-61963716D01*
X156805266Y-61963717D01*
X156808585Y-61978383D01*
X156809500Y-61986571D01*
X156809500Y-92433010D01*
X156808556Y-92441324D01*
X156804344Y-92459641D01*
X156805266Y-92463715D01*
X156805266Y-92463718D01*
X156807476Y-92473483D01*
X156808346Y-92483491D01*
X156791293Y-92830596D01*
X156790936Y-92834220D01*
X156750186Y-93108938D01*
X156740074Y-93177115D01*
X156736762Y-93199440D01*
X156736052Y-93203009D01*
X156659107Y-93510195D01*
X156646338Y-93561170D01*
X156645283Y-93564647D01*
X156622880Y-93627259D01*
X156520894Y-93912290D01*
X156519501Y-93915653D01*
X156361640Y-94249422D01*
X156359924Y-94252633D01*
X156170104Y-94569329D01*
X156168081Y-94572356D01*
X155948140Y-94868911D01*
X155945830Y-94871726D01*
X155697876Y-95145302D01*
X155695307Y-95147871D01*
X155689775Y-95152885D01*
X155421726Y-95395830D01*
X155418911Y-95398140D01*
X155122356Y-95618081D01*
X155119329Y-95620104D01*
X154802633Y-95809924D01*
X154799422Y-95811640D01*
X154465653Y-95969501D01*
X154462290Y-95970894D01*
X154114647Y-96095283D01*
X154111177Y-96096336D01*
X153753011Y-96186052D01*
X153749442Y-96186762D01*
X153672116Y-96198232D01*
X153384220Y-96240936D01*
X153380597Y-96241293D01*
X153059046Y-96257091D01*
X153033901Y-96258326D01*
X153023766Y-96257427D01*
X153022551Y-96257148D01*
X153010359Y-96254344D01*
X153006284Y-96255266D01*
X153006283Y-96255266D01*
X152991617Y-96258585D01*
X152983429Y-96259500D01*
X122536990Y-96259500D01*
X122528676Y-96258556D01*
X122523766Y-96257427D01*
X122510359Y-96254344D01*
X122506285Y-96255266D01*
X122506282Y-96255266D01*
X122496517Y-96257476D01*
X122486509Y-96258346D01*
X122139404Y-96241293D01*
X122135780Y-96240936D01*
X121847884Y-96198232D01*
X121770558Y-96186762D01*
X121766989Y-96186052D01*
X121408823Y-96096336D01*
X121405353Y-96095283D01*
X121057710Y-95970894D01*
X121054347Y-95969501D01*
X120720578Y-95811640D01*
X120717367Y-95809924D01*
X120400671Y-95620104D01*
X120397644Y-95618081D01*
X120101089Y-95398140D01*
X120098274Y-95395830D01*
X119830225Y-95152885D01*
X119827042Y-95150000D01*
X147237995Y-95150000D01*
X147257891Y-95275617D01*
X147315631Y-95388938D01*
X147405562Y-95478869D01*
X147462222Y-95507739D01*
X147516280Y-95535283D01*
X147516282Y-95535284D01*
X147518883Y-95536609D01*
X147644500Y-95556505D01*
X147647385Y-95556048D01*
X147767232Y-95537066D01*
X147770117Y-95536609D01*
X147772718Y-95535284D01*
X147772720Y-95535283D01*
X147826777Y-95507739D01*
X147883438Y-95478869D01*
X147973369Y-95388938D01*
X148031109Y-95275617D01*
X148051005Y-95150000D01*
X148031109Y-95024383D01*
X147973369Y-94911062D01*
X147883438Y-94821131D01*
X147787608Y-94772303D01*
X147772720Y-94764717D01*
X147772718Y-94764716D01*
X147770117Y-94763391D01*
X147644500Y-94743495D01*
X147518883Y-94763391D01*
X147516282Y-94764716D01*
X147516280Y-94764717D01*
X147501392Y-94772303D01*
X147405562Y-94821131D01*
X147315631Y-94911062D01*
X147257891Y-95024383D01*
X147237995Y-95150000D01*
X119827042Y-95150000D01*
X119824693Y-95147871D01*
X119822124Y-95145302D01*
X119574170Y-94871726D01*
X119571860Y-94868911D01*
X119351919Y-94572356D01*
X119349896Y-94569329D01*
X119160076Y-94252633D01*
X119158360Y-94249422D01*
X119000499Y-93915653D01*
X118999106Y-93912290D01*
X118897120Y-93627259D01*
X118874717Y-93564647D01*
X118873662Y-93561170D01*
X118860894Y-93510195D01*
X118783948Y-93203009D01*
X118783238Y-93199440D01*
X118779927Y-93177115D01*
X118769814Y-93108938D01*
X118729064Y-92834220D01*
X118728707Y-92830596D01*
X118711685Y-92484106D01*
X118712598Y-92473910D01*
X118715180Y-92462769D01*
X118715180Y-92462766D01*
X118715655Y-92460718D01*
X118715656Y-92460000D01*
X120177506Y-92460000D01*
X120197461Y-92764452D01*
X120197696Y-92765633D01*
X120197697Y-92765641D01*
X120219871Y-92877115D01*
X120256984Y-93063694D01*
X120257377Y-93064851D01*
X120257377Y-93064852D01*
X120258764Y-93068938D01*
X120355057Y-93352607D01*
X120355591Y-93353690D01*
X120355594Y-93353697D01*
X120457909Y-93561170D01*
X120490001Y-93626247D01*
X120659508Y-93879932D01*
X120860678Y-94109322D01*
X121090068Y-94310492D01*
X121343753Y-94479999D01*
X121344848Y-94480539D01*
X121616303Y-94614406D01*
X121616310Y-94614409D01*
X121617393Y-94614943D01*
X121906306Y-94713016D01*
X122017219Y-94735078D01*
X122204359Y-94772303D01*
X122204367Y-94772304D01*
X122205548Y-94772539D01*
X122510000Y-94792494D01*
X122814452Y-94772539D01*
X122815633Y-94772304D01*
X122815641Y-94772303D01*
X123002781Y-94735078D01*
X123113694Y-94713016D01*
X123402607Y-94614943D01*
X123403690Y-94614409D01*
X123403697Y-94614406D01*
X123675152Y-94480539D01*
X123676247Y-94479999D01*
X123929932Y-94310492D01*
X124159322Y-94109322D01*
X124360492Y-93879932D01*
X124529999Y-93626247D01*
X124562091Y-93561170D01*
X124664406Y-93353697D01*
X124664409Y-93353690D01*
X124664943Y-93352607D01*
X124723535Y-93180000D01*
X128683495Y-93180000D01*
X128703391Y-93305617D01*
X128704716Y-93308218D01*
X128704717Y-93308220D01*
X128718896Y-93336048D01*
X128761131Y-93418938D01*
X128851062Y-93508869D01*
X128907722Y-93537739D01*
X128961780Y-93565283D01*
X128961782Y-93565284D01*
X128964383Y-93566609D01*
X129090000Y-93586505D01*
X129092885Y-93586048D01*
X129212732Y-93567066D01*
X129215617Y-93566609D01*
X129218218Y-93565284D01*
X129218220Y-93565283D01*
X129272278Y-93537739D01*
X129328938Y-93508869D01*
X129418869Y-93418938D01*
X129461104Y-93336048D01*
X129475283Y-93308220D01*
X129475284Y-93308218D01*
X129476609Y-93305617D01*
X129496505Y-93180000D01*
X129476609Y-93054383D01*
X129418869Y-92941062D01*
X129347807Y-92870000D01*
X136123495Y-92870000D01*
X136143391Y-92995617D01*
X136144716Y-92998218D01*
X136144717Y-92998220D01*
X136172008Y-93051780D01*
X136201131Y-93108938D01*
X136291062Y-93198869D01*
X136325879Y-93216609D01*
X136401780Y-93255283D01*
X136401782Y-93255284D01*
X136404383Y-93256609D01*
X136530000Y-93276505D01*
X136532885Y-93276048D01*
X136652732Y-93257066D01*
X136655617Y-93256609D01*
X136658218Y-93255284D01*
X136658220Y-93255283D01*
X136734121Y-93216609D01*
X136768938Y-93198869D01*
X136858869Y-93108938D01*
X136887992Y-93051780D01*
X136915283Y-92998220D01*
X136915284Y-92998218D01*
X136916609Y-92995617D01*
X136934921Y-92880000D01*
X137123495Y-92880000D01*
X137143391Y-93005617D01*
X137201131Y-93118938D01*
X137291062Y-93208869D01*
X137337762Y-93232664D01*
X137401780Y-93265283D01*
X137401782Y-93265284D01*
X137404383Y-93266609D01*
X137530000Y-93286505D01*
X137532885Y-93286048D01*
X137652732Y-93267066D01*
X137655617Y-93266609D01*
X137658218Y-93265284D01*
X137658220Y-93265283D01*
X137722238Y-93232664D01*
X137768938Y-93208869D01*
X137858869Y-93118938D01*
X137916609Y-93005617D01*
X137928586Y-92930000D01*
X141983495Y-92930000D01*
X142003391Y-93055617D01*
X142061131Y-93168938D01*
X142151062Y-93258869D01*
X142184778Y-93276048D01*
X142261780Y-93315283D01*
X142261782Y-93315284D01*
X142264383Y-93316609D01*
X142390000Y-93336505D01*
X142392885Y-93336048D01*
X142512732Y-93317066D01*
X142515617Y-93316609D01*
X142518218Y-93315284D01*
X142518220Y-93315283D01*
X142595222Y-93276048D01*
X142628938Y-93258869D01*
X142718869Y-93168938D01*
X142776609Y-93055617D01*
X142796505Y-92930000D01*
X142780666Y-92830000D01*
X143923495Y-92830000D01*
X143943391Y-92955617D01*
X144001131Y-93068938D01*
X144091062Y-93158869D01*
X144126872Y-93177115D01*
X144201780Y-93215283D01*
X144201782Y-93215284D01*
X144204383Y-93216609D01*
X144330000Y-93236505D01*
X144332885Y-93236048D01*
X144452732Y-93217066D01*
X144455617Y-93216609D01*
X144458218Y-93215284D01*
X144458220Y-93215283D01*
X144533128Y-93177115D01*
X144568938Y-93158869D01*
X144658869Y-93068938D01*
X144716609Y-92955617D01*
X144736505Y-92830000D01*
X144716609Y-92704383D01*
X144699090Y-92670000D01*
X146913495Y-92670000D01*
X146933391Y-92795617D01*
X146934716Y-92798218D01*
X146934717Y-92798220D01*
X146939327Y-92807268D01*
X146991131Y-92908938D01*
X147081062Y-92998869D01*
X147137722Y-93027739D01*
X147191780Y-93055283D01*
X147191782Y-93055284D01*
X147194383Y-93056609D01*
X147197268Y-93057066D01*
X147239115Y-93063694D01*
X147320000Y-93076505D01*
X147322885Y-93076048D01*
X147442732Y-93057066D01*
X147445617Y-93056609D01*
X147448218Y-93055284D01*
X147448220Y-93055283D01*
X147502277Y-93027739D01*
X147558938Y-92998869D01*
X147648869Y-92908938D01*
X147700673Y-92807268D01*
X147705283Y-92798220D01*
X147705284Y-92798218D01*
X147706609Y-92795617D01*
X147726505Y-92670000D01*
X147706609Y-92544383D01*
X147704277Y-92539805D01*
X147673002Y-92478426D01*
X147663614Y-92460000D01*
X150677506Y-92460000D01*
X150697461Y-92764452D01*
X150697696Y-92765633D01*
X150697697Y-92765641D01*
X150719871Y-92877115D01*
X150756984Y-93063694D01*
X150757377Y-93064851D01*
X150757377Y-93064852D01*
X150758764Y-93068938D01*
X150855057Y-93352607D01*
X150855591Y-93353690D01*
X150855594Y-93353697D01*
X150957909Y-93561170D01*
X150990001Y-93626247D01*
X151159508Y-93879932D01*
X151360678Y-94109322D01*
X151590068Y-94310492D01*
X151843753Y-94479999D01*
X151844848Y-94480539D01*
X152116303Y-94614406D01*
X152116310Y-94614409D01*
X152117393Y-94614943D01*
X152406306Y-94713016D01*
X152517219Y-94735078D01*
X152704359Y-94772303D01*
X152704367Y-94772304D01*
X152705548Y-94772539D01*
X153010000Y-94792494D01*
X153314452Y-94772539D01*
X153315633Y-94772304D01*
X153315641Y-94772303D01*
X153502781Y-94735078D01*
X153613694Y-94713016D01*
X153902607Y-94614943D01*
X153903690Y-94614409D01*
X153903697Y-94614406D01*
X154175152Y-94480539D01*
X154176247Y-94479999D01*
X154429932Y-94310492D01*
X154659322Y-94109322D01*
X154860492Y-93879932D01*
X155029999Y-93626247D01*
X155062091Y-93561170D01*
X155164406Y-93353697D01*
X155164409Y-93353690D01*
X155164943Y-93352607D01*
X155261236Y-93068938D01*
X155262623Y-93064852D01*
X155262623Y-93064851D01*
X155263016Y-93063694D01*
X155300129Y-92877115D01*
X155322303Y-92765641D01*
X155322304Y-92765633D01*
X155322539Y-92764452D01*
X155342494Y-92460000D01*
X155322539Y-92155548D01*
X155322304Y-92154367D01*
X155322303Y-92154359D01*
X155263254Y-91857504D01*
X155263016Y-91856306D01*
X155164943Y-91567393D01*
X155164409Y-91566310D01*
X155164406Y-91566303D01*
X155030539Y-91294848D01*
X155029999Y-91293753D01*
X154991634Y-91236335D01*
X154861161Y-91041069D01*
X154861160Y-91041067D01*
X154860492Y-91040068D01*
X154659322Y-90810678D01*
X154429932Y-90609508D01*
X154411311Y-90597066D01*
X154177259Y-90440677D01*
X154177257Y-90440676D01*
X154176247Y-90440001D01*
X154144577Y-90424383D01*
X153903697Y-90305594D01*
X153903690Y-90305591D01*
X153902607Y-90305057D01*
X153613694Y-90206984D01*
X153483074Y-90181002D01*
X153315641Y-90147697D01*
X153315633Y-90147696D01*
X153314452Y-90147461D01*
X153010000Y-90127506D01*
X152705548Y-90147461D01*
X152704367Y-90147696D01*
X152704359Y-90147697D01*
X152536926Y-90181002D01*
X152406306Y-90206984D01*
X152117393Y-90305057D01*
X152116310Y-90305591D01*
X152116303Y-90305594D01*
X151875423Y-90424383D01*
X151843753Y-90440001D01*
X151842743Y-90440676D01*
X151842741Y-90440677D01*
X151608689Y-90597066D01*
X151590068Y-90609508D01*
X151360678Y-90810678D01*
X151159508Y-91040068D01*
X151158840Y-91041067D01*
X151158839Y-91041069D01*
X151028367Y-91236335D01*
X150990001Y-91293753D01*
X150989461Y-91294848D01*
X150855594Y-91566303D01*
X150855591Y-91566310D01*
X150855057Y-91567393D01*
X150756984Y-91856306D01*
X150756746Y-91857504D01*
X150697697Y-92154359D01*
X150697696Y-92154367D01*
X150697461Y-92155548D01*
X150677506Y-92460000D01*
X147663614Y-92460000D01*
X147648869Y-92431062D01*
X147558938Y-92341131D01*
X147502277Y-92312261D01*
X147448220Y-92284717D01*
X147448218Y-92284716D01*
X147445617Y-92283391D01*
X147320000Y-92263495D01*
X147194383Y-92283391D01*
X147191782Y-92284716D01*
X147191780Y-92284717D01*
X147137722Y-92312261D01*
X147081062Y-92341131D01*
X146991131Y-92431062D01*
X146966998Y-92478426D01*
X146935724Y-92539805D01*
X146933391Y-92544383D01*
X146913495Y-92670000D01*
X144699090Y-92670000D01*
X144658869Y-92591062D01*
X144568938Y-92501131D01*
X144494620Y-92463264D01*
X144458220Y-92444717D01*
X144458218Y-92444716D01*
X144455617Y-92443391D01*
X144443489Y-92441470D01*
X144332885Y-92423952D01*
X144330000Y-92423495D01*
X144327115Y-92423952D01*
X144216512Y-92441470D01*
X144204383Y-92443391D01*
X144201782Y-92444716D01*
X144201780Y-92444717D01*
X144165380Y-92463264D01*
X144091062Y-92501131D01*
X144001131Y-92591062D01*
X143943391Y-92704383D01*
X143923495Y-92830000D01*
X142780666Y-92830000D01*
X142776609Y-92804383D01*
X142772143Y-92795617D01*
X142720195Y-92693665D01*
X142718869Y-92691062D01*
X142628938Y-92601131D01*
X142572278Y-92572261D01*
X142518220Y-92544717D01*
X142518218Y-92544716D01*
X142515617Y-92543391D01*
X142390000Y-92523495D01*
X142264383Y-92543391D01*
X142261782Y-92544716D01*
X142261780Y-92544717D01*
X142207723Y-92572261D01*
X142151062Y-92601131D01*
X142061131Y-92691062D01*
X142059805Y-92693665D01*
X142007858Y-92795617D01*
X142003391Y-92804383D01*
X141983495Y-92930000D01*
X137928586Y-92930000D01*
X137936505Y-92880000D01*
X137916609Y-92754383D01*
X137910188Y-92741780D01*
X137860195Y-92643665D01*
X137858869Y-92641062D01*
X137768938Y-92551131D01*
X137712277Y-92522261D01*
X137658220Y-92494717D01*
X137658218Y-92494716D01*
X137655617Y-92493391D01*
X137530000Y-92473495D01*
X137404383Y-92493391D01*
X137401782Y-92494716D01*
X137401780Y-92494717D01*
X137347723Y-92522261D01*
X137291062Y-92551131D01*
X137201131Y-92641062D01*
X137199805Y-92643665D01*
X137149813Y-92741780D01*
X137143391Y-92754383D01*
X137123495Y-92880000D01*
X136934921Y-92880000D01*
X136936505Y-92870000D01*
X136916609Y-92744383D01*
X136858869Y-92631062D01*
X136768938Y-92541131D01*
X136712278Y-92512261D01*
X136658220Y-92484717D01*
X136658218Y-92484716D01*
X136655617Y-92483391D01*
X136530000Y-92463495D01*
X136404383Y-92483391D01*
X136401782Y-92484716D01*
X136401780Y-92484717D01*
X136347723Y-92512261D01*
X136291062Y-92541131D01*
X136201131Y-92631062D01*
X136143391Y-92744383D01*
X136123495Y-92870000D01*
X129347807Y-92870000D01*
X129328938Y-92851131D01*
X129237190Y-92804383D01*
X129218220Y-92794717D01*
X129218218Y-92794716D01*
X129215617Y-92793391D01*
X129211457Y-92792732D01*
X129092885Y-92773952D01*
X129090000Y-92773495D01*
X129087115Y-92773952D01*
X128968544Y-92792732D01*
X128964383Y-92793391D01*
X128961782Y-92794716D01*
X128961780Y-92794717D01*
X128942810Y-92804383D01*
X128851062Y-92851131D01*
X128761131Y-92941062D01*
X128703391Y-93054383D01*
X128683495Y-93180000D01*
X124723535Y-93180000D01*
X124761236Y-93068938D01*
X124762623Y-93064852D01*
X124762623Y-93064851D01*
X124763016Y-93063694D01*
X124800129Y-92877115D01*
X124822303Y-92765641D01*
X124822304Y-92765633D01*
X124822539Y-92764452D01*
X124842494Y-92460000D01*
X124822539Y-92155548D01*
X124822304Y-92154367D01*
X124822303Y-92154359D01*
X124763254Y-91857504D01*
X124763016Y-91856306D01*
X124664943Y-91567393D01*
X124664409Y-91566310D01*
X124664406Y-91566303D01*
X124530539Y-91294848D01*
X124529999Y-91293753D01*
X124491634Y-91236335D01*
X124407219Y-91110000D01*
X132803495Y-91110000D01*
X132823391Y-91235617D01*
X132881131Y-91348938D01*
X132971062Y-91438869D01*
X133027723Y-91467739D01*
X133081780Y-91495283D01*
X133081782Y-91495284D01*
X133084383Y-91496609D01*
X133210000Y-91516505D01*
X133212885Y-91516048D01*
X133332732Y-91497066D01*
X133335617Y-91496609D01*
X133338218Y-91495284D01*
X133338220Y-91495283D01*
X133392277Y-91467739D01*
X133448938Y-91438869D01*
X133538869Y-91348938D01*
X133596609Y-91235617D01*
X133616505Y-91110000D01*
X133605285Y-91039160D01*
X133599083Y-91000000D01*
X140363495Y-91000000D01*
X140363952Y-91002885D01*
X140380461Y-91107115D01*
X140383391Y-91125617D01*
X140441131Y-91238938D01*
X140531062Y-91328869D01*
X140587722Y-91357739D01*
X140641780Y-91385283D01*
X140641782Y-91385284D01*
X140644383Y-91386609D01*
X140770000Y-91406505D01*
X140772885Y-91406048D01*
X140892732Y-91387066D01*
X140895617Y-91386609D01*
X140898218Y-91385284D01*
X140898220Y-91385283D01*
X140952278Y-91357739D01*
X141008938Y-91328869D01*
X141098869Y-91238938D01*
X141156609Y-91125617D01*
X141159540Y-91107115D01*
X141176048Y-91002885D01*
X141176505Y-91000000D01*
X141156609Y-90874383D01*
X141098869Y-90761062D01*
X141008938Y-90671131D01*
X140900832Y-90616048D01*
X140898220Y-90614717D01*
X140898218Y-90614716D01*
X140895617Y-90613391D01*
X140770000Y-90593495D01*
X140644383Y-90613391D01*
X140641782Y-90614716D01*
X140641780Y-90614717D01*
X140639168Y-90616048D01*
X140531062Y-90671131D01*
X140441131Y-90761062D01*
X140383391Y-90874383D01*
X140363495Y-91000000D01*
X133599083Y-91000000D01*
X133597066Y-90987268D01*
X133596609Y-90984383D01*
X133582405Y-90956505D01*
X133567739Y-90927723D01*
X133538869Y-90871062D01*
X133448938Y-90781131D01*
X133413837Y-90763246D01*
X133395397Y-90741656D01*
X133397625Y-90713348D01*
X133413838Y-90697135D01*
X133467475Y-90669805D01*
X133488938Y-90658869D01*
X133578869Y-90568938D01*
X133636609Y-90455617D01*
X133656505Y-90330000D01*
X133636609Y-90204383D01*
X133578869Y-90091062D01*
X133488938Y-90001131D01*
X133408597Y-89960195D01*
X133378220Y-89944717D01*
X133378218Y-89944716D01*
X133375617Y-89943391D01*
X133372423Y-89942885D01*
X133354208Y-89940000D01*
X135493495Y-89940000D01*
X135513391Y-90065617D01*
X135571131Y-90178938D01*
X135661062Y-90268869D01*
X135694778Y-90286048D01*
X135771780Y-90325283D01*
X135771782Y-90325284D01*
X135774383Y-90326609D01*
X135777268Y-90327066D01*
X135813042Y-90332732D01*
X135900000Y-90346505D01*
X135902885Y-90346048D01*
X136022732Y-90327066D01*
X136025617Y-90326609D01*
X136028218Y-90325284D01*
X136028220Y-90325283D01*
X136056130Y-90311062D01*
X136087779Y-90294936D01*
X136116085Y-90292708D01*
X136137677Y-90311149D01*
X136141264Y-90322188D01*
X136143391Y-90335617D01*
X136144716Y-90338218D01*
X136144717Y-90338220D01*
X136172261Y-90392278D01*
X136201131Y-90448938D01*
X136291062Y-90538869D01*
X136307246Y-90547115D01*
X136401780Y-90595283D01*
X136401782Y-90595284D01*
X136404383Y-90596609D01*
X136530000Y-90616505D01*
X136532885Y-90616048D01*
X136652732Y-90597066D01*
X136655617Y-90596609D01*
X136658218Y-90595284D01*
X136658220Y-90595283D01*
X136752754Y-90547115D01*
X136768938Y-90538869D01*
X136858869Y-90448938D01*
X136887739Y-90392278D01*
X136915283Y-90338220D01*
X136915284Y-90338218D01*
X136916609Y-90335617D01*
X136936505Y-90210000D01*
X137133495Y-90210000D01*
X137153391Y-90335617D01*
X137154716Y-90338218D01*
X137154717Y-90338220D01*
X137182261Y-90392278D01*
X137211131Y-90448938D01*
X137301062Y-90538869D01*
X137317246Y-90547115D01*
X137411780Y-90595283D01*
X137411782Y-90595284D01*
X137414383Y-90596609D01*
X137540000Y-90616505D01*
X137542885Y-90616048D01*
X137662732Y-90597066D01*
X137665617Y-90596609D01*
X137668218Y-90595284D01*
X137668220Y-90595283D01*
X137762754Y-90547115D01*
X137778938Y-90538869D01*
X137868869Y-90448938D01*
X137897739Y-90392278D01*
X137925283Y-90338220D01*
X137925284Y-90338218D01*
X137926609Y-90335617D01*
X137946505Y-90210000D01*
X138123495Y-90210000D01*
X138143391Y-90335617D01*
X138144716Y-90338218D01*
X138144717Y-90338220D01*
X138172261Y-90392278D01*
X138201131Y-90448938D01*
X138291062Y-90538869D01*
X138307246Y-90547115D01*
X138401780Y-90595283D01*
X138401782Y-90595284D01*
X138404383Y-90596609D01*
X138530000Y-90616505D01*
X138532885Y-90616048D01*
X138652732Y-90597066D01*
X138655617Y-90596609D01*
X138658218Y-90595284D01*
X138658220Y-90595283D01*
X138752754Y-90547115D01*
X138768938Y-90538869D01*
X138858869Y-90448938D01*
X138887739Y-90392278D01*
X138915283Y-90338220D01*
X138915284Y-90338218D01*
X138916609Y-90335617D01*
X138936505Y-90210000D01*
X138916609Y-90084383D01*
X138894649Y-90041283D01*
X138876476Y-90005617D01*
X138858869Y-89971062D01*
X138768938Y-89881131D01*
X138766718Y-89880000D01*
X140843495Y-89880000D01*
X140863391Y-90005617D01*
X140864716Y-90008218D01*
X140864717Y-90008220D01*
X140878896Y-90036048D01*
X140921131Y-90118938D01*
X141011062Y-90208869D01*
X141067723Y-90237739D01*
X141121780Y-90265283D01*
X141121782Y-90265284D01*
X141124383Y-90266609D01*
X141250000Y-90286505D01*
X141252885Y-90286048D01*
X141372732Y-90267066D01*
X141375617Y-90266609D01*
X141378218Y-90265284D01*
X141378220Y-90265283D01*
X141432277Y-90237739D01*
X141488938Y-90208869D01*
X141578869Y-90118938D01*
X141621104Y-90036048D01*
X141635283Y-90008220D01*
X141635284Y-90008218D01*
X141636609Y-90005617D01*
X141656505Y-89880000D01*
X141641335Y-89784220D01*
X141637066Y-89757268D01*
X141636609Y-89754383D01*
X141578869Y-89641062D01*
X141488938Y-89551131D01*
X141397190Y-89504383D01*
X141378220Y-89494717D01*
X141378218Y-89494716D01*
X141375617Y-89493391D01*
X141250000Y-89473495D01*
X141124383Y-89493391D01*
X141121782Y-89494716D01*
X141121780Y-89494717D01*
X141102810Y-89504383D01*
X141011062Y-89551131D01*
X140921131Y-89641062D01*
X140863391Y-89754383D01*
X140862934Y-89757268D01*
X140858665Y-89784220D01*
X140843495Y-89880000D01*
X138766718Y-89880000D01*
X138664294Y-89827812D01*
X138658220Y-89824717D01*
X138658218Y-89824716D01*
X138655617Y-89823391D01*
X138530000Y-89803495D01*
X138404383Y-89823391D01*
X138401782Y-89824716D01*
X138401780Y-89824717D01*
X138395706Y-89827812D01*
X138291062Y-89881131D01*
X138201131Y-89971062D01*
X138183524Y-90005617D01*
X138165352Y-90041283D01*
X138143391Y-90084383D01*
X138123495Y-90210000D01*
X137946505Y-90210000D01*
X137926609Y-90084383D01*
X137904649Y-90041283D01*
X137886476Y-90005617D01*
X137868869Y-89971062D01*
X137778938Y-89881131D01*
X137674294Y-89827812D01*
X137668220Y-89824717D01*
X137668218Y-89824716D01*
X137665617Y-89823391D01*
X137540000Y-89803495D01*
X137414383Y-89823391D01*
X137411782Y-89824716D01*
X137411780Y-89824717D01*
X137405706Y-89827812D01*
X137301062Y-89881131D01*
X137211131Y-89971062D01*
X137193524Y-90005617D01*
X137175352Y-90041283D01*
X137153391Y-90084383D01*
X137133495Y-90210000D01*
X136936505Y-90210000D01*
X136916609Y-90084383D01*
X136894649Y-90041283D01*
X136876476Y-90005617D01*
X136858869Y-89971062D01*
X136768938Y-89881131D01*
X136664294Y-89827812D01*
X136658220Y-89824717D01*
X136658218Y-89824716D01*
X136655617Y-89823391D01*
X136530000Y-89803495D01*
X136404383Y-89823391D01*
X136401782Y-89824716D01*
X136401780Y-89824717D01*
X136395706Y-89827812D01*
X136342221Y-89855064D01*
X136313915Y-89857292D01*
X136292323Y-89838851D01*
X136288736Y-89827812D01*
X136287066Y-89817268D01*
X136286609Y-89814383D01*
X136281062Y-89803495D01*
X136230195Y-89703665D01*
X136228869Y-89701062D01*
X136138938Y-89611131D01*
X136082277Y-89582261D01*
X136028220Y-89554717D01*
X136028218Y-89554716D01*
X136025617Y-89553391D01*
X135900000Y-89533495D01*
X135774383Y-89553391D01*
X135771782Y-89554716D01*
X135771780Y-89554717D01*
X135717723Y-89582261D01*
X135661062Y-89611131D01*
X135571131Y-89701062D01*
X135569805Y-89703665D01*
X135518939Y-89803495D01*
X135513391Y-89814383D01*
X135493495Y-89940000D01*
X133354208Y-89940000D01*
X133252885Y-89923952D01*
X133250000Y-89923495D01*
X133247115Y-89923952D01*
X133127578Y-89942885D01*
X133124383Y-89943391D01*
X133121782Y-89944716D01*
X133121780Y-89944717D01*
X133091403Y-89960195D01*
X133011062Y-90001131D01*
X132921131Y-90091062D01*
X132863391Y-90204383D01*
X132843495Y-90330000D01*
X132863391Y-90455617D01*
X132921131Y-90568938D01*
X133011062Y-90658869D01*
X133046163Y-90676754D01*
X133064603Y-90698344D01*
X133062375Y-90726652D01*
X133046162Y-90742865D01*
X133006161Y-90763247D01*
X132971062Y-90781131D01*
X132881131Y-90871062D01*
X132852261Y-90927723D01*
X132837596Y-90956505D01*
X132823391Y-90984383D01*
X132822934Y-90987268D01*
X132814715Y-91039160D01*
X132803495Y-91110000D01*
X124407219Y-91110000D01*
X124361161Y-91041069D01*
X124361160Y-91041067D01*
X124360492Y-91040068D01*
X124159322Y-90810678D01*
X123929932Y-90609508D01*
X123911311Y-90597066D01*
X123840872Y-90550000D01*
X125013495Y-90550000D01*
X125033391Y-90675617D01*
X125091131Y-90788938D01*
X125181062Y-90878869D01*
X125237722Y-90907739D01*
X125291780Y-90935283D01*
X125291782Y-90935284D01*
X125294383Y-90936609D01*
X125420000Y-90956505D01*
X125422885Y-90956048D01*
X125542732Y-90937066D01*
X125545617Y-90936609D01*
X125548218Y-90935284D01*
X125548220Y-90935283D01*
X125602277Y-90907739D01*
X125658938Y-90878869D01*
X125748869Y-90788938D01*
X125806609Y-90675617D01*
X125826505Y-90550000D01*
X125806609Y-90424383D01*
X125748869Y-90311062D01*
X125658938Y-90221131D01*
X125602277Y-90192261D01*
X125548220Y-90164717D01*
X125548218Y-90164716D01*
X125545617Y-90163391D01*
X125420000Y-90143495D01*
X125294383Y-90163391D01*
X125291782Y-90164716D01*
X125291780Y-90164717D01*
X125237723Y-90192261D01*
X125181062Y-90221131D01*
X125091131Y-90311062D01*
X125033391Y-90424383D01*
X125013495Y-90550000D01*
X123840872Y-90550000D01*
X123677259Y-90440677D01*
X123677257Y-90440676D01*
X123676247Y-90440001D01*
X123644577Y-90424383D01*
X123403697Y-90305594D01*
X123403690Y-90305591D01*
X123402607Y-90305057D01*
X123113694Y-90206984D01*
X122983074Y-90181002D01*
X122815641Y-90147697D01*
X122815633Y-90147696D01*
X122814452Y-90147461D01*
X122510000Y-90127506D01*
X122205548Y-90147461D01*
X122204367Y-90147696D01*
X122204359Y-90147697D01*
X122036926Y-90181002D01*
X121906306Y-90206984D01*
X121617393Y-90305057D01*
X121616310Y-90305591D01*
X121616303Y-90305594D01*
X121375423Y-90424383D01*
X121343753Y-90440001D01*
X121342743Y-90440676D01*
X121342741Y-90440677D01*
X121108689Y-90597066D01*
X121090068Y-90609508D01*
X120860678Y-90810678D01*
X120659508Y-91040068D01*
X120658840Y-91041067D01*
X120658839Y-91041069D01*
X120528367Y-91236335D01*
X120490001Y-91293753D01*
X120489461Y-91294848D01*
X120355594Y-91566303D01*
X120355591Y-91566310D01*
X120355057Y-91567393D01*
X120256984Y-91856306D01*
X120256746Y-91857504D01*
X120197697Y-92154359D01*
X120197696Y-92154367D01*
X120197461Y-92155548D01*
X120177506Y-92460000D01*
X118715656Y-92460000D01*
X118711429Y-92441469D01*
X118710500Y-92433219D01*
X118710500Y-89656000D01*
X128233495Y-89656000D01*
X128233952Y-89658885D01*
X128249078Y-89754383D01*
X128253391Y-89781617D01*
X128254716Y-89784218D01*
X128254717Y-89784220D01*
X128282261Y-89838277D01*
X128311131Y-89894938D01*
X128401062Y-89984869D01*
X128430376Y-89999805D01*
X128511780Y-90041283D01*
X128511782Y-90041284D01*
X128514383Y-90042609D01*
X128640000Y-90062505D01*
X128642885Y-90062048D01*
X128762732Y-90043066D01*
X128765617Y-90042609D01*
X128768218Y-90041284D01*
X128768220Y-90041283D01*
X128849624Y-89999805D01*
X128878938Y-89984869D01*
X128968869Y-89894938D01*
X128969024Y-89895093D01*
X128991735Y-89881173D01*
X129019346Y-89887800D01*
X129023775Y-89891582D01*
X129091062Y-89958869D01*
X129114992Y-89971062D01*
X129201780Y-90015283D01*
X129201782Y-90015284D01*
X129204383Y-90016609D01*
X129330000Y-90036505D01*
X129332885Y-90036048D01*
X129452732Y-90017066D01*
X129455617Y-90016609D01*
X129458218Y-90015284D01*
X129458220Y-90015283D01*
X129545008Y-89971062D01*
X129568938Y-89958869D01*
X129658869Y-89868938D01*
X129716609Y-89755617D01*
X129736505Y-89630000D01*
X129716609Y-89504383D01*
X129711009Y-89493391D01*
X129671065Y-89414998D01*
X129658869Y-89391062D01*
X129568938Y-89301131D01*
X129467597Y-89249495D01*
X129458220Y-89244717D01*
X129458218Y-89244716D01*
X129455617Y-89243391D01*
X129330000Y-89223495D01*
X129204383Y-89243391D01*
X129201782Y-89244716D01*
X129201780Y-89244717D01*
X129192403Y-89249495D01*
X129091062Y-89301131D01*
X129001131Y-89391062D01*
X129000976Y-89390907D01*
X128978265Y-89404827D01*
X128950654Y-89398200D01*
X128946225Y-89394418D01*
X128878938Y-89327131D01*
X128822278Y-89298261D01*
X128768220Y-89270717D01*
X128768218Y-89270716D01*
X128765617Y-89269391D01*
X128640000Y-89249495D01*
X128514383Y-89269391D01*
X128511782Y-89270716D01*
X128511780Y-89270717D01*
X128457723Y-89298261D01*
X128401062Y-89327131D01*
X128311131Y-89417062D01*
X128253391Y-89530383D01*
X128233495Y-89656000D01*
X118710500Y-89656000D01*
X118710500Y-89000000D01*
X130813495Y-89000000D01*
X130833391Y-89125617D01*
X130834716Y-89128218D01*
X130834717Y-89128220D01*
X130840143Y-89138869D01*
X130891131Y-89238938D01*
X130981062Y-89328869D01*
X131037722Y-89357739D01*
X131091780Y-89385283D01*
X131091782Y-89385284D01*
X131094383Y-89386609D01*
X131097268Y-89387066D01*
X131153978Y-89396048D01*
X131220000Y-89406505D01*
X131222885Y-89406048D01*
X131342732Y-89387066D01*
X131345617Y-89386609D01*
X131348218Y-89385284D01*
X131348220Y-89385283D01*
X131402278Y-89357739D01*
X131458938Y-89328869D01*
X131548869Y-89238938D01*
X131599857Y-89138869D01*
X131605283Y-89128220D01*
X131605284Y-89128218D01*
X131606609Y-89125617D01*
X131611790Y-89092905D01*
X131626626Y-89068694D01*
X131654236Y-89062065D01*
X131674667Y-89072474D01*
X131741062Y-89138869D01*
X131797722Y-89167739D01*
X131851780Y-89195283D01*
X131851782Y-89195284D01*
X131854383Y-89196609D01*
X131980000Y-89216505D01*
X131982885Y-89216048D01*
X132102732Y-89197066D01*
X132105617Y-89196609D01*
X132108218Y-89195284D01*
X132108220Y-89195283D01*
X132162278Y-89167739D01*
X132218938Y-89138869D01*
X132308869Y-89048938D01*
X132366609Y-88935617D01*
X132386505Y-88810000D01*
X132366609Y-88684383D01*
X132360909Y-88673195D01*
X132349090Y-88650000D01*
X133313495Y-88650000D01*
X133333391Y-88775617D01*
X133391131Y-88888938D01*
X133481062Y-88978869D01*
X133497246Y-88987115D01*
X133591780Y-89035283D01*
X133591782Y-89035284D01*
X133594383Y-89036609D01*
X133720000Y-89056505D01*
X133722885Y-89056048D01*
X133842732Y-89037066D01*
X133845617Y-89036609D01*
X133848218Y-89035284D01*
X133848220Y-89035283D01*
X133942754Y-88987115D01*
X133958938Y-88978869D01*
X134048869Y-88888938D01*
X134106609Y-88775617D01*
X134126505Y-88650000D01*
X134106609Y-88524383D01*
X134048869Y-88411062D01*
X133958938Y-88321131D01*
X133902278Y-88292261D01*
X133848220Y-88264717D01*
X133848218Y-88264716D01*
X133845617Y-88263391D01*
X133720000Y-88243495D01*
X133594383Y-88263391D01*
X133591782Y-88264716D01*
X133591780Y-88264717D01*
X133537722Y-88292261D01*
X133481062Y-88321131D01*
X133391131Y-88411062D01*
X133333391Y-88524383D01*
X133313495Y-88650000D01*
X132349090Y-88650000D01*
X132325341Y-88603391D01*
X132308869Y-88571062D01*
X132218938Y-88481131D01*
X132130458Y-88436048D01*
X132108220Y-88424717D01*
X132108218Y-88424716D01*
X132105617Y-88423391D01*
X131980000Y-88403495D01*
X131854383Y-88423391D01*
X131851782Y-88424716D01*
X131851780Y-88424717D01*
X131829542Y-88436048D01*
X131741062Y-88481131D01*
X131651131Y-88571062D01*
X131634659Y-88603391D01*
X131599092Y-88673195D01*
X131593391Y-88684383D01*
X131588215Y-88717066D01*
X131588210Y-88717095D01*
X131573374Y-88741306D01*
X131545764Y-88747935D01*
X131525333Y-88737526D01*
X131458938Y-88671131D01*
X131402277Y-88642261D01*
X131348220Y-88614717D01*
X131348218Y-88614716D01*
X131345617Y-88613391D01*
X131220000Y-88593495D01*
X131094383Y-88613391D01*
X131091782Y-88614716D01*
X131091780Y-88614717D01*
X131037723Y-88642261D01*
X130981062Y-88671131D01*
X130891131Y-88761062D01*
X130889805Y-88763665D01*
X130839813Y-88861780D01*
X130833391Y-88874383D01*
X130813495Y-89000000D01*
X118710500Y-89000000D01*
X118710500Y-87520000D01*
X129573495Y-87520000D01*
X129593391Y-87645617D01*
X129651131Y-87758938D01*
X129741062Y-87848869D01*
X129758184Y-87857593D01*
X129851780Y-87905283D01*
X129851782Y-87905284D01*
X129854383Y-87906609D01*
X129857268Y-87907066D01*
X129860286Y-87907544D01*
X129980000Y-87926505D01*
X129982885Y-87926048D01*
X130102732Y-87907066D01*
X130105617Y-87906609D01*
X130108218Y-87905284D01*
X130108220Y-87905283D01*
X130201816Y-87857593D01*
X130218938Y-87848869D01*
X130308869Y-87758938D01*
X130366609Y-87645617D01*
X130386505Y-87520000D01*
X130381753Y-87490000D01*
X134323495Y-87490000D01*
X134343391Y-87615617D01*
X134344716Y-87618218D01*
X134344717Y-87618220D01*
X134358218Y-87644717D01*
X134401131Y-87728938D01*
X134491062Y-87818869D01*
X134545889Y-87846805D01*
X134601780Y-87875283D01*
X134601782Y-87875284D01*
X134604383Y-87876609D01*
X134607268Y-87877066D01*
X134706024Y-87892708D01*
X134730235Y-87907544D01*
X134736863Y-87935155D01*
X134722027Y-87959366D01*
X134717068Y-87962404D01*
X134641062Y-88001131D01*
X134551131Y-88091062D01*
X134493391Y-88204383D01*
X134473495Y-88330000D01*
X134493391Y-88455617D01*
X134551131Y-88568938D01*
X134641062Y-88658869D01*
X134686027Y-88681780D01*
X134751780Y-88715283D01*
X134751782Y-88715284D01*
X134754383Y-88716609D01*
X134880000Y-88736505D01*
X134882885Y-88736048D01*
X135002732Y-88717066D01*
X135005617Y-88716609D01*
X135008218Y-88715284D01*
X135008220Y-88715283D01*
X135073973Y-88681780D01*
X135118938Y-88658869D01*
X135127807Y-88650000D01*
X139293495Y-88650000D01*
X139313391Y-88775617D01*
X139371131Y-88888938D01*
X139461062Y-88978869D01*
X139477246Y-88987115D01*
X139571780Y-89035283D01*
X139571782Y-89035284D01*
X139574383Y-89036609D01*
X139700000Y-89056505D01*
X139702885Y-89056048D01*
X139822732Y-89037066D01*
X139825617Y-89036609D01*
X139828218Y-89035284D01*
X139828220Y-89035283D01*
X139917092Y-88990000D01*
X151173495Y-88990000D01*
X151193391Y-89115617D01*
X151194716Y-89118218D01*
X151194717Y-89118220D01*
X151204187Y-89136805D01*
X151251131Y-89228938D01*
X151341062Y-89318869D01*
X151360688Y-89328869D01*
X151451780Y-89375283D01*
X151451782Y-89375284D01*
X151454383Y-89376609D01*
X151580000Y-89396505D01*
X151582885Y-89396048D01*
X151593177Y-89394418D01*
X151705617Y-89376609D01*
X151708218Y-89375284D01*
X151708220Y-89375283D01*
X151799312Y-89328869D01*
X151818938Y-89318869D01*
X151908869Y-89228938D01*
X151955813Y-89136805D01*
X151965283Y-89118220D01*
X151965284Y-89118218D01*
X151966609Y-89115617D01*
X151986505Y-88990000D01*
X151966609Y-88864383D01*
X151908869Y-88751062D01*
X151818938Y-88661131D01*
X151725243Y-88613391D01*
X151708220Y-88604717D01*
X151708218Y-88604716D01*
X151705617Y-88603391D01*
X151580000Y-88583495D01*
X151454383Y-88603391D01*
X151451782Y-88604716D01*
X151451780Y-88604717D01*
X151434757Y-88613391D01*
X151341062Y-88661131D01*
X151251131Y-88751062D01*
X151193391Y-88864383D01*
X151173495Y-88990000D01*
X139917092Y-88990000D01*
X139922754Y-88987115D01*
X139938938Y-88978869D01*
X140028869Y-88888938D01*
X140086609Y-88775617D01*
X140106505Y-88650000D01*
X140086609Y-88524383D01*
X140028869Y-88411062D01*
X139938938Y-88321131D01*
X139882278Y-88292261D01*
X139828220Y-88264717D01*
X139828218Y-88264716D01*
X139825617Y-88263391D01*
X139700000Y-88243495D01*
X139574383Y-88263391D01*
X139571782Y-88264716D01*
X139571780Y-88264717D01*
X139517722Y-88292261D01*
X139461062Y-88321131D01*
X139371131Y-88411062D01*
X139313391Y-88524383D01*
X139293495Y-88650000D01*
X135127807Y-88650000D01*
X135208869Y-88568938D01*
X135266609Y-88455617D01*
X135286505Y-88330000D01*
X135266609Y-88204383D01*
X135208869Y-88091062D01*
X135147807Y-88030000D01*
X153333495Y-88030000D01*
X153353391Y-88155617D01*
X153411131Y-88268938D01*
X153501062Y-88358869D01*
X153557722Y-88387739D01*
X153611780Y-88415283D01*
X153611782Y-88415284D01*
X153614383Y-88416609D01*
X153740000Y-88436505D01*
X153742885Y-88436048D01*
X153862732Y-88417066D01*
X153865617Y-88416609D01*
X153868218Y-88415284D01*
X153868220Y-88415283D01*
X153922277Y-88387739D01*
X153978938Y-88358869D01*
X154068869Y-88268938D01*
X154126609Y-88155617D01*
X154146505Y-88030000D01*
X154131483Y-87935155D01*
X154127066Y-87907268D01*
X154126609Y-87904383D01*
X154120661Y-87892708D01*
X154070195Y-87793665D01*
X154068869Y-87791062D01*
X153978938Y-87701131D01*
X153922277Y-87672261D01*
X153868220Y-87644717D01*
X153868218Y-87644716D01*
X153865617Y-87643391D01*
X153861457Y-87642732D01*
X153742885Y-87623952D01*
X153740000Y-87623495D01*
X153737115Y-87623952D01*
X153618544Y-87642732D01*
X153614383Y-87643391D01*
X153611782Y-87644716D01*
X153611780Y-87644717D01*
X153557722Y-87672261D01*
X153501062Y-87701131D01*
X153411131Y-87791062D01*
X153409805Y-87793665D01*
X153359340Y-87892708D01*
X153353391Y-87904383D01*
X153352934Y-87907268D01*
X153348517Y-87935155D01*
X153333495Y-88030000D01*
X135147807Y-88030000D01*
X135118938Y-88001131D01*
X135036970Y-87959366D01*
X135008220Y-87944717D01*
X135008218Y-87944716D01*
X135005617Y-87943391D01*
X135002732Y-87942934D01*
X134903976Y-87927292D01*
X134879765Y-87912456D01*
X134873137Y-87884845D01*
X134887973Y-87860634D01*
X134892932Y-87857596D01*
X134968938Y-87818869D01*
X135058869Y-87728938D01*
X135101782Y-87644717D01*
X135115283Y-87618220D01*
X135115284Y-87618218D01*
X135116609Y-87615617D01*
X135136505Y-87490000D01*
X135116609Y-87364383D01*
X135113800Y-87358869D01*
X135060195Y-87253665D01*
X135058869Y-87251062D01*
X134968938Y-87161131D01*
X134899212Y-87125604D01*
X134880771Y-87104013D01*
X134882999Y-87075705D01*
X134898704Y-87060000D01*
X140113495Y-87060000D01*
X140133391Y-87185617D01*
X140134716Y-87188218D01*
X140134717Y-87188220D01*
X140137252Y-87193195D01*
X140191131Y-87298938D01*
X140281062Y-87388869D01*
X140291884Y-87394383D01*
X140391780Y-87445283D01*
X140391782Y-87445284D01*
X140394383Y-87446609D01*
X140520000Y-87466505D01*
X140522885Y-87466048D01*
X140642732Y-87447066D01*
X140645617Y-87446609D01*
X140648218Y-87445284D01*
X140648220Y-87445283D01*
X140748116Y-87394383D01*
X140758938Y-87388869D01*
X140848869Y-87298938D01*
X140902748Y-87193195D01*
X140905283Y-87188220D01*
X140905284Y-87188218D01*
X140906609Y-87185617D01*
X140926505Y-87060000D01*
X140921753Y-87030000D01*
X153993495Y-87030000D01*
X154013391Y-87155617D01*
X154014716Y-87158218D01*
X154014717Y-87158220D01*
X154017252Y-87163195D01*
X154071131Y-87268938D01*
X154161062Y-87358869D01*
X154171884Y-87364383D01*
X154271780Y-87415283D01*
X154271782Y-87415284D01*
X154274383Y-87416609D01*
X154400000Y-87436505D01*
X154402885Y-87436048D01*
X154522732Y-87417066D01*
X154525617Y-87416609D01*
X154528218Y-87415284D01*
X154528220Y-87415283D01*
X154628116Y-87364383D01*
X154638938Y-87358869D01*
X154728869Y-87268938D01*
X154782748Y-87163195D01*
X154785283Y-87158220D01*
X154785284Y-87158218D01*
X154786609Y-87155617D01*
X154806505Y-87030000D01*
X154786609Y-86904383D01*
X154728869Y-86791062D01*
X154638938Y-86701131D01*
X154546344Y-86653952D01*
X154528220Y-86644717D01*
X154528218Y-86644716D01*
X154525617Y-86643391D01*
X154400000Y-86623495D01*
X154274383Y-86643391D01*
X154271782Y-86644716D01*
X154271780Y-86644717D01*
X154253656Y-86653952D01*
X154161062Y-86701131D01*
X154071131Y-86791062D01*
X154013391Y-86904383D01*
X153993495Y-87030000D01*
X140921753Y-87030000D01*
X140906609Y-86934383D01*
X140904887Y-86931002D01*
X140874830Y-86872014D01*
X140848869Y-86821062D01*
X140758938Y-86731131D01*
X140672552Y-86687115D01*
X140648220Y-86674717D01*
X140648218Y-86674716D01*
X140645617Y-86673391D01*
X140520000Y-86653495D01*
X140394383Y-86673391D01*
X140391782Y-86674716D01*
X140391780Y-86674717D01*
X140367448Y-86687115D01*
X140281062Y-86731131D01*
X140191131Y-86821062D01*
X140165170Y-86872014D01*
X140135114Y-86931002D01*
X140133391Y-86934383D01*
X140113495Y-87060000D01*
X134898704Y-87060000D01*
X134899212Y-87059492D01*
X134962754Y-87027115D01*
X134978938Y-87018869D01*
X135068869Y-86928938D01*
X135107698Y-86852732D01*
X135125283Y-86818220D01*
X135125284Y-86818218D01*
X135126609Y-86815617D01*
X135136036Y-86756098D01*
X135150872Y-86731887D01*
X135178483Y-86725259D01*
X135198913Y-86735668D01*
X135277062Y-86813817D01*
X135296390Y-86823665D01*
X135387780Y-86870231D01*
X135387782Y-86870232D01*
X135390383Y-86871557D01*
X135516000Y-86891453D01*
X135518885Y-86890996D01*
X135638732Y-86872014D01*
X135641617Y-86871557D01*
X135644218Y-86870232D01*
X135644220Y-86870231D01*
X135735610Y-86823665D01*
X135754938Y-86813817D01*
X135844869Y-86723886D01*
X135902609Y-86610565D01*
X135922505Y-86484948D01*
X135902609Y-86359331D01*
X135894255Y-86342934D01*
X135864201Y-86283952D01*
X135844869Y-86246010D01*
X135754938Y-86156079D01*
X135734234Y-86145530D01*
X135715793Y-86123939D01*
X135718021Y-86095631D01*
X135734234Y-86079418D01*
X135754938Y-86068869D01*
X135844869Y-85978938D01*
X135878603Y-85912732D01*
X135901283Y-85868220D01*
X135901284Y-85868218D01*
X135902609Y-85865617D01*
X135920921Y-85750000D01*
X139268495Y-85750000D01*
X139288391Y-85875617D01*
X139346131Y-85988938D01*
X139436062Y-86078869D01*
X139468959Y-86095631D01*
X139546780Y-86135283D01*
X139546782Y-86135284D01*
X139549383Y-86136609D01*
X139675000Y-86156505D01*
X139677885Y-86156048D01*
X139686062Y-86154753D01*
X139800617Y-86136609D01*
X139803218Y-86135284D01*
X139803220Y-86135283D01*
X139881041Y-86095631D01*
X139913938Y-86078869D01*
X140003869Y-85988938D01*
X140061609Y-85875617D01*
X140075170Y-85790000D01*
X147893495Y-85790000D01*
X147913391Y-85915617D01*
X147971131Y-86028938D01*
X148061062Y-86118869D01*
X148095879Y-86136609D01*
X148171780Y-86175283D01*
X148171782Y-86175284D01*
X148174383Y-86176609D01*
X148300000Y-86196505D01*
X148302885Y-86196048D01*
X148422732Y-86177066D01*
X148425617Y-86176609D01*
X148428218Y-86175284D01*
X148428220Y-86175283D01*
X148504121Y-86136609D01*
X148538938Y-86118869D01*
X148628869Y-86028938D01*
X148686609Y-85915617D01*
X148706505Y-85790000D01*
X148686609Y-85664383D01*
X148670958Y-85633665D01*
X148630195Y-85553665D01*
X148628869Y-85551062D01*
X148538938Y-85461131D01*
X148482277Y-85432261D01*
X148428220Y-85404717D01*
X148428218Y-85404716D01*
X148425617Y-85403391D01*
X148300000Y-85383495D01*
X148174383Y-85403391D01*
X148171782Y-85404716D01*
X148171780Y-85404717D01*
X148117722Y-85432261D01*
X148061062Y-85461131D01*
X147971131Y-85551062D01*
X147969805Y-85553665D01*
X147929043Y-85633665D01*
X147913391Y-85664383D01*
X147893495Y-85790000D01*
X140075170Y-85790000D01*
X140081505Y-85750000D01*
X140061609Y-85624383D01*
X140055188Y-85611780D01*
X140023198Y-85548998D01*
X140003869Y-85511062D01*
X139913938Y-85421131D01*
X139840073Y-85383495D01*
X139803220Y-85364717D01*
X139803218Y-85364716D01*
X139800617Y-85363391D01*
X139675000Y-85343495D01*
X139549383Y-85363391D01*
X139546782Y-85364716D01*
X139546780Y-85364717D01*
X139509927Y-85383495D01*
X139436062Y-85421131D01*
X139346131Y-85511062D01*
X139326802Y-85548998D01*
X139294813Y-85611780D01*
X139288391Y-85624383D01*
X139268495Y-85750000D01*
X135920921Y-85750000D01*
X135922505Y-85740000D01*
X135902609Y-85614383D01*
X135844869Y-85501062D01*
X135754938Y-85411131D01*
X135661243Y-85363391D01*
X135644220Y-85354717D01*
X135644218Y-85354716D01*
X135641617Y-85353391D01*
X135516000Y-85333495D01*
X135390383Y-85353391D01*
X135387782Y-85354716D01*
X135387780Y-85354717D01*
X135370757Y-85363391D01*
X135277062Y-85411131D01*
X135187131Y-85501062D01*
X135129391Y-85614383D01*
X135109495Y-85740000D01*
X135129391Y-85865617D01*
X135130716Y-85868218D01*
X135130717Y-85868220D01*
X135153397Y-85912732D01*
X135187131Y-85978938D01*
X135277062Y-86068869D01*
X135297766Y-86079418D01*
X135316207Y-86101009D01*
X135313979Y-86129317D01*
X135297766Y-86145530D01*
X135277062Y-86156079D01*
X135187131Y-86246010D01*
X135167799Y-86283952D01*
X135137746Y-86342934D01*
X135129391Y-86359331D01*
X135128934Y-86362216D01*
X135119964Y-86418850D01*
X135105128Y-86443061D01*
X135077517Y-86449689D01*
X135057087Y-86439280D01*
X134978938Y-86361131D01*
X134905073Y-86323495D01*
X134868220Y-86304717D01*
X134868218Y-86304716D01*
X134865617Y-86303391D01*
X134740000Y-86283495D01*
X134614383Y-86303391D01*
X134611782Y-86304716D01*
X134611780Y-86304717D01*
X134574927Y-86323495D01*
X134501062Y-86361131D01*
X134411131Y-86451062D01*
X134353391Y-86564383D01*
X134333495Y-86690000D01*
X134353391Y-86815617D01*
X134354716Y-86818218D01*
X134354717Y-86818220D01*
X134372302Y-86852732D01*
X134411131Y-86928938D01*
X134501062Y-87018869D01*
X134517246Y-87027115D01*
X134570788Y-87054396D01*
X134589229Y-87075987D01*
X134587001Y-87104295D01*
X134570788Y-87120508D01*
X134542902Y-87134717D01*
X134491062Y-87161131D01*
X134401131Y-87251062D01*
X134399805Y-87253665D01*
X134346201Y-87358869D01*
X134343391Y-87364383D01*
X134323495Y-87490000D01*
X130381753Y-87490000D01*
X130366609Y-87394383D01*
X130363800Y-87388869D01*
X130310195Y-87283665D01*
X130308869Y-87281062D01*
X130218938Y-87191131D01*
X130110832Y-87136048D01*
X130108220Y-87134717D01*
X130108218Y-87134716D01*
X130105617Y-87133391D01*
X129980000Y-87113495D01*
X129854383Y-87133391D01*
X129851782Y-87134716D01*
X129851780Y-87134717D01*
X129849168Y-87136048D01*
X129741062Y-87191131D01*
X129651131Y-87281062D01*
X129649805Y-87283665D01*
X129596201Y-87388869D01*
X129593391Y-87394383D01*
X129573495Y-87520000D01*
X118710500Y-87520000D01*
X118710500Y-86730000D01*
X121713495Y-86730000D01*
X121733391Y-86855617D01*
X121734716Y-86858218D01*
X121734717Y-86858220D01*
X121751650Y-86891453D01*
X121791131Y-86968938D01*
X121881062Y-87058869D01*
X121914658Y-87075987D01*
X121991780Y-87115283D01*
X121991782Y-87115284D01*
X121994383Y-87116609D01*
X122120000Y-87136505D01*
X122122885Y-87136048D01*
X122242732Y-87117066D01*
X122245617Y-87116609D01*
X122248218Y-87115284D01*
X122248220Y-87115283D01*
X122325342Y-87075987D01*
X122358938Y-87058869D01*
X122448869Y-86968938D01*
X122488350Y-86891453D01*
X122505283Y-86858220D01*
X122505284Y-86858218D01*
X122506609Y-86855617D01*
X122526505Y-86730000D01*
X124373495Y-86730000D01*
X124393391Y-86855617D01*
X124394716Y-86858218D01*
X124394717Y-86858220D01*
X124411650Y-86891453D01*
X124451131Y-86968938D01*
X124541062Y-87058869D01*
X124574658Y-87075987D01*
X124651780Y-87115283D01*
X124651782Y-87115284D01*
X124654383Y-87116609D01*
X124780000Y-87136505D01*
X124782885Y-87136048D01*
X124902732Y-87117066D01*
X124905617Y-87116609D01*
X124908218Y-87115284D01*
X124908220Y-87115283D01*
X124985342Y-87075987D01*
X125018938Y-87058869D01*
X125108869Y-86968938D01*
X125148350Y-86891453D01*
X125165283Y-86858220D01*
X125165284Y-86858218D01*
X125166609Y-86855617D01*
X125186505Y-86730000D01*
X125166609Y-86604383D01*
X125108869Y-86491062D01*
X125018938Y-86401131D01*
X124962277Y-86372261D01*
X124908220Y-86344717D01*
X124908218Y-86344716D01*
X124905617Y-86343391D01*
X124780000Y-86323495D01*
X124654383Y-86343391D01*
X124651782Y-86344716D01*
X124651780Y-86344717D01*
X124597722Y-86372261D01*
X124541062Y-86401131D01*
X124451131Y-86491062D01*
X124393391Y-86604383D01*
X124373495Y-86730000D01*
X122526505Y-86730000D01*
X122506609Y-86604383D01*
X122448869Y-86491062D01*
X122358938Y-86401131D01*
X122302277Y-86372261D01*
X122248220Y-86344717D01*
X122248218Y-86344716D01*
X122245617Y-86343391D01*
X122120000Y-86323495D01*
X121994383Y-86343391D01*
X121991782Y-86344716D01*
X121991780Y-86344717D01*
X121937722Y-86372261D01*
X121881062Y-86401131D01*
X121791131Y-86491062D01*
X121733391Y-86604383D01*
X121713495Y-86730000D01*
X118710500Y-86730000D01*
X118710500Y-85870000D01*
X125083495Y-85870000D01*
X125103391Y-85995617D01*
X125104716Y-85998218D01*
X125104717Y-85998220D01*
X125132261Y-86052278D01*
X125161131Y-86108938D01*
X125251062Y-86198869D01*
X125307722Y-86227739D01*
X125361780Y-86255283D01*
X125361782Y-86255284D01*
X125364383Y-86256609D01*
X125490000Y-86276505D01*
X125492885Y-86276048D01*
X125612732Y-86257066D01*
X125615617Y-86256609D01*
X125618218Y-86255284D01*
X125618220Y-86255283D01*
X125672278Y-86227739D01*
X125728938Y-86198869D01*
X125818869Y-86108938D01*
X125847739Y-86052278D01*
X125875283Y-85998220D01*
X125875284Y-85998218D01*
X125876609Y-85995617D01*
X125896505Y-85870000D01*
X125876609Y-85744383D01*
X125818869Y-85631062D01*
X125728938Y-85541131D01*
X125650298Y-85501062D01*
X125618220Y-85484717D01*
X125618218Y-85484716D01*
X125615617Y-85483391D01*
X125490000Y-85463495D01*
X125364383Y-85483391D01*
X125361782Y-85484716D01*
X125361780Y-85484717D01*
X125329702Y-85501062D01*
X125251062Y-85541131D01*
X125161131Y-85631062D01*
X125103391Y-85744383D01*
X125083495Y-85870000D01*
X118710500Y-85870000D01*
X118710500Y-84730000D01*
X121723495Y-84730000D01*
X121743391Y-84855617D01*
X121801131Y-84968938D01*
X121891062Y-85058869D01*
X121947722Y-85087739D01*
X122001780Y-85115283D01*
X122001782Y-85115284D01*
X122004383Y-85116609D01*
X122130000Y-85136505D01*
X122132885Y-85136048D01*
X122252732Y-85117066D01*
X122255617Y-85116609D01*
X122258218Y-85115284D01*
X122258220Y-85115283D01*
X122312278Y-85087739D01*
X122368938Y-85058869D01*
X122458869Y-84968938D01*
X122516609Y-84855617D01*
X122536505Y-84730000D01*
X122516609Y-84604383D01*
X122473614Y-84520000D01*
X147873495Y-84520000D01*
X147893391Y-84645617D01*
X147951131Y-84758938D01*
X148041062Y-84848869D01*
X148097722Y-84877739D01*
X148151780Y-84905283D01*
X148151782Y-84905284D01*
X148154383Y-84906609D01*
X148280000Y-84926505D01*
X148282885Y-84926048D01*
X148402732Y-84907066D01*
X148405617Y-84906609D01*
X148408218Y-84905284D01*
X148408220Y-84905283D01*
X148462277Y-84877739D01*
X148518938Y-84848869D01*
X148608869Y-84758938D01*
X148666609Y-84645617D01*
X148686505Y-84520000D01*
X148666609Y-84394383D01*
X148608869Y-84281062D01*
X148518938Y-84191131D01*
X148431559Y-84146609D01*
X148408220Y-84134717D01*
X148408218Y-84134716D01*
X148405617Y-84133391D01*
X148280000Y-84113495D01*
X148154383Y-84133391D01*
X148151782Y-84134716D01*
X148151780Y-84134717D01*
X148128441Y-84146609D01*
X148041062Y-84191131D01*
X147951131Y-84281062D01*
X147893391Y-84394383D01*
X147873495Y-84520000D01*
X122473614Y-84520000D01*
X122458869Y-84491062D01*
X122368938Y-84401131D01*
X122312277Y-84372261D01*
X122258220Y-84344717D01*
X122258218Y-84344716D01*
X122255617Y-84343391D01*
X122130000Y-84323495D01*
X122004383Y-84343391D01*
X122001782Y-84344716D01*
X122001780Y-84344717D01*
X121947723Y-84372261D01*
X121891062Y-84401131D01*
X121801131Y-84491062D01*
X121743391Y-84604383D01*
X121723495Y-84730000D01*
X118710500Y-84730000D01*
X118710500Y-83760000D01*
X123043495Y-83760000D01*
X123063391Y-83885617D01*
X123121131Y-83998938D01*
X123211062Y-84088869D01*
X123259393Y-84113495D01*
X123321780Y-84145283D01*
X123321782Y-84145284D01*
X123324383Y-84146609D01*
X123450000Y-84166505D01*
X123452885Y-84166048D01*
X123572732Y-84147066D01*
X123575617Y-84146609D01*
X123578218Y-84145284D01*
X123578220Y-84145283D01*
X123640607Y-84113495D01*
X123688938Y-84088869D01*
X123778869Y-83998938D01*
X123836609Y-83885617D01*
X123856505Y-83760000D01*
X123836609Y-83634383D01*
X123778869Y-83521062D01*
X123688938Y-83431131D01*
X123588971Y-83380195D01*
X123578220Y-83374717D01*
X123578218Y-83374716D01*
X123575617Y-83373391D01*
X123450000Y-83353495D01*
X123324383Y-83373391D01*
X123321782Y-83374716D01*
X123321780Y-83374717D01*
X123311029Y-83380195D01*
X123211062Y-83431131D01*
X123121131Y-83521062D01*
X123063391Y-83634383D01*
X123043495Y-83760000D01*
X118710500Y-83760000D01*
X118710500Y-83173956D01*
X133669539Y-83173956D01*
X133689435Y-83299573D01*
X133747175Y-83412894D01*
X133837106Y-83502825D01*
X133872898Y-83521062D01*
X133947824Y-83559239D01*
X133947826Y-83559240D01*
X133950427Y-83560565D01*
X134076044Y-83580461D01*
X134078929Y-83580004D01*
X134198776Y-83561022D01*
X134201661Y-83560565D01*
X134204262Y-83559240D01*
X134204264Y-83559239D01*
X134279190Y-83521062D01*
X134314982Y-83502825D01*
X134404913Y-83412894D01*
X134462653Y-83299573D01*
X134482549Y-83173956D01*
X134462653Y-83048339D01*
X134404913Y-82935018D01*
X134314982Y-82845087D01*
X134248204Y-82811062D01*
X134204264Y-82788673D01*
X134204262Y-82788672D01*
X134201661Y-82787347D01*
X134076044Y-82767451D01*
X133950427Y-82787347D01*
X133947826Y-82788672D01*
X133947824Y-82788673D01*
X133903884Y-82811062D01*
X133837106Y-82845087D01*
X133747175Y-82935018D01*
X133689435Y-83048339D01*
X133669539Y-83173956D01*
X118710500Y-83173956D01*
X118710500Y-82730000D01*
X122763495Y-82730000D01*
X122783391Y-82855617D01*
X122841131Y-82968938D01*
X122931062Y-83058869D01*
X122987723Y-83087739D01*
X123041780Y-83115283D01*
X123041782Y-83115284D01*
X123044383Y-83116609D01*
X123170000Y-83136505D01*
X123172885Y-83136048D01*
X123292732Y-83117066D01*
X123295617Y-83116609D01*
X123298218Y-83115284D01*
X123298220Y-83115283D01*
X123352278Y-83087739D01*
X123408938Y-83058869D01*
X123498869Y-82968938D01*
X123556609Y-82855617D01*
X123576505Y-82730000D01*
X123556609Y-82604383D01*
X123498869Y-82491062D01*
X123408938Y-82401131D01*
X123352278Y-82372261D01*
X123298220Y-82344717D01*
X123298218Y-82344716D01*
X123295617Y-82343391D01*
X123170000Y-82323495D01*
X123044383Y-82343391D01*
X123041782Y-82344716D01*
X123041780Y-82344717D01*
X122987722Y-82372261D01*
X122931062Y-82401131D01*
X122841131Y-82491062D01*
X122783391Y-82604383D01*
X122763495Y-82730000D01*
X118710500Y-82730000D01*
X118710500Y-82310000D01*
X139063495Y-82310000D01*
X139083391Y-82435617D01*
X139141131Y-82548938D01*
X139231062Y-82638869D01*
X139251911Y-82649492D01*
X139270351Y-82671084D01*
X139268123Y-82699392D01*
X139251911Y-82715603D01*
X139241062Y-82721131D01*
X139151131Y-82811062D01*
X139093391Y-82924383D01*
X139073495Y-83050000D01*
X139093391Y-83175617D01*
X139151131Y-83288938D01*
X139241062Y-83378869D01*
X139297723Y-83407739D01*
X139351780Y-83435283D01*
X139351782Y-83435284D01*
X139354383Y-83436609D01*
X139480000Y-83456505D01*
X139482885Y-83456048D01*
X139602732Y-83437066D01*
X139605617Y-83436609D01*
X139608218Y-83435284D01*
X139608220Y-83435283D01*
X139662277Y-83407739D01*
X139718938Y-83378869D01*
X139808869Y-83288938D01*
X139866609Y-83175617D01*
X139886505Y-83050000D01*
X139866609Y-82924383D01*
X139808869Y-82811062D01*
X139718938Y-82721131D01*
X139698089Y-82710508D01*
X139679649Y-82688916D01*
X139681877Y-82660608D01*
X139698089Y-82644397D01*
X139708938Y-82638869D01*
X139798869Y-82548938D01*
X139856609Y-82435617D01*
X139876505Y-82310000D01*
X139858903Y-82198869D01*
X139857066Y-82187268D01*
X139856609Y-82184383D01*
X139798869Y-82071062D01*
X139714041Y-81986234D01*
X139703175Y-81960000D01*
X139714041Y-81933766D01*
X139798869Y-81848938D01*
X139850673Y-81747268D01*
X139855283Y-81738220D01*
X139855284Y-81738218D01*
X139856609Y-81735617D01*
X139860666Y-81710000D01*
X151753495Y-81710000D01*
X151773391Y-81835617D01*
X151831131Y-81948938D01*
X151921062Y-82038869D01*
X151977722Y-82067739D01*
X152031780Y-82095283D01*
X152031782Y-82095284D01*
X152034383Y-82096609D01*
X152160000Y-82116505D01*
X152162885Y-82116048D01*
X152282732Y-82097066D01*
X152285617Y-82096609D01*
X152288218Y-82095284D01*
X152288220Y-82095283D01*
X152342278Y-82067739D01*
X152398938Y-82038869D01*
X152488869Y-81948938D01*
X152546609Y-81835617D01*
X152566505Y-81710000D01*
X152546609Y-81584383D01*
X152488869Y-81471062D01*
X152398938Y-81381131D01*
X152342277Y-81352261D01*
X152288220Y-81324717D01*
X152288218Y-81324716D01*
X152285617Y-81323391D01*
X152160000Y-81303495D01*
X152034383Y-81323391D01*
X152031782Y-81324716D01*
X152031780Y-81324717D01*
X151977723Y-81352261D01*
X151921062Y-81381131D01*
X151831131Y-81471062D01*
X151773391Y-81584383D01*
X151753495Y-81710000D01*
X139860666Y-81710000D01*
X139876505Y-81610000D01*
X139856609Y-81484383D01*
X139798869Y-81371062D01*
X139714041Y-81286234D01*
X139703175Y-81260000D01*
X139714041Y-81233766D01*
X139798869Y-81148938D01*
X139856609Y-81035617D01*
X139876505Y-80910000D01*
X139856609Y-80784383D01*
X139813614Y-80700000D01*
X143583495Y-80700000D01*
X143603391Y-80825617D01*
X143661131Y-80938938D01*
X143751062Y-81028869D01*
X143807723Y-81057739D01*
X143861780Y-81085283D01*
X143861782Y-81085284D01*
X143864383Y-81086609D01*
X143990000Y-81106505D01*
X143992885Y-81106048D01*
X144112732Y-81087066D01*
X144115617Y-81086609D01*
X144118218Y-81085284D01*
X144118220Y-81085283D01*
X144172278Y-81057739D01*
X144228938Y-81028869D01*
X144318869Y-80938938D01*
X144376609Y-80825617D01*
X144396505Y-80700000D01*
X144376609Y-80574383D01*
X144374376Y-80570000D01*
X147973495Y-80570000D01*
X147993391Y-80695617D01*
X148051131Y-80808938D01*
X148141062Y-80898869D01*
X148157246Y-80907115D01*
X148251780Y-80955283D01*
X148251782Y-80955284D01*
X148254383Y-80956609D01*
X148380000Y-80976505D01*
X148382885Y-80976048D01*
X148502732Y-80957066D01*
X148505617Y-80956609D01*
X148508218Y-80955284D01*
X148508220Y-80955283D01*
X148602754Y-80907115D01*
X148618938Y-80898869D01*
X148708869Y-80808938D01*
X148766609Y-80695617D01*
X148786505Y-80570000D01*
X148766609Y-80444383D01*
X148708869Y-80331062D01*
X148618938Y-80241131D01*
X148562278Y-80212261D01*
X148508220Y-80184717D01*
X148508218Y-80184716D01*
X148505617Y-80183391D01*
X148490913Y-80181062D01*
X148382885Y-80163952D01*
X148380000Y-80163495D01*
X148377115Y-80163952D01*
X148269088Y-80181062D01*
X148254383Y-80183391D01*
X148251782Y-80184716D01*
X148251780Y-80184717D01*
X148197723Y-80212261D01*
X148141062Y-80241131D01*
X148051131Y-80331062D01*
X147993391Y-80444383D01*
X147973495Y-80570000D01*
X144374376Y-80570000D01*
X144318869Y-80461062D01*
X144228938Y-80371131D01*
X144150298Y-80331062D01*
X144118220Y-80314717D01*
X144118218Y-80314716D01*
X144115617Y-80313391D01*
X143990000Y-80293495D01*
X143864383Y-80313391D01*
X143861782Y-80314716D01*
X143861780Y-80314717D01*
X143829702Y-80331062D01*
X143751062Y-80371131D01*
X143661131Y-80461062D01*
X143603391Y-80574383D01*
X143583495Y-80700000D01*
X139813614Y-80700000D01*
X139798869Y-80671062D01*
X139708938Y-80581131D01*
X139633576Y-80542732D01*
X139598220Y-80524717D01*
X139598218Y-80524716D01*
X139595617Y-80523391D01*
X139470000Y-80503495D01*
X139344383Y-80523391D01*
X139341782Y-80524716D01*
X139341780Y-80524717D01*
X139306424Y-80542732D01*
X139231062Y-80581131D01*
X139141131Y-80671062D01*
X139083391Y-80784383D01*
X139063495Y-80910000D01*
X139083391Y-81035617D01*
X139141131Y-81148938D01*
X139225959Y-81233766D01*
X139236825Y-81260000D01*
X139225959Y-81286234D01*
X139141131Y-81371062D01*
X139083391Y-81484383D01*
X139063495Y-81610000D01*
X139083391Y-81735617D01*
X139084716Y-81738218D01*
X139084717Y-81738220D01*
X139089327Y-81747268D01*
X139141131Y-81848938D01*
X139225959Y-81933766D01*
X139236825Y-81960000D01*
X139225959Y-81986234D01*
X139141131Y-82071062D01*
X139083391Y-82184383D01*
X139082934Y-82187268D01*
X139081097Y-82198869D01*
X139063495Y-82310000D01*
X118710500Y-82310000D01*
X118710500Y-81870000D01*
X122283495Y-81870000D01*
X122303391Y-81995617D01*
X122361131Y-82108938D01*
X122451062Y-82198869D01*
X122507722Y-82227739D01*
X122561780Y-82255283D01*
X122561782Y-82255284D01*
X122564383Y-82256609D01*
X122690000Y-82276505D01*
X122692885Y-82276048D01*
X122812732Y-82257066D01*
X122815617Y-82256609D01*
X122818218Y-82255284D01*
X122818220Y-82255283D01*
X122872277Y-82227739D01*
X122928938Y-82198869D01*
X123018869Y-82108938D01*
X123076609Y-81995617D01*
X123096505Y-81870000D01*
X123076609Y-81744383D01*
X123072143Y-81735617D01*
X123020195Y-81633665D01*
X123018869Y-81631062D01*
X122928938Y-81541131D01*
X122872277Y-81512261D01*
X122818220Y-81484717D01*
X122818218Y-81484716D01*
X122815617Y-81483391D01*
X122690000Y-81463495D01*
X122564383Y-81483391D01*
X122561782Y-81484716D01*
X122561780Y-81484717D01*
X122507723Y-81512261D01*
X122451062Y-81541131D01*
X122361131Y-81631062D01*
X122359805Y-81633665D01*
X122307858Y-81735617D01*
X122303391Y-81744383D01*
X122283495Y-81870000D01*
X118710500Y-81870000D01*
X118710500Y-80420000D01*
X134523495Y-80420000D01*
X134543391Y-80545617D01*
X134601131Y-80658938D01*
X134691062Y-80748869D01*
X134747723Y-80777739D01*
X134801780Y-80805283D01*
X134801782Y-80805284D01*
X134804383Y-80806609D01*
X134807268Y-80807066D01*
X134832119Y-80811002D01*
X134930000Y-80826505D01*
X134932885Y-80826048D01*
X134935607Y-80825617D01*
X135027881Y-80811002D01*
X135052732Y-80807066D01*
X135055617Y-80806609D01*
X135058218Y-80805284D01*
X135058220Y-80805283D01*
X135112277Y-80777739D01*
X135168938Y-80748869D01*
X135258869Y-80658938D01*
X135316609Y-80545617D01*
X135336505Y-80420000D01*
X135316609Y-80294383D01*
X135258869Y-80181062D01*
X135168938Y-80091131D01*
X135062938Y-80037121D01*
X135058220Y-80034717D01*
X135058218Y-80034716D01*
X135055617Y-80033391D01*
X134930000Y-80013495D01*
X134804383Y-80033391D01*
X134801782Y-80034716D01*
X134801780Y-80034717D01*
X134797062Y-80037121D01*
X134691062Y-80091131D01*
X134601131Y-80181062D01*
X134543391Y-80294383D01*
X134523495Y-80420000D01*
X118710500Y-80420000D01*
X118710500Y-79280000D01*
X131093495Y-79280000D01*
X131113391Y-79405617D01*
X131114716Y-79408218D01*
X131114717Y-79408220D01*
X131120143Y-79418869D01*
X131171131Y-79518938D01*
X131261062Y-79608869D01*
X131288570Y-79622885D01*
X131371780Y-79665283D01*
X131371782Y-79665284D01*
X131374383Y-79666609D01*
X131500000Y-79686505D01*
X131502885Y-79686048D01*
X131622732Y-79667066D01*
X131625617Y-79666609D01*
X131628218Y-79665284D01*
X131628220Y-79665283D01*
X131711430Y-79622885D01*
X131717092Y-79620000D01*
X135043495Y-79620000D01*
X135063391Y-79745617D01*
X135121131Y-79858938D01*
X135211062Y-79948869D01*
X135267722Y-79977739D01*
X135321780Y-80005283D01*
X135321782Y-80005284D01*
X135324383Y-80006609D01*
X135450000Y-80026505D01*
X135452885Y-80026048D01*
X135572732Y-80007066D01*
X135575617Y-80006609D01*
X135578218Y-80005284D01*
X135578220Y-80005283D01*
X135632278Y-79977739D01*
X135688938Y-79948869D01*
X135778869Y-79858938D01*
X135834376Y-79750000D01*
X137533495Y-79750000D01*
X137553391Y-79875617D01*
X137611131Y-79988938D01*
X137701062Y-80078869D01*
X137732527Y-80094901D01*
X137811780Y-80135283D01*
X137811782Y-80135284D01*
X137814383Y-80136609D01*
X137940000Y-80156505D01*
X137942885Y-80156048D01*
X138062732Y-80137066D01*
X138065617Y-80136609D01*
X138068218Y-80135284D01*
X138068220Y-80135283D01*
X138147473Y-80094901D01*
X138178938Y-80078869D01*
X138268869Y-79988938D01*
X138326609Y-79875617D01*
X138346505Y-79750000D01*
X138326609Y-79624383D01*
X138278518Y-79530000D01*
X149882500Y-79530000D01*
X149902416Y-79681280D01*
X149903345Y-79683524D01*
X149903346Y-79683526D01*
X149930881Y-79750000D01*
X149960808Y-79822250D01*
X150053696Y-79943304D01*
X150174750Y-80036192D01*
X150176994Y-80037121D01*
X150176993Y-80037121D01*
X150313474Y-80093654D01*
X150313476Y-80093655D01*
X150315720Y-80094584D01*
X150429020Y-80109500D01*
X150504980Y-80109500D01*
X150618280Y-80094584D01*
X150620524Y-80093655D01*
X150620526Y-80093654D01*
X150757007Y-80037121D01*
X150757006Y-80037121D01*
X150759250Y-80036192D01*
X150880304Y-79943304D01*
X150973192Y-79822250D01*
X151003119Y-79750000D01*
X151030654Y-79683526D01*
X151030655Y-79683524D01*
X151031584Y-79681280D01*
X151051500Y-79530000D01*
X151031584Y-79378720D01*
X151025235Y-79363391D01*
X150974121Y-79239993D01*
X150973192Y-79237750D01*
X150880304Y-79116696D01*
X150759250Y-79023808D01*
X150728697Y-79011152D01*
X150620526Y-78966346D01*
X150620524Y-78966345D01*
X150618280Y-78965416D01*
X150504980Y-78950500D01*
X150429020Y-78950500D01*
X150315720Y-78965416D01*
X150313476Y-78966345D01*
X150313474Y-78966346D01*
X150205303Y-79011152D01*
X150174750Y-79023808D01*
X150053696Y-79116696D01*
X149960808Y-79237750D01*
X149959879Y-79239993D01*
X149908766Y-79363391D01*
X149902416Y-79378720D01*
X149882500Y-79530000D01*
X138278518Y-79530000D01*
X138268869Y-79511062D01*
X138178938Y-79421131D01*
X138100298Y-79381062D01*
X138068220Y-79364717D01*
X138068218Y-79364716D01*
X138065617Y-79363391D01*
X137940000Y-79343495D01*
X137814383Y-79363391D01*
X137811782Y-79364716D01*
X137811780Y-79364717D01*
X137779702Y-79381062D01*
X137701062Y-79421131D01*
X137611131Y-79511062D01*
X137553391Y-79624383D01*
X137533495Y-79750000D01*
X135834376Y-79750000D01*
X135836609Y-79745617D01*
X135856505Y-79620000D01*
X135836609Y-79494383D01*
X135778869Y-79381062D01*
X135688938Y-79291131D01*
X135608597Y-79250195D01*
X135578220Y-79234717D01*
X135578218Y-79234716D01*
X135575617Y-79233391D01*
X135450000Y-79213495D01*
X135324383Y-79233391D01*
X135321782Y-79234716D01*
X135321780Y-79234717D01*
X135291403Y-79250195D01*
X135211062Y-79291131D01*
X135121131Y-79381062D01*
X135063391Y-79494383D01*
X135043495Y-79620000D01*
X131717092Y-79620000D01*
X131738938Y-79608869D01*
X131828869Y-79518938D01*
X131879857Y-79418869D01*
X131885283Y-79408220D01*
X131885284Y-79408218D01*
X131886609Y-79405617D01*
X131906505Y-79280000D01*
X131887657Y-79161002D01*
X131887066Y-79157268D01*
X131886609Y-79154383D01*
X131867407Y-79116696D01*
X131853804Y-79090000D01*
X138483495Y-79090000D01*
X138503391Y-79215617D01*
X138561131Y-79328938D01*
X138651062Y-79418869D01*
X138707723Y-79447739D01*
X138761780Y-79475283D01*
X138761782Y-79475284D01*
X138764383Y-79476609D01*
X138890000Y-79496505D01*
X138892885Y-79496048D01*
X138903398Y-79494383D01*
X139015617Y-79476609D01*
X139018218Y-79475284D01*
X139018220Y-79475283D01*
X139072277Y-79447739D01*
X139128938Y-79418869D01*
X139218869Y-79328938D01*
X139276609Y-79215617D01*
X139296505Y-79090000D01*
X139276609Y-78964383D01*
X139270909Y-78953195D01*
X139253995Y-78920000D01*
X143583495Y-78920000D01*
X143583952Y-78922885D01*
X143602670Y-79041062D01*
X143603391Y-79045617D01*
X143661131Y-79158938D01*
X143751062Y-79248869D01*
X143806498Y-79277115D01*
X143861780Y-79305283D01*
X143861782Y-79305284D01*
X143864383Y-79306609D01*
X143990000Y-79326505D01*
X143992885Y-79326048D01*
X144112732Y-79307066D01*
X144115617Y-79306609D01*
X144118218Y-79305284D01*
X144118220Y-79305283D01*
X144173502Y-79277115D01*
X144228938Y-79248869D01*
X144318869Y-79158938D01*
X144376609Y-79045617D01*
X144377331Y-79041062D01*
X144396048Y-78922885D01*
X144396505Y-78920000D01*
X144376609Y-78794383D01*
X144318869Y-78681062D01*
X144228938Y-78591131D01*
X144154718Y-78553314D01*
X144118220Y-78534717D01*
X144118218Y-78534716D01*
X144115617Y-78533391D01*
X143990000Y-78513495D01*
X143864383Y-78533391D01*
X143861782Y-78534716D01*
X143861780Y-78534717D01*
X143825282Y-78553314D01*
X143751062Y-78591131D01*
X143661131Y-78681062D01*
X143603391Y-78794383D01*
X143583495Y-78920000D01*
X139253995Y-78920000D01*
X139220195Y-78853665D01*
X139218869Y-78851062D01*
X139128938Y-78761131D01*
X139054155Y-78723027D01*
X139018220Y-78704717D01*
X139018218Y-78704716D01*
X139015617Y-78703391D01*
X138890000Y-78683495D01*
X138764383Y-78703391D01*
X138761782Y-78704716D01*
X138761780Y-78704717D01*
X138725845Y-78723027D01*
X138651062Y-78761131D01*
X138561131Y-78851062D01*
X138559805Y-78853665D01*
X138509092Y-78953195D01*
X138503391Y-78964383D01*
X138483495Y-79090000D01*
X131853804Y-79090000D01*
X131830195Y-79043665D01*
X131828869Y-79041062D01*
X131738938Y-78951131D01*
X131672178Y-78917115D01*
X131628220Y-78894717D01*
X131628218Y-78894716D01*
X131625617Y-78893391D01*
X131500000Y-78873495D01*
X131374383Y-78893391D01*
X131371782Y-78894716D01*
X131371780Y-78894717D01*
X131327822Y-78917115D01*
X131261062Y-78951131D01*
X131171131Y-79041062D01*
X131169805Y-79043665D01*
X131132594Y-79116696D01*
X131113391Y-79154383D01*
X131112934Y-79157268D01*
X131112343Y-79161002D01*
X131093495Y-79280000D01*
X118710500Y-79280000D01*
X118710500Y-78316979D01*
X150173495Y-78316979D01*
X150193391Y-78442596D01*
X150251131Y-78555917D01*
X150341062Y-78645848D01*
X150397723Y-78674718D01*
X150451780Y-78702262D01*
X150451782Y-78702263D01*
X150454383Y-78703588D01*
X150580000Y-78723484D01*
X150582885Y-78723027D01*
X150702732Y-78704045D01*
X150705617Y-78703588D01*
X150708218Y-78702263D01*
X150708220Y-78702262D01*
X150762278Y-78674718D01*
X150818938Y-78645848D01*
X150908869Y-78555917D01*
X150966609Y-78442596D01*
X150986505Y-78316979D01*
X150966609Y-78191362D01*
X150908869Y-78078041D01*
X150818938Y-77988110D01*
X150757114Y-77956609D01*
X150708220Y-77931696D01*
X150708218Y-77931695D01*
X150705617Y-77930370D01*
X150580000Y-77910474D01*
X150454383Y-77930370D01*
X150451782Y-77931695D01*
X150451780Y-77931696D01*
X150402886Y-77956609D01*
X150341062Y-77988110D01*
X150251131Y-78078041D01*
X150193391Y-78191362D01*
X150173495Y-78316979D01*
X118710500Y-78316979D01*
X118710500Y-77910000D01*
X127963495Y-77910000D01*
X127983391Y-78035617D01*
X128041131Y-78148938D01*
X128131062Y-78238869D01*
X128187723Y-78267739D01*
X128241780Y-78295283D01*
X128241782Y-78295284D01*
X128244383Y-78296609D01*
X128370000Y-78316505D01*
X128372885Y-78316048D01*
X128492732Y-78297066D01*
X128495617Y-78296609D01*
X128498218Y-78295284D01*
X128498220Y-78295283D01*
X128552277Y-78267739D01*
X128608938Y-78238869D01*
X128698869Y-78148938D01*
X128756609Y-78035617D01*
X128776505Y-77910000D01*
X128756609Y-77784383D01*
X128748740Y-77768938D01*
X128700195Y-77673665D01*
X128698869Y-77671062D01*
X128608938Y-77581131D01*
X128502926Y-77527115D01*
X128498220Y-77524717D01*
X128498218Y-77524716D01*
X128495617Y-77523391D01*
X128370000Y-77503495D01*
X128244383Y-77523391D01*
X128241782Y-77524716D01*
X128241780Y-77524717D01*
X128237074Y-77527115D01*
X128131062Y-77581131D01*
X128041131Y-77671062D01*
X128039805Y-77673665D01*
X127991261Y-77768938D01*
X127983391Y-77784383D01*
X127963495Y-77910000D01*
X118710500Y-77910000D01*
X118710500Y-76591568D01*
X119205029Y-76591568D01*
X119205550Y-76593736D01*
X119205550Y-76593740D01*
X119240711Y-76740195D01*
X119244835Y-76757373D01*
X119323042Y-76908896D01*
X119435135Y-77037391D01*
X119436962Y-77038675D01*
X119436963Y-77038676D01*
X119570232Y-77132338D01*
X119574643Y-77135438D01*
X119624817Y-77155000D01*
X119731432Y-77196568D01*
X119731436Y-77196569D01*
X119733511Y-77197378D01*
X119751946Y-77199805D01*
X119862362Y-77214342D01*
X119862366Y-77214342D01*
X119863564Y-77214500D01*
X119952756Y-77214500D01*
X119953868Y-77214365D01*
X119953875Y-77214365D01*
X120016345Y-77206805D01*
X120079281Y-77199189D01*
X120081367Y-77198401D01*
X120081370Y-77198400D01*
X120236699Y-77139706D01*
X120236701Y-77139705D01*
X120238789Y-77138916D01*
X120240630Y-77137651D01*
X120377473Y-77043601D01*
X120377475Y-77043599D01*
X120379316Y-77042334D01*
X120492748Y-76915021D01*
X120493796Y-76913042D01*
X120511291Y-76880000D01*
X131223495Y-76880000D01*
X131243391Y-77005617D01*
X131301131Y-77118938D01*
X131391062Y-77208869D01*
X131447722Y-77237739D01*
X131501780Y-77265283D01*
X131501782Y-77265284D01*
X131504383Y-77266609D01*
X131630000Y-77286505D01*
X131755617Y-77266609D01*
X131757685Y-77265555D01*
X131785747Y-77267763D01*
X131804189Y-77289354D01*
X131801962Y-77317662D01*
X131795139Y-77327054D01*
X131791131Y-77331062D01*
X131733391Y-77444383D01*
X131713495Y-77570000D01*
X131733391Y-77695617D01*
X131791131Y-77808938D01*
X131881062Y-77898869D01*
X131915879Y-77916609D01*
X131991780Y-77955283D01*
X131991782Y-77955284D01*
X131994383Y-77956609D01*
X132120000Y-77976505D01*
X132122885Y-77976048D01*
X132242732Y-77957066D01*
X132245617Y-77956609D01*
X132248218Y-77955284D01*
X132248220Y-77955283D01*
X132324121Y-77916609D01*
X132358938Y-77898869D01*
X132448869Y-77808938D01*
X132506609Y-77695617D01*
X132526505Y-77570000D01*
X132520170Y-77530000D01*
X138903495Y-77530000D01*
X138923391Y-77655617D01*
X138924716Y-77658218D01*
X138924717Y-77658220D01*
X138932587Y-77673665D01*
X138981131Y-77768938D01*
X139071062Y-77858869D01*
X139127722Y-77887739D01*
X139181780Y-77915283D01*
X139181782Y-77915284D01*
X139184383Y-77916609D01*
X139310000Y-77936505D01*
X139312885Y-77936048D01*
X139432732Y-77917066D01*
X139435617Y-77916609D01*
X139438218Y-77915284D01*
X139438220Y-77915283D01*
X139492278Y-77887739D01*
X139548938Y-77858869D01*
X139638869Y-77768938D01*
X139687413Y-77673665D01*
X139695283Y-77658220D01*
X139695284Y-77658218D01*
X139696609Y-77655617D01*
X139716505Y-77530000D01*
X139696609Y-77404383D01*
X139638869Y-77291062D01*
X139548938Y-77201131D01*
X139523277Y-77188056D01*
X139504836Y-77166464D01*
X139507064Y-77138157D01*
X139523277Y-77121944D01*
X139526052Y-77120530D01*
X139548938Y-77108869D01*
X139638869Y-77018938D01*
X139672721Y-76952500D01*
X144350832Y-76952500D01*
X144351289Y-76955385D01*
X144365061Y-77042334D01*
X144369390Y-77069669D01*
X144423247Y-77175369D01*
X144507131Y-77259253D01*
X144521568Y-77266609D01*
X144610228Y-77311784D01*
X144610230Y-77311785D01*
X144612831Y-77313110D01*
X144730000Y-77331668D01*
X144732885Y-77331211D01*
X144844284Y-77313567D01*
X144847169Y-77313110D01*
X144849770Y-77311785D01*
X144849772Y-77311784D01*
X144938432Y-77266609D01*
X144952869Y-77259253D01*
X145036753Y-77175369D01*
X145090610Y-77069669D01*
X145094940Y-77042334D01*
X145108711Y-76955385D01*
X145109168Y-76952500D01*
X145090610Y-76835331D01*
X145070205Y-76795283D01*
X145049365Y-76754383D01*
X145036753Y-76729631D01*
X144968356Y-76661234D01*
X144957490Y-76635000D01*
X144968356Y-76608766D01*
X145036753Y-76540369D01*
X145090610Y-76434669D01*
X145109168Y-76317500D01*
X145090610Y-76200331D01*
X145088947Y-76197066D01*
X145043034Y-76106958D01*
X145036753Y-76094631D01*
X144952869Y-76010747D01*
X144887944Y-75977666D01*
X144849772Y-75958216D01*
X144849770Y-75958215D01*
X144847169Y-75956890D01*
X144730000Y-75938332D01*
X144612831Y-75956890D01*
X144610230Y-75958215D01*
X144610228Y-75958216D01*
X144572056Y-75977666D01*
X144507131Y-76010747D01*
X144423247Y-76094631D01*
X144416966Y-76106958D01*
X144371054Y-76197066D01*
X144369390Y-76200331D01*
X144350832Y-76317500D01*
X144369390Y-76434669D01*
X144423247Y-76540369D01*
X144491644Y-76608766D01*
X144502510Y-76635000D01*
X144491644Y-76661234D01*
X144423247Y-76729631D01*
X144410635Y-76754383D01*
X144389796Y-76795283D01*
X144369390Y-76835331D01*
X144350832Y-76952500D01*
X139672721Y-76952500D01*
X139690965Y-76916694D01*
X139695283Y-76908220D01*
X139695284Y-76908218D01*
X139696609Y-76905617D01*
X139716505Y-76780000D01*
X139696609Y-76654383D01*
X139694887Y-76651002D01*
X139640195Y-76543665D01*
X139638869Y-76541062D01*
X139548938Y-76451131D01*
X139462552Y-76407115D01*
X139438220Y-76394717D01*
X139438218Y-76394716D01*
X139435617Y-76393391D01*
X139310000Y-76373495D01*
X139184383Y-76393391D01*
X139181782Y-76394716D01*
X139181780Y-76394717D01*
X139157448Y-76407115D01*
X139071062Y-76451131D01*
X138981131Y-76541062D01*
X138979805Y-76543665D01*
X138925114Y-76651002D01*
X138923391Y-76654383D01*
X138903495Y-76780000D01*
X138923391Y-76905617D01*
X138924716Y-76908218D01*
X138924717Y-76908220D01*
X138929035Y-76916694D01*
X138981131Y-77018938D01*
X139071062Y-77108869D01*
X139093948Y-77120530D01*
X139096723Y-77121944D01*
X139115164Y-77143536D01*
X139112936Y-77171843D01*
X139096723Y-77188056D01*
X139071062Y-77201131D01*
X138981131Y-77291062D01*
X138923391Y-77404383D01*
X138903495Y-77530000D01*
X132520170Y-77530000D01*
X132506609Y-77444383D01*
X132448869Y-77331062D01*
X132358938Y-77241131D01*
X132291570Y-77206805D01*
X132248220Y-77184717D01*
X132248218Y-77184716D01*
X132245617Y-77183391D01*
X132120000Y-77163495D01*
X131994383Y-77183391D01*
X131992315Y-77184445D01*
X131964253Y-77182237D01*
X131945811Y-77160646D01*
X131948038Y-77132338D01*
X131954861Y-77122946D01*
X131958869Y-77118938D01*
X132016609Y-77005617D01*
X132036505Y-76880000D01*
X132017839Y-76762149D01*
X132017066Y-76757268D01*
X132016609Y-76754383D01*
X131958869Y-76641062D01*
X131868938Y-76551131D01*
X131812277Y-76522261D01*
X131758220Y-76494717D01*
X131758218Y-76494716D01*
X131755617Y-76493391D01*
X131630000Y-76473495D01*
X131504383Y-76493391D01*
X131501782Y-76494716D01*
X131501780Y-76494717D01*
X131447723Y-76522261D01*
X131391062Y-76551131D01*
X131301131Y-76641062D01*
X131243391Y-76754383D01*
X131242934Y-76757268D01*
X131242161Y-76762149D01*
X131223495Y-76880000D01*
X120511291Y-76880000D01*
X120571490Y-76766304D01*
X120571491Y-76766302D01*
X120572538Y-76764324D01*
X120600807Y-76651780D01*
X120613532Y-76601121D01*
X120613532Y-76601118D01*
X120614078Y-76598946D01*
X120614106Y-76593740D01*
X120614720Y-76476335D01*
X120614971Y-76428432D01*
X120613739Y-76423298D01*
X120610546Y-76410000D01*
X125637495Y-76410000D01*
X125657391Y-76535617D01*
X125658716Y-76538218D01*
X125658717Y-76538220D01*
X125664620Y-76549805D01*
X125715131Y-76648938D01*
X125805062Y-76738869D01*
X125835510Y-76754383D01*
X125915780Y-76795283D01*
X125915782Y-76795284D01*
X125918383Y-76796609D01*
X126044000Y-76816505D01*
X126046885Y-76816048D01*
X126166732Y-76797066D01*
X126169617Y-76796609D01*
X126172218Y-76795284D01*
X126172220Y-76795283D01*
X126252490Y-76754383D01*
X126282938Y-76738869D01*
X126372869Y-76648938D01*
X126423380Y-76549805D01*
X126429283Y-76538220D01*
X126429284Y-76538218D01*
X126430609Y-76535617D01*
X126450505Y-76410000D01*
X126441258Y-76351618D01*
X126447886Y-76324008D01*
X126472097Y-76309172D01*
X126483703Y-76309172D01*
X126530000Y-76316505D01*
X126532885Y-76316048D01*
X126652732Y-76297066D01*
X126655617Y-76296609D01*
X126658218Y-76295284D01*
X126658220Y-76295283D01*
X126761056Y-76242885D01*
X126766718Y-76240000D01*
X130493495Y-76240000D01*
X130513391Y-76365617D01*
X130514716Y-76368218D01*
X130514717Y-76368220D01*
X130528218Y-76394717D01*
X130571131Y-76478938D01*
X130661062Y-76568869D01*
X130701223Y-76589332D01*
X130771780Y-76625283D01*
X130771782Y-76625284D01*
X130774383Y-76626609D01*
X130900000Y-76646505D01*
X130902885Y-76646048D01*
X130904786Y-76645747D01*
X131025617Y-76626609D01*
X131028218Y-76625284D01*
X131028220Y-76625283D01*
X131098777Y-76589332D01*
X131138938Y-76568869D01*
X131228869Y-76478938D01*
X131271782Y-76394717D01*
X131285283Y-76368220D01*
X131285284Y-76368218D01*
X131286609Y-76365617D01*
X131306505Y-76240000D01*
X131286609Y-76114383D01*
X131284939Y-76111104D01*
X131233128Y-76009421D01*
X131228869Y-76001062D01*
X131138938Y-75911131D01*
X131059399Y-75870604D01*
X131040958Y-75849013D01*
X131043186Y-75820705D01*
X131059399Y-75804492D01*
X131116724Y-75775283D01*
X131148938Y-75758869D01*
X131238869Y-75668938D01*
X131287413Y-75573665D01*
X131295283Y-75558220D01*
X131295284Y-75558218D01*
X131296609Y-75555617D01*
X131316505Y-75430000D01*
X131296609Y-75304383D01*
X131273995Y-75260000D01*
X133993495Y-75260000D01*
X133993952Y-75262885D01*
X134012667Y-75381043D01*
X134013391Y-75385617D01*
X134014716Y-75388218D01*
X134014717Y-75388220D01*
X134029182Y-75416609D01*
X134071131Y-75498938D01*
X134161062Y-75588869D01*
X134170475Y-75593665D01*
X134271780Y-75645283D01*
X134271782Y-75645284D01*
X134274383Y-75646609D01*
X134400000Y-75666505D01*
X134402885Y-75666048D01*
X134522732Y-75647066D01*
X134525617Y-75646609D01*
X134528218Y-75645284D01*
X134528220Y-75645283D01*
X134629525Y-75593665D01*
X134638938Y-75588869D01*
X134728869Y-75498938D01*
X134770818Y-75416609D01*
X134785283Y-75388220D01*
X134785284Y-75388218D01*
X134786609Y-75385617D01*
X134787334Y-75381043D01*
X134806048Y-75262885D01*
X134806505Y-75260000D01*
X134804944Y-75250145D01*
X134797537Y-75203375D01*
X134804166Y-75175765D01*
X134828377Y-75160929D01*
X134851023Y-75164516D01*
X134891780Y-75185283D01*
X134891782Y-75185284D01*
X134894383Y-75186609D01*
X135020000Y-75206505D01*
X135022885Y-75206048D01*
X135082167Y-75196659D01*
X135109778Y-75203288D01*
X135124614Y-75227498D01*
X135121027Y-75250144D01*
X135093391Y-75304383D01*
X135073495Y-75430000D01*
X135093391Y-75555617D01*
X135094716Y-75558218D01*
X135094717Y-75558220D01*
X135102587Y-75573665D01*
X135151131Y-75668938D01*
X135241062Y-75758869D01*
X135275879Y-75776609D01*
X135351780Y-75815283D01*
X135351782Y-75815284D01*
X135354383Y-75816609D01*
X135357268Y-75817066D01*
X135390510Y-75822331D01*
X135480000Y-75836505D01*
X135482885Y-75836048D01*
X135484502Y-75835792D01*
X135569490Y-75822331D01*
X135602732Y-75817066D01*
X135605617Y-75816609D01*
X135608218Y-75815284D01*
X135608220Y-75815283D01*
X135618588Y-75810000D01*
X136705995Y-75810000D01*
X136725891Y-75935617D01*
X136727216Y-75938218D01*
X136727217Y-75938220D01*
X136736497Y-75956433D01*
X136783631Y-76048938D01*
X136873562Y-76138869D01*
X136912814Y-76158869D01*
X136984280Y-76195283D01*
X136984282Y-76195284D01*
X136986883Y-76196609D01*
X136989768Y-76197066D01*
X137028597Y-76203216D01*
X137112500Y-76216505D01*
X137115385Y-76216048D01*
X137235232Y-76197066D01*
X137238117Y-76196609D01*
X137240718Y-76195284D01*
X137240720Y-76195283D01*
X137312186Y-76158869D01*
X137351438Y-76138869D01*
X137410016Y-76080291D01*
X137436250Y-76069425D01*
X137462484Y-76080291D01*
X137541062Y-76158869D01*
X137564992Y-76171062D01*
X137651780Y-76215283D01*
X137651782Y-76215284D01*
X137654383Y-76216609D01*
X137780000Y-76236505D01*
X137782885Y-76236048D01*
X137902732Y-76217066D01*
X137905617Y-76216609D01*
X137908218Y-76215284D01*
X137908220Y-76215283D01*
X137995008Y-76171062D01*
X138018938Y-76158869D01*
X138108869Y-76068938D01*
X138154523Y-75979337D01*
X138165283Y-75958220D01*
X138165284Y-75958218D01*
X138166609Y-75955617D01*
X138186505Y-75830000D01*
X138168903Y-75718869D01*
X138167066Y-75707268D01*
X138166609Y-75704383D01*
X138157889Y-75687268D01*
X138128168Y-75628938D01*
X138108869Y-75591062D01*
X138018938Y-75501131D01*
X138019419Y-75500650D01*
X138006122Y-75478957D01*
X138012746Y-75451345D01*
X138036955Y-75436506D01*
X138038992Y-75436345D01*
X138040000Y-75436505D01*
X138042885Y-75436048D01*
X138062856Y-75432885D01*
X138165617Y-75416609D01*
X138168218Y-75415284D01*
X138168220Y-75415283D01*
X138217840Y-75390000D01*
X150083495Y-75390000D01*
X150087782Y-75417066D01*
X150101424Y-75503195D01*
X150103391Y-75515617D01*
X150104716Y-75518218D01*
X150104717Y-75518220D01*
X150122302Y-75552732D01*
X150161131Y-75628938D01*
X150251062Y-75718869D01*
X150307723Y-75747739D01*
X150361780Y-75775283D01*
X150361782Y-75775284D01*
X150364383Y-75776609D01*
X150367268Y-75777066D01*
X150427191Y-75786557D01*
X150490000Y-75796505D01*
X150492885Y-75796048D01*
X150612732Y-75777066D01*
X150615617Y-75776609D01*
X150618218Y-75775284D01*
X150618220Y-75775283D01*
X150672277Y-75747739D01*
X150728938Y-75718869D01*
X150818869Y-75628938D01*
X150857698Y-75552732D01*
X150875283Y-75518220D01*
X150875284Y-75518218D01*
X150876609Y-75515617D01*
X150878577Y-75503195D01*
X150892218Y-75417066D01*
X150896505Y-75390000D01*
X150877657Y-75271002D01*
X150877066Y-75267268D01*
X150876609Y-75264383D01*
X150869355Y-75250145D01*
X150845524Y-75203375D01*
X150818869Y-75151062D01*
X150728938Y-75061131D01*
X150650298Y-75021062D01*
X150618220Y-75004717D01*
X150618218Y-75004716D01*
X150615617Y-75003391D01*
X150490000Y-74983495D01*
X150364383Y-75003391D01*
X150361782Y-75004716D01*
X150361780Y-75004717D01*
X150329702Y-75021062D01*
X150251062Y-75061131D01*
X150161131Y-75151062D01*
X150134476Y-75203375D01*
X150110646Y-75250145D01*
X150103391Y-75264383D01*
X150102934Y-75267268D01*
X150102343Y-75271002D01*
X150083495Y-75390000D01*
X138217840Y-75390000D01*
X138235419Y-75381043D01*
X138278938Y-75358869D01*
X138368869Y-75268938D01*
X138410818Y-75186609D01*
X138425283Y-75158220D01*
X138425284Y-75158218D01*
X138426609Y-75155617D01*
X138427331Y-75151062D01*
X138446048Y-75032885D01*
X138446505Y-75030000D01*
X138430846Y-74931131D01*
X138427066Y-74907268D01*
X138426609Y-74904383D01*
X138423903Y-74899071D01*
X138371695Y-74796609D01*
X138368869Y-74791062D01*
X138278938Y-74701131D01*
X138184250Y-74652885D01*
X138178588Y-74650000D01*
X142518495Y-74650000D01*
X142538391Y-74775617D01*
X142539716Y-74778218D01*
X142539717Y-74778220D01*
X142567261Y-74832277D01*
X142596131Y-74888938D01*
X142686062Y-74978869D01*
X142742722Y-75007739D01*
X142796780Y-75035283D01*
X142796782Y-75035284D01*
X142799383Y-75036609D01*
X142802268Y-75037066D01*
X142839317Y-75042934D01*
X142925000Y-75056505D01*
X142927885Y-75056048D01*
X142942426Y-75053745D01*
X143010683Y-75042934D01*
X143047732Y-75037066D01*
X143050617Y-75036609D01*
X143053218Y-75035284D01*
X143053220Y-75035283D01*
X143107277Y-75007739D01*
X143163938Y-74978869D01*
X143253869Y-74888938D01*
X143282739Y-74832277D01*
X143310283Y-74778220D01*
X143310284Y-74778218D01*
X143311609Y-74775617D01*
X143331505Y-74650000D01*
X143311609Y-74524383D01*
X143308800Y-74518869D01*
X143255195Y-74413665D01*
X143253869Y-74411062D01*
X143163938Y-74321131D01*
X143091816Y-74284383D01*
X143053220Y-74264717D01*
X143053218Y-74264716D01*
X143050617Y-74263391D01*
X143046457Y-74262732D01*
X142927885Y-74243952D01*
X142925000Y-74243495D01*
X142922115Y-74243952D01*
X142803544Y-74262732D01*
X142799383Y-74263391D01*
X142796782Y-74264716D01*
X142796780Y-74264717D01*
X142758184Y-74284383D01*
X142686062Y-74321131D01*
X142596131Y-74411062D01*
X142594805Y-74413665D01*
X142541201Y-74518869D01*
X142538391Y-74524383D01*
X142518495Y-74650000D01*
X138178588Y-74650000D01*
X138168220Y-74644717D01*
X138168218Y-74644716D01*
X138165617Y-74643391D01*
X138040000Y-74623495D01*
X137914383Y-74643391D01*
X137911782Y-74644716D01*
X137911780Y-74644717D01*
X137895750Y-74652885D01*
X137801062Y-74701131D01*
X137711131Y-74791062D01*
X137708305Y-74796609D01*
X137656098Y-74899071D01*
X137653391Y-74904383D01*
X137652934Y-74907268D01*
X137649154Y-74931131D01*
X137633495Y-75030000D01*
X137633952Y-75032885D01*
X137652670Y-75151062D01*
X137653391Y-75155617D01*
X137654716Y-75158218D01*
X137654717Y-75158220D01*
X137669182Y-75186609D01*
X137711131Y-75268938D01*
X137801062Y-75358869D01*
X137800581Y-75359350D01*
X137813878Y-75381043D01*
X137807254Y-75408655D01*
X137783045Y-75423494D01*
X137781008Y-75423655D01*
X137780000Y-75423495D01*
X137654383Y-75443391D01*
X137651782Y-75444716D01*
X137651780Y-75444717D01*
X137638772Y-75451345D01*
X137541062Y-75501131D01*
X137482484Y-75559709D01*
X137456250Y-75570575D01*
X137430016Y-75559709D01*
X137351438Y-75481131D01*
X137245426Y-75427115D01*
X137240720Y-75424717D01*
X137240718Y-75424716D01*
X137238117Y-75423391D01*
X137112500Y-75403495D01*
X136986883Y-75423391D01*
X136984282Y-75424716D01*
X136984280Y-75424717D01*
X136979574Y-75427115D01*
X136873562Y-75481131D01*
X136783631Y-75571062D01*
X136772114Y-75593665D01*
X136733761Y-75668938D01*
X136725891Y-75684383D01*
X136705995Y-75810000D01*
X135618588Y-75810000D01*
X135684121Y-75776609D01*
X135718938Y-75758869D01*
X135808869Y-75668938D01*
X135857413Y-75573665D01*
X135865283Y-75558220D01*
X135865284Y-75558218D01*
X135866609Y-75555617D01*
X135886505Y-75430000D01*
X135866609Y-75304383D01*
X135808869Y-75191062D01*
X135718938Y-75101131D01*
X135662278Y-75072261D01*
X135608220Y-75044717D01*
X135608218Y-75044716D01*
X135605617Y-75043391D01*
X135480000Y-75023495D01*
X135477115Y-75023952D01*
X135417833Y-75033341D01*
X135390222Y-75026712D01*
X135375386Y-75002502D01*
X135378973Y-74979855D01*
X135379476Y-74978869D01*
X135402748Y-74933195D01*
X135405283Y-74928220D01*
X135405284Y-74928218D01*
X135406609Y-74925617D01*
X135426505Y-74800000D01*
X135410846Y-74701131D01*
X135407066Y-74677268D01*
X135406609Y-74674383D01*
X135391814Y-74645346D01*
X135389586Y-74617038D01*
X135408027Y-74595447D01*
X135430673Y-74591860D01*
X135460000Y-74596505D01*
X135462885Y-74596048D01*
X135582732Y-74577066D01*
X135585617Y-74576609D01*
X135588218Y-74575284D01*
X135588220Y-74575283D01*
X135645596Y-74546048D01*
X135698938Y-74518869D01*
X135788869Y-74428938D01*
X135842748Y-74323195D01*
X135845283Y-74318220D01*
X135845284Y-74318218D01*
X135846609Y-74315617D01*
X135866505Y-74190000D01*
X135858586Y-74140000D01*
X136053495Y-74140000D01*
X136073391Y-74265617D01*
X136074716Y-74268218D01*
X136074717Y-74268220D01*
X136081626Y-74281780D01*
X136131131Y-74378938D01*
X136221062Y-74468869D01*
X136240688Y-74478869D01*
X136331780Y-74525283D01*
X136331782Y-74525284D01*
X136334383Y-74526609D01*
X136337268Y-74527066D01*
X136373042Y-74532732D01*
X136460000Y-74546505D01*
X136462885Y-74546048D01*
X136582732Y-74527066D01*
X136585617Y-74526609D01*
X136588218Y-74525284D01*
X136588220Y-74525283D01*
X136679312Y-74478869D01*
X136698938Y-74468869D01*
X136788869Y-74378938D01*
X136838374Y-74281780D01*
X136845283Y-74268220D01*
X136845284Y-74268218D01*
X136846609Y-74265617D01*
X136864921Y-74150000D01*
X137553495Y-74150000D01*
X137573391Y-74275617D01*
X137574716Y-74278218D01*
X137574717Y-74278220D01*
X137579327Y-74287268D01*
X137631131Y-74388938D01*
X137721062Y-74478869D01*
X137777723Y-74507739D01*
X137831780Y-74535283D01*
X137831782Y-74535284D01*
X137834383Y-74536609D01*
X137960000Y-74556505D01*
X137962885Y-74556048D01*
X138082732Y-74537066D01*
X138085617Y-74536609D01*
X138088218Y-74535284D01*
X138088220Y-74535283D01*
X138142277Y-74507739D01*
X138198938Y-74478869D01*
X138288869Y-74388938D01*
X138340673Y-74287268D01*
X138345283Y-74278220D01*
X138345284Y-74278218D01*
X138346609Y-74275617D01*
X138355418Y-74220000D01*
X145793495Y-74220000D01*
X145793952Y-74222885D01*
X145808329Y-74313654D01*
X145813391Y-74345617D01*
X145814716Y-74348218D01*
X145814717Y-74348220D01*
X145834138Y-74386335D01*
X145871131Y-74458938D01*
X145961062Y-74548869D01*
X145984992Y-74561062D01*
X146071780Y-74605283D01*
X146071782Y-74605284D01*
X146074383Y-74606609D01*
X146200000Y-74626505D01*
X146202885Y-74626048D01*
X146322732Y-74607066D01*
X146325617Y-74606609D01*
X146328218Y-74605284D01*
X146328220Y-74605283D01*
X146415008Y-74561062D01*
X146438938Y-74548869D01*
X146528869Y-74458938D01*
X146565862Y-74386335D01*
X146585283Y-74348220D01*
X146585284Y-74348218D01*
X146586609Y-74345617D01*
X146591672Y-74313654D01*
X146606048Y-74222885D01*
X146606505Y-74220000D01*
X146586609Y-74094383D01*
X146580909Y-74083195D01*
X146549285Y-74021131D01*
X146528869Y-73981062D01*
X146438938Y-73891131D01*
X146377457Y-73859805D01*
X146328220Y-73834717D01*
X146328218Y-73834716D01*
X146325617Y-73833391D01*
X146200000Y-73813495D01*
X146074383Y-73833391D01*
X146071782Y-73834716D01*
X146071780Y-73834717D01*
X146022543Y-73859805D01*
X145961062Y-73891131D01*
X145871131Y-73981062D01*
X145850715Y-74021131D01*
X145819092Y-74083195D01*
X145813391Y-74094383D01*
X145793495Y-74220000D01*
X138355418Y-74220000D01*
X138366505Y-74150000D01*
X138346609Y-74024383D01*
X138344277Y-74019805D01*
X138305394Y-73943495D01*
X138288869Y-73911062D01*
X138198938Y-73821131D01*
X138125073Y-73783495D01*
X138088220Y-73764717D01*
X138088218Y-73764716D01*
X138085617Y-73763391D01*
X138077776Y-73762149D01*
X138001070Y-73750000D01*
X149882500Y-73750000D01*
X149902416Y-73901280D01*
X149903345Y-73903524D01*
X149903346Y-73903526D01*
X149934608Y-73978998D01*
X149960808Y-74042250D01*
X150053696Y-74163304D01*
X150174750Y-74256192D01*
X150176994Y-74257121D01*
X150176993Y-74257121D01*
X150313474Y-74313654D01*
X150313476Y-74313655D01*
X150315720Y-74314584D01*
X150429020Y-74329500D01*
X150504980Y-74329500D01*
X150618280Y-74314584D01*
X150620524Y-74313655D01*
X150620526Y-74313654D01*
X150757007Y-74257121D01*
X150757006Y-74257121D01*
X150759250Y-74256192D01*
X150880304Y-74163304D01*
X150973192Y-74042250D01*
X150999392Y-73978998D01*
X151030654Y-73903526D01*
X151030655Y-73903524D01*
X151031584Y-73901280D01*
X151051500Y-73750000D01*
X151031584Y-73598720D01*
X151029522Y-73593740D01*
X150974121Y-73459993D01*
X150973192Y-73457750D01*
X150880304Y-73336696D01*
X150759250Y-73243808D01*
X150728697Y-73231152D01*
X150620526Y-73186346D01*
X150620524Y-73186345D01*
X150618280Y-73185416D01*
X150504980Y-73170500D01*
X150429020Y-73170500D01*
X150315720Y-73185416D01*
X150313476Y-73186345D01*
X150313474Y-73186346D01*
X150205303Y-73231152D01*
X150174750Y-73243808D01*
X150053696Y-73336696D01*
X149960808Y-73457750D01*
X149959879Y-73459993D01*
X149904479Y-73593740D01*
X149902416Y-73598720D01*
X149882500Y-73750000D01*
X138001070Y-73750000D01*
X137962885Y-73743952D01*
X137960000Y-73743495D01*
X137957115Y-73743952D01*
X137842225Y-73762149D01*
X137834383Y-73763391D01*
X137831782Y-73764716D01*
X137831780Y-73764717D01*
X137794927Y-73783495D01*
X137721062Y-73821131D01*
X137631131Y-73911062D01*
X137614606Y-73943495D01*
X137575724Y-74019805D01*
X137573391Y-74024383D01*
X137553495Y-74150000D01*
X136864921Y-74150000D01*
X136866505Y-74140000D01*
X136850771Y-74040663D01*
X136847066Y-74017268D01*
X136846609Y-74014383D01*
X136841062Y-74003495D01*
X136813294Y-73948998D01*
X136788869Y-73901062D01*
X136698938Y-73811131D01*
X136607846Y-73764717D01*
X136588220Y-73754717D01*
X136588218Y-73754716D01*
X136585617Y-73753391D01*
X136564208Y-73750000D01*
X136462885Y-73733952D01*
X136460000Y-73733495D01*
X136457115Y-73733952D01*
X136355793Y-73750000D01*
X136334383Y-73753391D01*
X136331782Y-73754716D01*
X136331780Y-73754717D01*
X136312154Y-73764717D01*
X136221062Y-73811131D01*
X136131131Y-73901062D01*
X136106706Y-73948998D01*
X136078939Y-74003495D01*
X136073391Y-74014383D01*
X136072934Y-74017268D01*
X136069229Y-74040663D01*
X136053495Y-74140000D01*
X135858586Y-74140000D01*
X135846609Y-74064383D01*
X135835375Y-74042334D01*
X135803103Y-73978998D01*
X135788869Y-73951062D01*
X135698938Y-73861131D01*
X135642277Y-73832261D01*
X135588220Y-73804717D01*
X135588218Y-73804716D01*
X135585617Y-73803391D01*
X135460000Y-73783495D01*
X135334383Y-73803391D01*
X135331782Y-73804716D01*
X135331780Y-73804717D01*
X135277723Y-73832261D01*
X135221062Y-73861131D01*
X135131131Y-73951062D01*
X135116897Y-73978998D01*
X135084626Y-74042334D01*
X135073391Y-74064383D01*
X135053495Y-74190000D01*
X135073391Y-74315617D01*
X135074716Y-74318218D01*
X135074717Y-74318220D01*
X135088186Y-74344654D01*
X135090414Y-74372962D01*
X135071973Y-74394553D01*
X135049327Y-74398140D01*
X135020000Y-74393495D01*
X135017115Y-74393952D01*
X134897578Y-74412885D01*
X134894383Y-74413391D01*
X134891782Y-74414716D01*
X134891780Y-74414717D01*
X134837722Y-74442261D01*
X134781062Y-74471131D01*
X134691131Y-74561062D01*
X134675876Y-74591002D01*
X134648507Y-74644717D01*
X134633391Y-74674383D01*
X134632934Y-74677268D01*
X134629154Y-74701131D01*
X134613495Y-74800000D01*
X134613952Y-74802885D01*
X134613952Y-74802887D01*
X134622463Y-74856625D01*
X134615834Y-74884235D01*
X134591623Y-74899071D01*
X134568977Y-74895484D01*
X134528220Y-74874717D01*
X134528218Y-74874716D01*
X134525617Y-74873391D01*
X134400000Y-74853495D01*
X134274383Y-74873391D01*
X134271782Y-74874716D01*
X134271780Y-74874717D01*
X134231023Y-74895484D01*
X134161062Y-74931131D01*
X134071131Y-75021062D01*
X134050715Y-75061131D01*
X134015241Y-75130753D01*
X134013391Y-75134383D01*
X133993495Y-75260000D01*
X131273995Y-75260000D01*
X131238869Y-75191062D01*
X131148938Y-75101131D01*
X131092278Y-75072261D01*
X131038220Y-75044717D01*
X131038218Y-75044716D01*
X131035617Y-75043391D01*
X130910000Y-75023495D01*
X130784383Y-75043391D01*
X130781782Y-75044716D01*
X130781780Y-75044717D01*
X130727722Y-75072261D01*
X130671062Y-75101131D01*
X130581131Y-75191062D01*
X130523391Y-75304383D01*
X130503495Y-75430000D01*
X130523391Y-75555617D01*
X130524716Y-75558218D01*
X130524717Y-75558220D01*
X130532587Y-75573665D01*
X130581131Y-75668938D01*
X130671062Y-75758869D01*
X130744030Y-75796048D01*
X130750601Y-75799396D01*
X130769042Y-75820987D01*
X130766814Y-75849295D01*
X130750601Y-75865508D01*
X130694165Y-75894264D01*
X130661062Y-75911131D01*
X130571131Y-76001062D01*
X130566872Y-76009421D01*
X130515062Y-76111104D01*
X130513391Y-76114383D01*
X130493495Y-76240000D01*
X126766718Y-76240000D01*
X126768938Y-76238869D01*
X126858869Y-76148938D01*
X126894094Y-76079805D01*
X126915283Y-76038220D01*
X126915284Y-76038218D01*
X126916609Y-76035617D01*
X126936505Y-75910000D01*
X126916609Y-75784383D01*
X126911973Y-75775283D01*
X126875847Y-75704383D01*
X126858869Y-75671062D01*
X126768938Y-75581131D01*
X126712277Y-75552261D01*
X126658220Y-75524717D01*
X126658218Y-75524716D01*
X126655617Y-75523391D01*
X126606535Y-75515617D01*
X126532885Y-75503952D01*
X126530000Y-75503495D01*
X126527115Y-75503952D01*
X126453466Y-75515617D01*
X126404383Y-75523391D01*
X126401782Y-75524716D01*
X126401780Y-75524717D01*
X126347723Y-75552261D01*
X126291062Y-75581131D01*
X126201131Y-75671062D01*
X126184153Y-75704383D01*
X126148028Y-75775283D01*
X126143391Y-75784383D01*
X126123495Y-75910000D01*
X126131133Y-75958220D01*
X126132742Y-75968381D01*
X126126114Y-75995992D01*
X126101903Y-76010828D01*
X126090297Y-76010828D01*
X126044000Y-76003495D01*
X125918383Y-76023391D01*
X125915782Y-76024716D01*
X125915780Y-76024717D01*
X125900050Y-76032732D01*
X125805062Y-76081131D01*
X125715131Y-76171062D01*
X125657391Y-76284383D01*
X125637495Y-76410000D01*
X120610546Y-76410000D01*
X120575686Y-76264796D01*
X120575685Y-76264794D01*
X120575165Y-76262627D01*
X120496958Y-76111104D01*
X120384865Y-75982609D01*
X120380210Y-75979337D01*
X120247187Y-75885848D01*
X120247186Y-75885848D01*
X120245357Y-75884562D01*
X120184539Y-75860850D01*
X120088568Y-75823432D01*
X120088564Y-75823431D01*
X120086489Y-75822622D01*
X120051393Y-75818001D01*
X119957638Y-75805658D01*
X119957634Y-75805658D01*
X119956436Y-75805500D01*
X119867244Y-75805500D01*
X119866132Y-75805635D01*
X119866125Y-75805635D01*
X119806217Y-75812885D01*
X119740719Y-75820811D01*
X119738633Y-75821599D01*
X119738630Y-75821600D01*
X119583301Y-75880294D01*
X119583299Y-75880295D01*
X119581211Y-75881084D01*
X119579372Y-75882348D01*
X119579370Y-75882349D01*
X119454194Y-75968381D01*
X119440684Y-75977666D01*
X119327252Y-76104979D01*
X119326205Y-76106957D01*
X119326204Y-76106958D01*
X119255659Y-76240195D01*
X119247462Y-76255676D01*
X119237066Y-76297066D01*
X119208699Y-76410000D01*
X119205922Y-76421054D01*
X119205910Y-76423296D01*
X119205910Y-76423298D01*
X119205837Y-76437272D01*
X119205029Y-76591568D01*
X118710500Y-76591568D01*
X118710500Y-74350000D01*
X131853495Y-74350000D01*
X131873391Y-74475617D01*
X131874716Y-74478218D01*
X131874717Y-74478220D01*
X131894377Y-74516805D01*
X131931131Y-74588938D01*
X132021062Y-74678869D01*
X132077722Y-74707739D01*
X132131780Y-74735283D01*
X132131782Y-74735284D01*
X132134383Y-74736609D01*
X132260000Y-74756505D01*
X132262885Y-74756048D01*
X132382732Y-74737066D01*
X132385617Y-74736609D01*
X132388218Y-74735284D01*
X132388220Y-74735283D01*
X132442278Y-74707739D01*
X132498938Y-74678869D01*
X132588869Y-74588938D01*
X132625623Y-74516805D01*
X132645283Y-74478220D01*
X132645284Y-74478218D01*
X132646609Y-74475617D01*
X132657002Y-74410000D01*
X133053495Y-74410000D01*
X133073391Y-74535617D01*
X133074716Y-74538218D01*
X133074717Y-74538220D01*
X133080143Y-74548869D01*
X133131131Y-74648938D01*
X133221062Y-74738869D01*
X133254778Y-74756048D01*
X133331780Y-74795283D01*
X133331782Y-74795284D01*
X133334383Y-74796609D01*
X133337268Y-74797066D01*
X133374008Y-74802885D01*
X133460000Y-74816505D01*
X133462885Y-74816048D01*
X133582732Y-74797066D01*
X133585617Y-74796609D01*
X133588218Y-74795284D01*
X133588220Y-74795283D01*
X133665222Y-74756048D01*
X133698938Y-74738869D01*
X133788869Y-74648938D01*
X133839857Y-74548869D01*
X133845283Y-74538220D01*
X133845284Y-74538218D01*
X133846609Y-74535617D01*
X133866505Y-74410000D01*
X133846609Y-74284383D01*
X133842143Y-74275617D01*
X133790195Y-74173665D01*
X133788869Y-74171062D01*
X133698938Y-74081131D01*
X133618228Y-74040007D01*
X133588220Y-74024717D01*
X133588218Y-74024716D01*
X133585617Y-74023391D01*
X133460000Y-74003495D01*
X133334383Y-74023391D01*
X133331782Y-74024716D01*
X133331780Y-74024717D01*
X133301772Y-74040007D01*
X133221062Y-74081131D01*
X133131131Y-74171062D01*
X133129805Y-74173665D01*
X133077858Y-74275617D01*
X133073391Y-74284383D01*
X133053495Y-74410000D01*
X132657002Y-74410000D01*
X132666505Y-74350000D01*
X132646609Y-74224383D01*
X132641574Y-74214500D01*
X132590195Y-74113665D01*
X132588869Y-74111062D01*
X132498938Y-74021131D01*
X132420298Y-73981062D01*
X132388220Y-73964717D01*
X132388218Y-73964716D01*
X132385617Y-73963391D01*
X132260000Y-73943495D01*
X132134383Y-73963391D01*
X132131782Y-73964716D01*
X132131780Y-73964717D01*
X132099702Y-73981062D01*
X132021062Y-74021131D01*
X131931131Y-74111062D01*
X131929805Y-74113665D01*
X131878427Y-74214500D01*
X131873391Y-74224383D01*
X131853495Y-74350000D01*
X118710500Y-74350000D01*
X118710500Y-73591568D01*
X119205029Y-73591568D01*
X119205550Y-73593736D01*
X119205550Y-73593740D01*
X119239102Y-73733495D01*
X119244835Y-73757373D01*
X119323042Y-73908896D01*
X119324511Y-73910580D01*
X119326659Y-73913042D01*
X119435135Y-74037391D01*
X119436962Y-74038675D01*
X119436963Y-74038676D01*
X119497371Y-74081131D01*
X119574643Y-74135438D01*
X119635461Y-74159150D01*
X119731432Y-74196568D01*
X119731436Y-74196569D01*
X119733511Y-74197378D01*
X119768607Y-74201999D01*
X119862362Y-74214342D01*
X119862366Y-74214342D01*
X119863564Y-74214500D01*
X119952756Y-74214500D01*
X119953868Y-74214365D01*
X119953875Y-74214365D01*
X120016087Y-74206836D01*
X120079281Y-74199189D01*
X120081367Y-74198401D01*
X120081370Y-74198400D01*
X120236699Y-74139706D01*
X120236701Y-74139705D01*
X120238789Y-74138916D01*
X120240630Y-74137651D01*
X120377473Y-74043601D01*
X120377475Y-74043599D01*
X120379316Y-74042334D01*
X120404220Y-74014383D01*
X120458317Y-73953665D01*
X120492748Y-73915021D01*
X120494844Y-73911062D01*
X120571490Y-73766304D01*
X120571491Y-73766302D01*
X120572538Y-73764324D01*
X120604050Y-73638869D01*
X120613532Y-73601121D01*
X120613532Y-73601118D01*
X120614078Y-73598946D01*
X120614106Y-73593740D01*
X120614817Y-73457750D01*
X120614971Y-73428432D01*
X120613739Y-73423298D01*
X120586539Y-73310000D01*
X123073495Y-73310000D01*
X123093391Y-73435617D01*
X123094716Y-73438218D01*
X123094717Y-73438220D01*
X123103686Y-73455822D01*
X123151131Y-73548938D01*
X123241062Y-73638869D01*
X123297723Y-73667739D01*
X123351780Y-73695283D01*
X123351782Y-73695284D01*
X123354383Y-73696609D01*
X123480000Y-73716505D01*
X123482885Y-73716048D01*
X123602732Y-73697066D01*
X123605617Y-73696609D01*
X123608218Y-73695284D01*
X123608220Y-73695283D01*
X123662277Y-73667739D01*
X123718938Y-73638869D01*
X123808869Y-73548938D01*
X123856314Y-73455822D01*
X123865283Y-73438220D01*
X123865284Y-73438218D01*
X123866609Y-73435617D01*
X123886505Y-73310000D01*
X123866609Y-73184383D01*
X123808869Y-73071062D01*
X123777807Y-73040000D01*
X140173495Y-73040000D01*
X140193391Y-73165617D01*
X140194716Y-73168218D01*
X140194717Y-73168220D01*
X140203479Y-73185416D01*
X140251131Y-73278938D01*
X140341062Y-73368869D01*
X140397723Y-73397739D01*
X140451780Y-73425283D01*
X140451782Y-73425284D01*
X140454383Y-73426609D01*
X140580000Y-73446505D01*
X140582885Y-73446048D01*
X140702732Y-73427066D01*
X140705617Y-73426609D01*
X140708218Y-73425284D01*
X140708220Y-73425283D01*
X140762278Y-73397739D01*
X140818938Y-73368869D01*
X140908869Y-73278938D01*
X140956521Y-73185416D01*
X140965283Y-73168220D01*
X140965284Y-73168218D01*
X140966609Y-73165617D01*
X140986505Y-73040000D01*
X140984921Y-73030000D01*
X141283495Y-73030000D01*
X141303391Y-73155617D01*
X141304716Y-73158218D01*
X141304717Y-73158220D01*
X141310974Y-73170500D01*
X141361131Y-73268938D01*
X141451062Y-73358869D01*
X141470688Y-73368869D01*
X141561780Y-73415283D01*
X141561782Y-73415284D01*
X141564383Y-73416609D01*
X141690000Y-73436505D01*
X141692885Y-73436048D01*
X141695607Y-73435617D01*
X141815617Y-73416609D01*
X141818218Y-73415284D01*
X141818220Y-73415283D01*
X141909312Y-73368869D01*
X141928938Y-73358869D01*
X142018869Y-73268938D01*
X142069026Y-73170500D01*
X142075283Y-73158220D01*
X142075284Y-73158218D01*
X142076609Y-73155617D01*
X142096505Y-73030000D01*
X142413495Y-73030000D01*
X142433391Y-73155617D01*
X142434716Y-73158218D01*
X142434717Y-73158220D01*
X142440974Y-73170500D01*
X142491131Y-73268938D01*
X142581062Y-73358869D01*
X142600688Y-73368869D01*
X142691780Y-73415283D01*
X142691782Y-73415284D01*
X142694383Y-73416609D01*
X142820000Y-73436505D01*
X142822885Y-73436048D01*
X142825607Y-73435617D01*
X142945617Y-73416609D01*
X142948218Y-73415284D01*
X142948220Y-73415283D01*
X143039312Y-73368869D01*
X143058938Y-73358869D01*
X143148869Y-73268938D01*
X143199026Y-73170500D01*
X143205283Y-73158220D01*
X143205284Y-73158218D01*
X143206609Y-73155617D01*
X143226505Y-73030000D01*
X143206609Y-72904383D01*
X143196097Y-72883751D01*
X143156258Y-72805564D01*
X143148869Y-72791062D01*
X143058938Y-72701131D01*
X142978597Y-72660195D01*
X142948220Y-72644717D01*
X142948218Y-72644716D01*
X142945617Y-72643391D01*
X142820000Y-72623495D01*
X142694383Y-72643391D01*
X142691782Y-72644716D01*
X142691780Y-72644717D01*
X142661403Y-72660195D01*
X142581062Y-72701131D01*
X142491131Y-72791062D01*
X142483742Y-72805564D01*
X142443904Y-72883751D01*
X142433391Y-72904383D01*
X142413495Y-73030000D01*
X142096505Y-73030000D01*
X142076609Y-72904383D01*
X142066097Y-72883751D01*
X142026258Y-72805564D01*
X142018869Y-72791062D01*
X141928938Y-72701131D01*
X141848597Y-72660195D01*
X141818220Y-72644717D01*
X141818218Y-72644716D01*
X141815617Y-72643391D01*
X141690000Y-72623495D01*
X141564383Y-72643391D01*
X141561782Y-72644716D01*
X141561780Y-72644717D01*
X141531403Y-72660195D01*
X141451062Y-72701131D01*
X141361131Y-72791062D01*
X141353742Y-72805564D01*
X141313904Y-72883751D01*
X141303391Y-72904383D01*
X141283495Y-73030000D01*
X140984921Y-73030000D01*
X140966609Y-72914383D01*
X140961062Y-72903495D01*
X140919706Y-72822331D01*
X140908869Y-72801062D01*
X140818938Y-72711131D01*
X140718971Y-72660195D01*
X140708220Y-72654717D01*
X140708218Y-72654716D01*
X140705617Y-72653391D01*
X140580000Y-72633495D01*
X140454383Y-72653391D01*
X140451782Y-72654716D01*
X140451780Y-72654717D01*
X140441029Y-72660195D01*
X140341062Y-72711131D01*
X140251131Y-72801062D01*
X140240294Y-72822331D01*
X140198939Y-72903495D01*
X140193391Y-72914383D01*
X140173495Y-73040000D01*
X123777807Y-73040000D01*
X123718938Y-72981131D01*
X123662278Y-72952261D01*
X123608220Y-72924717D01*
X123608218Y-72924716D01*
X123605617Y-72923391D01*
X123480000Y-72903495D01*
X123354383Y-72923391D01*
X123351782Y-72924716D01*
X123351780Y-72924717D01*
X123297722Y-72952261D01*
X123241062Y-72981131D01*
X123151131Y-73071062D01*
X123093391Y-73184383D01*
X123073495Y-73310000D01*
X120586539Y-73310000D01*
X120575686Y-73264796D01*
X120575685Y-73264794D01*
X120575165Y-73262627D01*
X120496958Y-73111104D01*
X120384865Y-72982609D01*
X120380876Y-72979805D01*
X120247187Y-72885848D01*
X120247186Y-72885848D01*
X120245357Y-72884562D01*
X120184539Y-72860850D01*
X120088568Y-72823432D01*
X120088564Y-72823431D01*
X120086489Y-72822622D01*
X120051393Y-72818001D01*
X119957638Y-72805658D01*
X119957634Y-72805658D01*
X119956436Y-72805500D01*
X119935781Y-72805500D01*
X119909547Y-72794634D01*
X119901364Y-72774878D01*
X119886860Y-72798547D01*
X119867470Y-72805500D01*
X119867244Y-72805500D01*
X119740719Y-72820811D01*
X119738633Y-72821599D01*
X119738630Y-72821600D01*
X119583301Y-72880294D01*
X119583299Y-72880295D01*
X119581211Y-72881084D01*
X119579372Y-72882348D01*
X119579370Y-72882349D01*
X119517725Y-72924717D01*
X119440684Y-72977666D01*
X119327252Y-73104979D01*
X119326205Y-73106957D01*
X119326204Y-73106958D01*
X119253746Y-73243808D01*
X119247462Y-73255676D01*
X119233817Y-73310000D01*
X119206924Y-73417066D01*
X119205922Y-73421054D01*
X119205910Y-73423296D01*
X119205910Y-73423298D01*
X119205861Y-73432732D01*
X119205029Y-73591568D01*
X118710500Y-73591568D01*
X118710500Y-72330000D01*
X119493495Y-72330000D01*
X119493952Y-72332885D01*
X119509365Y-72430195D01*
X119513391Y-72455617D01*
X119514716Y-72458218D01*
X119514717Y-72458220D01*
X119529182Y-72486609D01*
X119571131Y-72568938D01*
X119661062Y-72658869D01*
X119717722Y-72687739D01*
X119771780Y-72715283D01*
X119771782Y-72715284D01*
X119774383Y-72716609D01*
X119870857Y-72731889D01*
X119895068Y-72746725D01*
X119899688Y-72765970D01*
X119909547Y-72742166D01*
X119929977Y-72731757D01*
X120022732Y-72717066D01*
X120025617Y-72716609D01*
X120028218Y-72715284D01*
X120028220Y-72715283D01*
X120082278Y-72687739D01*
X120138938Y-72658869D01*
X120228869Y-72568938D01*
X120270818Y-72486609D01*
X120285283Y-72458220D01*
X120285284Y-72458218D01*
X120286609Y-72455617D01*
X120290636Y-72430195D01*
X120306048Y-72332885D01*
X120306505Y-72330000D01*
X120286609Y-72204383D01*
X120281973Y-72195283D01*
X120230195Y-72093665D01*
X120228869Y-72091062D01*
X120138938Y-72001131D01*
X120081333Y-71971780D01*
X120028220Y-71944717D01*
X120028218Y-71944716D01*
X120025617Y-71943391D01*
X120022423Y-71942885D01*
X119902885Y-71923952D01*
X119900000Y-71923495D01*
X119897115Y-71923952D01*
X119777578Y-71942885D01*
X119774383Y-71943391D01*
X119771782Y-71944716D01*
X119771780Y-71944717D01*
X119718667Y-71971780D01*
X119661062Y-72001131D01*
X119571131Y-72091062D01*
X119569805Y-72093665D01*
X119518028Y-72195283D01*
X119513391Y-72204383D01*
X119493495Y-72330000D01*
X118710500Y-72330000D01*
X118710500Y-71290000D01*
X124203495Y-71290000D01*
X124223391Y-71415617D01*
X124224716Y-71418218D01*
X124224717Y-71418220D01*
X124242495Y-71453111D01*
X124281131Y-71528938D01*
X124371062Y-71618869D01*
X124428374Y-71648071D01*
X124465601Y-71667039D01*
X124484042Y-71688630D01*
X124481814Y-71716938D01*
X124465601Y-71733151D01*
X124422661Y-71755031D01*
X124391062Y-71771131D01*
X124301131Y-71861062D01*
X124298305Y-71866609D01*
X124258507Y-71944717D01*
X124243391Y-71974383D01*
X124242934Y-71977268D01*
X124239154Y-72001131D01*
X124223495Y-72100000D01*
X124223952Y-72102885D01*
X124238587Y-72195283D01*
X124243391Y-72225617D01*
X124301131Y-72338938D01*
X124391062Y-72428869D01*
X124437896Y-72452732D01*
X124501780Y-72485283D01*
X124501782Y-72485284D01*
X124504383Y-72486609D01*
X124630000Y-72506505D01*
X124632885Y-72506048D01*
X124752732Y-72487066D01*
X124755617Y-72486609D01*
X124758218Y-72485284D01*
X124758220Y-72485283D01*
X124822104Y-72452732D01*
X124868938Y-72428869D01*
X124958869Y-72338938D01*
X125016609Y-72225617D01*
X125021414Y-72195283D01*
X125036048Y-72102885D01*
X125036505Y-72100000D01*
X125020846Y-72001131D01*
X125017066Y-71977268D01*
X125016609Y-71974383D01*
X125001494Y-71944717D01*
X124961695Y-71866609D01*
X124958869Y-71861062D01*
X124907807Y-71810000D01*
X134553495Y-71810000D01*
X134573391Y-71935617D01*
X134574716Y-71938218D01*
X134574717Y-71938220D01*
X134591817Y-71971780D01*
X134631131Y-72048938D01*
X134721062Y-72138869D01*
X134777722Y-72167739D01*
X134831780Y-72195283D01*
X134831782Y-72195284D01*
X134834383Y-72196609D01*
X134837268Y-72197066D01*
X134897192Y-72206557D01*
X134960000Y-72216505D01*
X134962885Y-72216048D01*
X135082732Y-72197066D01*
X135085617Y-72196609D01*
X135088218Y-72195284D01*
X135088220Y-72195283D01*
X135142278Y-72167739D01*
X135198938Y-72138869D01*
X135288869Y-72048938D01*
X135328183Y-71971780D01*
X135344376Y-71940000D01*
X144543495Y-71940000D01*
X144563391Y-72065617D01*
X144621131Y-72178938D01*
X144711062Y-72268869D01*
X144767723Y-72297739D01*
X144821780Y-72325283D01*
X144821782Y-72325284D01*
X144824383Y-72326609D01*
X144827268Y-72327066D01*
X144864008Y-72332885D01*
X144950000Y-72346505D01*
X144952885Y-72346048D01*
X145072732Y-72327066D01*
X145075617Y-72326609D01*
X145078218Y-72325284D01*
X145078220Y-72325283D01*
X145132278Y-72297739D01*
X145188938Y-72268869D01*
X145278869Y-72178938D01*
X145336609Y-72065617D01*
X145356505Y-71940000D01*
X145336609Y-71814383D01*
X145333800Y-71808869D01*
X145280195Y-71703665D01*
X145278869Y-71701062D01*
X145188938Y-71611131D01*
X145110298Y-71571062D01*
X145078220Y-71554717D01*
X145078218Y-71554716D01*
X145075617Y-71553391D01*
X144950000Y-71533495D01*
X144824383Y-71553391D01*
X144821782Y-71554716D01*
X144821780Y-71554717D01*
X144789702Y-71571062D01*
X144711062Y-71611131D01*
X144621131Y-71701062D01*
X144619805Y-71703665D01*
X144566201Y-71808869D01*
X144563391Y-71814383D01*
X144543495Y-71940000D01*
X135344376Y-71940000D01*
X135345283Y-71938220D01*
X135345284Y-71938218D01*
X135346609Y-71935617D01*
X135366505Y-71810000D01*
X135347375Y-71689217D01*
X135347066Y-71687268D01*
X135346609Y-71684383D01*
X135341654Y-71674657D01*
X135309285Y-71611131D01*
X135288869Y-71571062D01*
X135198938Y-71481131D01*
X135142277Y-71452261D01*
X135088220Y-71424717D01*
X135088218Y-71424716D01*
X135085617Y-71423391D01*
X135036535Y-71415617D01*
X134962885Y-71403952D01*
X134960000Y-71403495D01*
X134957115Y-71403952D01*
X134883466Y-71415617D01*
X134834383Y-71423391D01*
X134831782Y-71424716D01*
X134831780Y-71424717D01*
X134777723Y-71452261D01*
X134721062Y-71481131D01*
X134631131Y-71571062D01*
X134610715Y-71611131D01*
X134578347Y-71674657D01*
X134573391Y-71684383D01*
X134572934Y-71687268D01*
X134572625Y-71689217D01*
X134553495Y-71810000D01*
X124907807Y-71810000D01*
X124868938Y-71771131D01*
X124774399Y-71722961D01*
X124755958Y-71701370D01*
X124758186Y-71673062D01*
X124774399Y-71656849D01*
X124817339Y-71634969D01*
X124848938Y-71618869D01*
X124938869Y-71528938D01*
X124977505Y-71453111D01*
X124995283Y-71418220D01*
X124995284Y-71418218D01*
X124996609Y-71415617D01*
X125016505Y-71290000D01*
X124996609Y-71164383D01*
X124991894Y-71155128D01*
X124950299Y-71073495D01*
X124938869Y-71051062D01*
X124848938Y-70961131D01*
X124748971Y-70910195D01*
X124738220Y-70904717D01*
X124738218Y-70904716D01*
X124735617Y-70903391D01*
X124732423Y-70902885D01*
X124714208Y-70900000D01*
X130813495Y-70900000D01*
X130833391Y-71025617D01*
X130891131Y-71138938D01*
X130981062Y-71228869D01*
X131010101Y-71243665D01*
X131091780Y-71285283D01*
X131091782Y-71285284D01*
X131094383Y-71286609D01*
X131097268Y-71287066D01*
X131134008Y-71292885D01*
X131220000Y-71306505D01*
X131222885Y-71306048D01*
X131342732Y-71287066D01*
X131345617Y-71286609D01*
X131348218Y-71285284D01*
X131348220Y-71285283D01*
X131429899Y-71243665D01*
X131458938Y-71228869D01*
X131548869Y-71138938D01*
X131606609Y-71025617D01*
X131613704Y-70980824D01*
X133095201Y-70980824D01*
X133106893Y-71048869D01*
X133122370Y-71138938D01*
X133124810Y-71153141D01*
X133193267Y-71314024D01*
X133194543Y-71315758D01*
X133274728Y-71424717D01*
X133296898Y-71454843D01*
X133430146Y-71568045D01*
X133585862Y-71647558D01*
X133587954Y-71648070D01*
X133587957Y-71648071D01*
X133754090Y-71688723D01*
X133754093Y-71688723D01*
X133755693Y-71689115D01*
X133766734Y-71689800D01*
X133892779Y-71689800D01*
X134022665Y-71674657D01*
X134024690Y-71673922D01*
X134024694Y-71673921D01*
X134184990Y-71615736D01*
X134187015Y-71615001D01*
X134333233Y-71519136D01*
X134367574Y-71482885D01*
X134451993Y-71393770D01*
X134451995Y-71393767D01*
X134453475Y-71392205D01*
X134541292Y-71241017D01*
X134544972Y-71228869D01*
X134591349Y-71075742D01*
X134591973Y-71073682D01*
X134597734Y-70980824D01*
X135127201Y-70980824D01*
X135138893Y-71048869D01*
X135154370Y-71138938D01*
X135156810Y-71153141D01*
X135225267Y-71314024D01*
X135226543Y-71315758D01*
X135306728Y-71424717D01*
X135328898Y-71454843D01*
X135462146Y-71568045D01*
X135617862Y-71647558D01*
X135619954Y-71648070D01*
X135619957Y-71648071D01*
X135786090Y-71688723D01*
X135786093Y-71688723D01*
X135787693Y-71689115D01*
X135798734Y-71689800D01*
X135924779Y-71689800D01*
X136054665Y-71674657D01*
X136056690Y-71673922D01*
X136056694Y-71673921D01*
X136216990Y-71615736D01*
X136219015Y-71615001D01*
X136365233Y-71519136D01*
X136399574Y-71482885D01*
X136402307Y-71480000D01*
X151843495Y-71480000D01*
X151863391Y-71605617D01*
X151864716Y-71608218D01*
X151864717Y-71608220D01*
X151870143Y-71618869D01*
X151921131Y-71718938D01*
X152011062Y-71808869D01*
X152018944Y-71812885D01*
X152121780Y-71865283D01*
X152121782Y-71865284D01*
X152124383Y-71866609D01*
X152250000Y-71886505D01*
X152252885Y-71886048D01*
X152372732Y-71867066D01*
X152375617Y-71866609D01*
X152378218Y-71865284D01*
X152378220Y-71865283D01*
X152481056Y-71812885D01*
X152488938Y-71808869D01*
X152578869Y-71718938D01*
X152629857Y-71618869D01*
X152635283Y-71608220D01*
X152635284Y-71608218D01*
X152636609Y-71605617D01*
X152656505Y-71480000D01*
X152642847Y-71393770D01*
X152637066Y-71357268D01*
X152636609Y-71354383D01*
X152578869Y-71241062D01*
X152488938Y-71151131D01*
X152401559Y-71106609D01*
X152378220Y-71094717D01*
X152378218Y-71094716D01*
X152375617Y-71093391D01*
X152250000Y-71073495D01*
X152124383Y-71093391D01*
X152121782Y-71094716D01*
X152121780Y-71094717D01*
X152098441Y-71106609D01*
X152011062Y-71151131D01*
X151921131Y-71241062D01*
X151863391Y-71354383D01*
X151862934Y-71357268D01*
X151857153Y-71393770D01*
X151843495Y-71480000D01*
X136402307Y-71480000D01*
X136483993Y-71393770D01*
X136483995Y-71393767D01*
X136485475Y-71392205D01*
X136573292Y-71241017D01*
X136576972Y-71228869D01*
X136623349Y-71075742D01*
X136623973Y-71073682D01*
X136634799Y-70899176D01*
X136605190Y-70726859D01*
X136536733Y-70565976D01*
X136497699Y-70512934D01*
X136436666Y-70430000D01*
X137093495Y-70430000D01*
X137113391Y-70555617D01*
X137114716Y-70558218D01*
X137114717Y-70558220D01*
X137118669Y-70565976D01*
X137171131Y-70668938D01*
X137261062Y-70758869D01*
X137291510Y-70774383D01*
X137371780Y-70815283D01*
X137371782Y-70815284D01*
X137374383Y-70816609D01*
X137377268Y-70817066D01*
X137402119Y-70821002D01*
X137500000Y-70836505D01*
X137502885Y-70836048D01*
X137622732Y-70817066D01*
X137625617Y-70816609D01*
X137628218Y-70815284D01*
X137628220Y-70815283D01*
X137708490Y-70774383D01*
X137738938Y-70758869D01*
X137828869Y-70668938D01*
X137874185Y-70580000D01*
X140043495Y-70580000D01*
X140063391Y-70705617D01*
X140064716Y-70708218D01*
X140064717Y-70708220D01*
X140072189Y-70722885D01*
X140121131Y-70818938D01*
X140211062Y-70908869D01*
X140262902Y-70935283D01*
X140321780Y-70965283D01*
X140321782Y-70965284D01*
X140324383Y-70966609D01*
X140450000Y-70986505D01*
X140452885Y-70986048D01*
X140472433Y-70982952D01*
X140575617Y-70966609D01*
X140578218Y-70965284D01*
X140578220Y-70965283D01*
X140637098Y-70935283D01*
X140688938Y-70908869D01*
X140778869Y-70818938D01*
X140827811Y-70722885D01*
X140829281Y-70720000D01*
X147483495Y-70720000D01*
X147483952Y-70722885D01*
X147498587Y-70815283D01*
X147503391Y-70845617D01*
X147561131Y-70958938D01*
X147651062Y-71048869D01*
X147699393Y-71073495D01*
X147761780Y-71105283D01*
X147761782Y-71105284D01*
X147764383Y-71106609D01*
X147890000Y-71126505D01*
X147892885Y-71126048D01*
X148012732Y-71107066D01*
X148015617Y-71106609D01*
X148018218Y-71105284D01*
X148018220Y-71105283D01*
X148080607Y-71073495D01*
X148128938Y-71048869D01*
X148218869Y-70958938D01*
X148276609Y-70845617D01*
X148281414Y-70815283D01*
X148296048Y-70722885D01*
X148296505Y-70720000D01*
X148276609Y-70594383D01*
X148270751Y-70582885D01*
X148235341Y-70513391D01*
X148218869Y-70481062D01*
X148128938Y-70391131D01*
X148033950Y-70342732D01*
X148018220Y-70334717D01*
X148018218Y-70334716D01*
X148015617Y-70333391D01*
X147890000Y-70313495D01*
X147764383Y-70333391D01*
X147761782Y-70334716D01*
X147761780Y-70334717D01*
X147746050Y-70342732D01*
X147651062Y-70391131D01*
X147561131Y-70481062D01*
X147544659Y-70513391D01*
X147509250Y-70582885D01*
X147503391Y-70594383D01*
X147483495Y-70720000D01*
X140829281Y-70720000D01*
X140835283Y-70708220D01*
X140835284Y-70708218D01*
X140836609Y-70705617D01*
X140856505Y-70580000D01*
X140837657Y-70461002D01*
X140837066Y-70457268D01*
X140836609Y-70454383D01*
X140827889Y-70437268D01*
X140803705Y-70389805D01*
X140778869Y-70341062D01*
X140688938Y-70251131D01*
X140599074Y-70205343D01*
X140578220Y-70194717D01*
X140578218Y-70194716D01*
X140575617Y-70193391D01*
X140560913Y-70191062D01*
X140452885Y-70173952D01*
X140450000Y-70173495D01*
X140447115Y-70173952D01*
X140339088Y-70191062D01*
X140324383Y-70193391D01*
X140321782Y-70194716D01*
X140321780Y-70194717D01*
X140300926Y-70205343D01*
X140211062Y-70251131D01*
X140121131Y-70341062D01*
X140096295Y-70389805D01*
X140072112Y-70437268D01*
X140063391Y-70454383D01*
X140062934Y-70457268D01*
X140062343Y-70461002D01*
X140043495Y-70580000D01*
X137874185Y-70580000D01*
X137881331Y-70565976D01*
X137885283Y-70558220D01*
X137885284Y-70558218D01*
X137886609Y-70555617D01*
X137906505Y-70430000D01*
X137892092Y-70338998D01*
X137887066Y-70307268D01*
X137886609Y-70304383D01*
X137828869Y-70191062D01*
X137738938Y-70101131D01*
X137682277Y-70072261D01*
X137628220Y-70044717D01*
X137628218Y-70044716D01*
X137625617Y-70043391D01*
X137500000Y-70023495D01*
X137374383Y-70043391D01*
X137371782Y-70044716D01*
X137371780Y-70044717D01*
X137317722Y-70072261D01*
X137261062Y-70101131D01*
X137171131Y-70191062D01*
X137113391Y-70304383D01*
X137112934Y-70307268D01*
X137107908Y-70338998D01*
X137093495Y-70430000D01*
X136436666Y-70430000D01*
X136434377Y-70426889D01*
X136434375Y-70426887D01*
X136433102Y-70425157D01*
X136299854Y-70311955D01*
X136144138Y-70232442D01*
X136142046Y-70231930D01*
X136142043Y-70231929D01*
X135975910Y-70191277D01*
X135975907Y-70191277D01*
X135974307Y-70190885D01*
X135963266Y-70190200D01*
X135837221Y-70190200D01*
X135707335Y-70205343D01*
X135705310Y-70206078D01*
X135705306Y-70206079D01*
X135556397Y-70260131D01*
X135542985Y-70264999D01*
X135396767Y-70360864D01*
X135395289Y-70362425D01*
X135395287Y-70362426D01*
X135278007Y-70486230D01*
X135278005Y-70486233D01*
X135276525Y-70487795D01*
X135188708Y-70638983D01*
X135188085Y-70641039D01*
X135188084Y-70641042D01*
X135169400Y-70702732D01*
X135138027Y-70806318D01*
X135127201Y-70980824D01*
X134597734Y-70980824D01*
X134602799Y-70899176D01*
X134573190Y-70726859D01*
X134504733Y-70565976D01*
X134465699Y-70512934D01*
X134402377Y-70426889D01*
X134402375Y-70426887D01*
X134401102Y-70425157D01*
X134267854Y-70311955D01*
X134112138Y-70232442D01*
X134110046Y-70231930D01*
X134110043Y-70231929D01*
X133943910Y-70191277D01*
X133943907Y-70191277D01*
X133942307Y-70190885D01*
X133931266Y-70190200D01*
X133805221Y-70190200D01*
X133675335Y-70205343D01*
X133673310Y-70206078D01*
X133673306Y-70206079D01*
X133524397Y-70260131D01*
X133510985Y-70264999D01*
X133364767Y-70360864D01*
X133363289Y-70362425D01*
X133363287Y-70362426D01*
X133246007Y-70486230D01*
X133246005Y-70486233D01*
X133244525Y-70487795D01*
X133156708Y-70638983D01*
X133156085Y-70641039D01*
X133156084Y-70641042D01*
X133137400Y-70702732D01*
X133106027Y-70806318D01*
X133095201Y-70980824D01*
X131613704Y-70980824D01*
X131626505Y-70900000D01*
X131606609Y-70774383D01*
X131548869Y-70661062D01*
X131458938Y-70571131D01*
X131402277Y-70542261D01*
X131348220Y-70514717D01*
X131348218Y-70514716D01*
X131345617Y-70513391D01*
X131220000Y-70493495D01*
X131094383Y-70513391D01*
X131091782Y-70514716D01*
X131091780Y-70514717D01*
X131037722Y-70542261D01*
X130981062Y-70571131D01*
X130891131Y-70661062D01*
X130833391Y-70774383D01*
X130813495Y-70900000D01*
X124714208Y-70900000D01*
X124612885Y-70883952D01*
X124610000Y-70883495D01*
X124607115Y-70883952D01*
X124487578Y-70902885D01*
X124484383Y-70903391D01*
X124481782Y-70904716D01*
X124481780Y-70904717D01*
X124471029Y-70910195D01*
X124371062Y-70961131D01*
X124281131Y-71051062D01*
X124269701Y-71073495D01*
X124228107Y-71155128D01*
X124223391Y-71164383D01*
X124203495Y-71290000D01*
X118710500Y-71290000D01*
X118710500Y-70550000D01*
X122773495Y-70550000D01*
X122773952Y-70552885D01*
X122787551Y-70638742D01*
X122793391Y-70675617D01*
X122794716Y-70678218D01*
X122794717Y-70678220D01*
X122807207Y-70702732D01*
X122851131Y-70788938D01*
X122941062Y-70878869D01*
X122995889Y-70906805D01*
X123051780Y-70935283D01*
X123051782Y-70935284D01*
X123054383Y-70936609D01*
X123180000Y-70956505D01*
X123182885Y-70956048D01*
X123302732Y-70937066D01*
X123305617Y-70936609D01*
X123308218Y-70935284D01*
X123308220Y-70935283D01*
X123364111Y-70906805D01*
X123418938Y-70878869D01*
X123508869Y-70788938D01*
X123552793Y-70702732D01*
X123565283Y-70678220D01*
X123565284Y-70678218D01*
X123566609Y-70675617D01*
X123567565Y-70669581D01*
X123582401Y-70645370D01*
X123610012Y-70638742D01*
X123634223Y-70653578D01*
X123640851Y-70669581D01*
X123643391Y-70685617D01*
X123644716Y-70688218D01*
X123644717Y-70688220D01*
X123654908Y-70708220D01*
X123701131Y-70798938D01*
X123791062Y-70888869D01*
X123830314Y-70908869D01*
X123901780Y-70945283D01*
X123901782Y-70945284D01*
X123904383Y-70946609D01*
X124030000Y-70966505D01*
X124032885Y-70966048D01*
X124152732Y-70947066D01*
X124155617Y-70946609D01*
X124158218Y-70945284D01*
X124158220Y-70945283D01*
X124229686Y-70908869D01*
X124268938Y-70888869D01*
X124358869Y-70798938D01*
X124405092Y-70708220D01*
X124415283Y-70688220D01*
X124415284Y-70688218D01*
X124416609Y-70685617D01*
X124436505Y-70560000D01*
X124423675Y-70478998D01*
X124417066Y-70437268D01*
X124416609Y-70434383D01*
X124410188Y-70421780D01*
X124369910Y-70342732D01*
X124358869Y-70321062D01*
X124268938Y-70231131D01*
X124247092Y-70220000D01*
X132093495Y-70220000D01*
X132093952Y-70222885D01*
X132112670Y-70341062D01*
X132113391Y-70345617D01*
X132114716Y-70348218D01*
X132114717Y-70348220D01*
X132135906Y-70389805D01*
X132171131Y-70458938D01*
X132261062Y-70548869D01*
X132316498Y-70577115D01*
X132371780Y-70605283D01*
X132371782Y-70605284D01*
X132374383Y-70606609D01*
X132500000Y-70626505D01*
X132502885Y-70626048D01*
X132622732Y-70607066D01*
X132625617Y-70606609D01*
X132628218Y-70605284D01*
X132628220Y-70605283D01*
X132683502Y-70577115D01*
X132738938Y-70548869D01*
X132828869Y-70458938D01*
X132864094Y-70389805D01*
X132885283Y-70348220D01*
X132885284Y-70348218D01*
X132886609Y-70345617D01*
X132887331Y-70341062D01*
X132906048Y-70222885D01*
X132906505Y-70220000D01*
X132886609Y-70094383D01*
X132828869Y-69981062D01*
X132738938Y-69891131D01*
X132682277Y-69862261D01*
X132628220Y-69834717D01*
X132628218Y-69834716D01*
X132625617Y-69833391D01*
X132500000Y-69813495D01*
X132374383Y-69833391D01*
X132371782Y-69834716D01*
X132371780Y-69834717D01*
X132317723Y-69862261D01*
X132261062Y-69891131D01*
X132171131Y-69981062D01*
X132113391Y-70094383D01*
X132093495Y-70220000D01*
X124247092Y-70220000D01*
X124188675Y-70190235D01*
X124158220Y-70174717D01*
X124158218Y-70174716D01*
X124155617Y-70173391D01*
X124030000Y-70153495D01*
X123904383Y-70173391D01*
X123901782Y-70174716D01*
X123901780Y-70174717D01*
X123871325Y-70190235D01*
X123791062Y-70231131D01*
X123701131Y-70321062D01*
X123690090Y-70342732D01*
X123649813Y-70421780D01*
X123643391Y-70434383D01*
X123642934Y-70437268D01*
X123642435Y-70440419D01*
X123627599Y-70464630D01*
X123599988Y-70471258D01*
X123575777Y-70456422D01*
X123569149Y-70440419D01*
X123567066Y-70427268D01*
X123566609Y-70424383D01*
X123508869Y-70311062D01*
X123418938Y-70221131D01*
X123326344Y-70173952D01*
X123308220Y-70164717D01*
X123308218Y-70164716D01*
X123305617Y-70163391D01*
X123180000Y-70143495D01*
X123054383Y-70163391D01*
X123051782Y-70164716D01*
X123051780Y-70164717D01*
X123033656Y-70173952D01*
X122941062Y-70221131D01*
X122851131Y-70311062D01*
X122793391Y-70424383D01*
X122773495Y-70550000D01*
X118710500Y-70550000D01*
X118710500Y-69569500D01*
X125443495Y-69569500D01*
X125463391Y-69695117D01*
X125464716Y-69697718D01*
X125464717Y-69697720D01*
X125480258Y-69728220D01*
X125521131Y-69808438D01*
X125611062Y-69898369D01*
X125666871Y-69926805D01*
X125721780Y-69954783D01*
X125721782Y-69954784D01*
X125724383Y-69956109D01*
X125850000Y-69976005D01*
X125852885Y-69975548D01*
X125972732Y-69956566D01*
X125975617Y-69956109D01*
X125978218Y-69954784D01*
X125978220Y-69954783D01*
X126033129Y-69926805D01*
X126088938Y-69898369D01*
X126178869Y-69808438D01*
X126219742Y-69728220D01*
X126235283Y-69697720D01*
X126235284Y-69697718D01*
X126236609Y-69695117D01*
X126250090Y-69610000D01*
X126693495Y-69610000D01*
X126713391Y-69735617D01*
X126771131Y-69848938D01*
X126861062Y-69938869D01*
X126917723Y-69967739D01*
X126971780Y-69995283D01*
X126971782Y-69995284D01*
X126974383Y-69996609D01*
X127100000Y-70016505D01*
X127102885Y-70016048D01*
X127222732Y-69997066D01*
X127225617Y-69996609D01*
X127228218Y-69995284D01*
X127228220Y-69995283D01*
X127282277Y-69967739D01*
X127338938Y-69938869D01*
X127428869Y-69848938D01*
X127486609Y-69735617D01*
X127506505Y-69610000D01*
X127504921Y-69600000D01*
X141283495Y-69600000D01*
X141283952Y-69602885D01*
X141298973Y-69697720D01*
X141303391Y-69725617D01*
X141304716Y-69728218D01*
X141304717Y-69728220D01*
X141332261Y-69782278D01*
X141361131Y-69838938D01*
X141451062Y-69928869D01*
X141470688Y-69938869D01*
X141561780Y-69985283D01*
X141561782Y-69985284D01*
X141564383Y-69986609D01*
X141690000Y-70006505D01*
X141692885Y-70006048D01*
X141812732Y-69987066D01*
X141815617Y-69986609D01*
X141818218Y-69985284D01*
X141818220Y-69985283D01*
X141909312Y-69938869D01*
X141928938Y-69928869D01*
X142018869Y-69838938D01*
X142047739Y-69782278D01*
X142075283Y-69728220D01*
X142075284Y-69728218D01*
X142076609Y-69725617D01*
X142081028Y-69697720D01*
X142096048Y-69602885D01*
X142096505Y-69600000D01*
X142076609Y-69474383D01*
X142062539Y-69446768D01*
X142047032Y-69416335D01*
X142018869Y-69361062D01*
X141928938Y-69271131D01*
X141873129Y-69242695D01*
X141844399Y-69228056D01*
X141825958Y-69206464D01*
X141828041Y-69180000D01*
X142473495Y-69180000D01*
X142493391Y-69305617D01*
X142551131Y-69418938D01*
X142641062Y-69508869D01*
X142697723Y-69537739D01*
X142751780Y-69565283D01*
X142751782Y-69565284D01*
X142754383Y-69566609D01*
X142880000Y-69586505D01*
X142882885Y-69586048D01*
X143002732Y-69567066D01*
X143005617Y-69566609D01*
X143008218Y-69565284D01*
X143008220Y-69565283D01*
X143062277Y-69537739D01*
X143118938Y-69508869D01*
X143208869Y-69418938D01*
X143266609Y-69305617D01*
X143286505Y-69180000D01*
X143268903Y-69068869D01*
X143267066Y-69057268D01*
X143266609Y-69054383D01*
X143208869Y-68941062D01*
X143137807Y-68870000D01*
X145243495Y-68870000D01*
X145263391Y-68995617D01*
X145264716Y-68998218D01*
X145264717Y-68998220D01*
X145292008Y-69051780D01*
X145321131Y-69108938D01*
X145411062Y-69198869D01*
X145467722Y-69227739D01*
X145521780Y-69255283D01*
X145521782Y-69255284D01*
X145524383Y-69256609D01*
X145650000Y-69276505D01*
X145652885Y-69276048D01*
X145772732Y-69257066D01*
X145775617Y-69256609D01*
X145778218Y-69255284D01*
X145778220Y-69255283D01*
X145832278Y-69227739D01*
X145888938Y-69198869D01*
X145978869Y-69108938D01*
X146007992Y-69051780D01*
X146035283Y-68998220D01*
X146035284Y-68998218D01*
X146036609Y-68995617D01*
X146056505Y-68870000D01*
X146036609Y-68744383D01*
X145978869Y-68631062D01*
X145897807Y-68550000D01*
X150283495Y-68550000D01*
X150303391Y-68675617D01*
X150361131Y-68788938D01*
X150451062Y-68878869D01*
X150507723Y-68907739D01*
X150561780Y-68935283D01*
X150561782Y-68935284D01*
X150564383Y-68936609D01*
X150690000Y-68956505D01*
X150692885Y-68956048D01*
X150812732Y-68937066D01*
X150815617Y-68936609D01*
X150818218Y-68935284D01*
X150818220Y-68935283D01*
X150872278Y-68907739D01*
X150928938Y-68878869D01*
X151018869Y-68788938D01*
X151076609Y-68675617D01*
X151096505Y-68550000D01*
X151076609Y-68424383D01*
X151070909Y-68413195D01*
X151020195Y-68313665D01*
X151018869Y-68311062D01*
X150928938Y-68221131D01*
X150872277Y-68192261D01*
X150818220Y-68164717D01*
X150818218Y-68164716D01*
X150815617Y-68163391D01*
X150795439Y-68160195D01*
X150692885Y-68143952D01*
X150690000Y-68143495D01*
X150687115Y-68143952D01*
X150584562Y-68160195D01*
X150564383Y-68163391D01*
X150561782Y-68164716D01*
X150561780Y-68164717D01*
X150507723Y-68192261D01*
X150451062Y-68221131D01*
X150361131Y-68311062D01*
X150359805Y-68313665D01*
X150309092Y-68413195D01*
X150303391Y-68424383D01*
X150283495Y-68550000D01*
X145897807Y-68550000D01*
X145888938Y-68541131D01*
X145810298Y-68501062D01*
X145778220Y-68484717D01*
X145778218Y-68484716D01*
X145775617Y-68483391D01*
X145650000Y-68463495D01*
X145524383Y-68483391D01*
X145521782Y-68484716D01*
X145521780Y-68484717D01*
X145489702Y-68501062D01*
X145411062Y-68541131D01*
X145321131Y-68631062D01*
X145263391Y-68744383D01*
X145243495Y-68870000D01*
X143137807Y-68870000D01*
X143118938Y-68851131D01*
X143062278Y-68822261D01*
X143008220Y-68794717D01*
X143008218Y-68794716D01*
X143005617Y-68793391D01*
X143002423Y-68792885D01*
X142882885Y-68773952D01*
X142880000Y-68773495D01*
X142877115Y-68773952D01*
X142757578Y-68792885D01*
X142754383Y-68793391D01*
X142751782Y-68794716D01*
X142751780Y-68794717D01*
X142697722Y-68822261D01*
X142641062Y-68851131D01*
X142551131Y-68941062D01*
X142493391Y-69054383D01*
X142492934Y-69057268D01*
X142491097Y-69068869D01*
X142473495Y-69180000D01*
X141828041Y-69180000D01*
X141828186Y-69178157D01*
X141844399Y-69161944D01*
X141875596Y-69146048D01*
X141928938Y-69118869D01*
X142018869Y-69028938D01*
X142047739Y-68972277D01*
X142075283Y-68918220D01*
X142075284Y-68918218D01*
X142076609Y-68915617D01*
X142096505Y-68790000D01*
X142076609Y-68664383D01*
X142060958Y-68633665D01*
X142020195Y-68553665D01*
X142018869Y-68551062D01*
X141928938Y-68461131D01*
X141856816Y-68424383D01*
X141818220Y-68404717D01*
X141818218Y-68404716D01*
X141815617Y-68403391D01*
X141690000Y-68383495D01*
X141564383Y-68403391D01*
X141561782Y-68404716D01*
X141561780Y-68404717D01*
X141523184Y-68424383D01*
X141451062Y-68461131D01*
X141361131Y-68551062D01*
X141359805Y-68553665D01*
X141319043Y-68633665D01*
X141303391Y-68664383D01*
X141283495Y-68790000D01*
X141303391Y-68915617D01*
X141304716Y-68918218D01*
X141304717Y-68918220D01*
X141332261Y-68972277D01*
X141361131Y-69028938D01*
X141451062Y-69118869D01*
X141504404Y-69146048D01*
X141535601Y-69161944D01*
X141554042Y-69183536D01*
X141551814Y-69211843D01*
X141535601Y-69228056D01*
X141506871Y-69242695D01*
X141451062Y-69271131D01*
X141361131Y-69361062D01*
X141332968Y-69416335D01*
X141317462Y-69446768D01*
X141303391Y-69474383D01*
X141283495Y-69600000D01*
X127504921Y-69600000D01*
X127486609Y-69484383D01*
X127480188Y-69471780D01*
X127430195Y-69373665D01*
X127428869Y-69371062D01*
X127338938Y-69281131D01*
X127263503Y-69242695D01*
X127228220Y-69224717D01*
X127228218Y-69224716D01*
X127225617Y-69223391D01*
X127100000Y-69203495D01*
X126974383Y-69223391D01*
X126971782Y-69224716D01*
X126971780Y-69224717D01*
X126936497Y-69242695D01*
X126861062Y-69281131D01*
X126771131Y-69371062D01*
X126769805Y-69373665D01*
X126719813Y-69471780D01*
X126713391Y-69484383D01*
X126693495Y-69610000D01*
X126250090Y-69610000D01*
X126256505Y-69569500D01*
X126241440Y-69474383D01*
X126237066Y-69446768D01*
X126236609Y-69443883D01*
X126178869Y-69330562D01*
X126088938Y-69240631D01*
X126021882Y-69206464D01*
X125978220Y-69184217D01*
X125978218Y-69184216D01*
X125975617Y-69182891D01*
X125935955Y-69176609D01*
X125852885Y-69163452D01*
X125850000Y-69162995D01*
X125847115Y-69163452D01*
X125764046Y-69176609D01*
X125724383Y-69182891D01*
X125721782Y-69184216D01*
X125721780Y-69184217D01*
X125678118Y-69206464D01*
X125611062Y-69240631D01*
X125521131Y-69330562D01*
X125463391Y-69443883D01*
X125462934Y-69446768D01*
X125458560Y-69474383D01*
X125443495Y-69569500D01*
X118710500Y-69569500D01*
X118710500Y-68740000D01*
X133123495Y-68740000D01*
X133123952Y-68742885D01*
X133141424Y-68853195D01*
X133143391Y-68865617D01*
X133144716Y-68868218D01*
X133144717Y-68868220D01*
X133150143Y-68878869D01*
X133201131Y-68978938D01*
X133291062Y-69068869D01*
X133347722Y-69097739D01*
X133401780Y-69125283D01*
X133401782Y-69125284D01*
X133404383Y-69126609D01*
X133530000Y-69146505D01*
X133532885Y-69146048D01*
X133652732Y-69127066D01*
X133655617Y-69126609D01*
X133658218Y-69125284D01*
X133658220Y-69125283D01*
X133712278Y-69097739D01*
X133768938Y-69068869D01*
X133858869Y-68978938D01*
X133909857Y-68878869D01*
X133915283Y-68868220D01*
X133915284Y-68868218D01*
X133916609Y-68865617D01*
X133918577Y-68853195D01*
X133936048Y-68742885D01*
X133936505Y-68740000D01*
X133916609Y-68614383D01*
X133858869Y-68501062D01*
X133768938Y-68411131D01*
X133712278Y-68382261D01*
X133658220Y-68354717D01*
X133658218Y-68354716D01*
X133655617Y-68353391D01*
X133530000Y-68333495D01*
X133404383Y-68353391D01*
X133401782Y-68354716D01*
X133401780Y-68354717D01*
X133347722Y-68382261D01*
X133291062Y-68411131D01*
X133201131Y-68501062D01*
X133143391Y-68614383D01*
X133123495Y-68740000D01*
X118710500Y-68740000D01*
X118710500Y-67660000D01*
X119193495Y-67660000D01*
X119213391Y-67785617D01*
X119271131Y-67898938D01*
X119361062Y-67988869D01*
X119394778Y-68006048D01*
X119471780Y-68045283D01*
X119471782Y-68045284D01*
X119474383Y-68046609D01*
X119600000Y-68066505D01*
X119602885Y-68066048D01*
X119722732Y-68047066D01*
X119725617Y-68046609D01*
X119728218Y-68045284D01*
X119728220Y-68045283D01*
X119805222Y-68006048D01*
X119838938Y-67988869D01*
X119928869Y-67898938D01*
X119986609Y-67785617D01*
X119998586Y-67710000D01*
X121423495Y-67710000D01*
X121443391Y-67835617D01*
X121501131Y-67948938D01*
X121591062Y-68038869D01*
X121644404Y-68066048D01*
X121701780Y-68095283D01*
X121701782Y-68095284D01*
X121704383Y-68096609D01*
X121830000Y-68116505D01*
X121832885Y-68116048D01*
X121952732Y-68097066D01*
X121955617Y-68096609D01*
X121958218Y-68095284D01*
X121958220Y-68095283D01*
X122015596Y-68066048D01*
X122068938Y-68038869D01*
X122158869Y-67948938D01*
X122216609Y-67835617D01*
X122236505Y-67710000D01*
X122224912Y-67636805D01*
X122219083Y-67600000D01*
X133203495Y-67600000D01*
X133203952Y-67602885D01*
X133220461Y-67707115D01*
X133223391Y-67725617D01*
X133281131Y-67838938D01*
X133371062Y-67928869D01*
X133417896Y-67952732D01*
X133481780Y-67985283D01*
X133481782Y-67985284D01*
X133484383Y-67986609D01*
X133610000Y-68006505D01*
X133612885Y-68006048D01*
X133732732Y-67987066D01*
X133735617Y-67986609D01*
X133738218Y-67985284D01*
X133738220Y-67985283D01*
X133802104Y-67952732D01*
X133848938Y-67928869D01*
X133938869Y-67838938D01*
X133943423Y-67830000D01*
X154553495Y-67830000D01*
X154553952Y-67832885D01*
X154569365Y-67930195D01*
X154573391Y-67955617D01*
X154574716Y-67958218D01*
X154574717Y-67958220D01*
X154589182Y-67986609D01*
X154631131Y-68068938D01*
X154721062Y-68158869D01*
X154777722Y-68187739D01*
X154831780Y-68215283D01*
X154831782Y-68215284D01*
X154834383Y-68216609D01*
X154837268Y-68217066D01*
X154862933Y-68221131D01*
X154960000Y-68236505D01*
X154962885Y-68236048D01*
X155082732Y-68217066D01*
X155085617Y-68216609D01*
X155088218Y-68215284D01*
X155088220Y-68215283D01*
X155142277Y-68187739D01*
X155198938Y-68158869D01*
X155288869Y-68068938D01*
X155330818Y-67986609D01*
X155345283Y-67958220D01*
X155345284Y-67958218D01*
X155346609Y-67955617D01*
X155350636Y-67930195D01*
X155366048Y-67832885D01*
X155366505Y-67830000D01*
X155346609Y-67704383D01*
X155341973Y-67695283D01*
X155290195Y-67593665D01*
X155288869Y-67591062D01*
X155198938Y-67501131D01*
X155111559Y-67456609D01*
X155088220Y-67444717D01*
X155088218Y-67444716D01*
X155085617Y-67443391D01*
X155036535Y-67435617D01*
X154962885Y-67423952D01*
X154960000Y-67423495D01*
X154957115Y-67423952D01*
X154883466Y-67435617D01*
X154834383Y-67443391D01*
X154831782Y-67444716D01*
X154831780Y-67444717D01*
X154808441Y-67456609D01*
X154721062Y-67501131D01*
X154631131Y-67591062D01*
X154629805Y-67593665D01*
X154578028Y-67695283D01*
X154573391Y-67704383D01*
X154553495Y-67830000D01*
X133943423Y-67830000D01*
X133996609Y-67725617D01*
X133999540Y-67707115D01*
X134016048Y-67602885D01*
X134016505Y-67600000D01*
X134000846Y-67501131D01*
X133997066Y-67477268D01*
X133996609Y-67474383D01*
X133981494Y-67444717D01*
X133950146Y-67383195D01*
X133938869Y-67361062D01*
X133848938Y-67271131D01*
X133792278Y-67242261D01*
X133738220Y-67214717D01*
X133738218Y-67214716D01*
X133735617Y-67213391D01*
X133610000Y-67193495D01*
X133484383Y-67213391D01*
X133481782Y-67214716D01*
X133481780Y-67214717D01*
X133427723Y-67242261D01*
X133371062Y-67271131D01*
X133281131Y-67361062D01*
X133269854Y-67383195D01*
X133238507Y-67444717D01*
X133223391Y-67474383D01*
X133222934Y-67477268D01*
X133219154Y-67501131D01*
X133203495Y-67600000D01*
X122219083Y-67600000D01*
X122217066Y-67587268D01*
X122216609Y-67584383D01*
X122158869Y-67471062D01*
X122068938Y-67381131D01*
X122012278Y-67352261D01*
X121958220Y-67324717D01*
X121958218Y-67324716D01*
X121955617Y-67323391D01*
X121830000Y-67303495D01*
X121704383Y-67323391D01*
X121701782Y-67324716D01*
X121701780Y-67324717D01*
X121647723Y-67352261D01*
X121591062Y-67381131D01*
X121501131Y-67471062D01*
X121443391Y-67584383D01*
X121442934Y-67587268D01*
X121435088Y-67636805D01*
X121423495Y-67710000D01*
X119998586Y-67710000D01*
X120006505Y-67660000D01*
X119986609Y-67534383D01*
X119928869Y-67421062D01*
X119838938Y-67331131D01*
X119782278Y-67302261D01*
X119728220Y-67274717D01*
X119728218Y-67274716D01*
X119725617Y-67273391D01*
X119600000Y-67253495D01*
X119474383Y-67273391D01*
X119471782Y-67274716D01*
X119471780Y-67274717D01*
X119417722Y-67302261D01*
X119361062Y-67331131D01*
X119271131Y-67421062D01*
X119213391Y-67534383D01*
X119193495Y-67660000D01*
X118710500Y-67660000D01*
X118710500Y-67070000D01*
X150323495Y-67070000D01*
X150343391Y-67195617D01*
X150401131Y-67308938D01*
X150491062Y-67398869D01*
X150534618Y-67421062D01*
X150601780Y-67455283D01*
X150601782Y-67455284D01*
X150604383Y-67456609D01*
X150730000Y-67476505D01*
X150732885Y-67476048D01*
X150743398Y-67474383D01*
X150855617Y-67456609D01*
X150858218Y-67455284D01*
X150858220Y-67455283D01*
X150925382Y-67421062D01*
X150968938Y-67398869D01*
X151057807Y-67310000D01*
X153333495Y-67310000D01*
X153353391Y-67435617D01*
X153354716Y-67438218D01*
X153354717Y-67438220D01*
X153374613Y-67477268D01*
X153411131Y-67548938D01*
X153501062Y-67638869D01*
X153536872Y-67657115D01*
X153611780Y-67695283D01*
X153611782Y-67695284D01*
X153614383Y-67696609D01*
X153617268Y-67697066D01*
X153677192Y-67706557D01*
X153740000Y-67716505D01*
X153742885Y-67716048D01*
X153762856Y-67712885D01*
X153802808Y-67706557D01*
X153862732Y-67697066D01*
X153865617Y-67696609D01*
X153868218Y-67695284D01*
X153868220Y-67695283D01*
X153943128Y-67657115D01*
X153978938Y-67638869D01*
X154068869Y-67548938D01*
X154105387Y-67477268D01*
X154125283Y-67438220D01*
X154125284Y-67438218D01*
X154126609Y-67435617D01*
X154146505Y-67310000D01*
X154136557Y-67247192D01*
X154127066Y-67187268D01*
X154126609Y-67184383D01*
X154068869Y-67071062D01*
X153978938Y-66981131D01*
X153906816Y-66944383D01*
X153868220Y-66924717D01*
X153868218Y-66924716D01*
X153865617Y-66923391D01*
X153740000Y-66903495D01*
X153614383Y-66923391D01*
X153611782Y-66924716D01*
X153611780Y-66924717D01*
X153573184Y-66944383D01*
X153501062Y-66981131D01*
X153411131Y-67071062D01*
X153353391Y-67184383D01*
X153352934Y-67187268D01*
X153343443Y-67247192D01*
X153333495Y-67310000D01*
X151057807Y-67310000D01*
X151058869Y-67308938D01*
X151116609Y-67195617D01*
X151136505Y-67070000D01*
X151116609Y-66944383D01*
X151095776Y-66903495D01*
X151060195Y-66833665D01*
X151058869Y-66831062D01*
X150968938Y-66741131D01*
X150860832Y-66686048D01*
X150858220Y-66684717D01*
X150858218Y-66684716D01*
X150855617Y-66683391D01*
X150730000Y-66663495D01*
X150604383Y-66683391D01*
X150601782Y-66684716D01*
X150601780Y-66684717D01*
X150599168Y-66686048D01*
X150491062Y-66741131D01*
X150401131Y-66831062D01*
X150399805Y-66833665D01*
X150364225Y-66903495D01*
X150343391Y-66944383D01*
X150323495Y-67070000D01*
X118710500Y-67070000D01*
X118710500Y-66280000D01*
X132803495Y-66280000D01*
X132823391Y-66405617D01*
X132824716Y-66408218D01*
X132824717Y-66408220D01*
X132852261Y-66462278D01*
X132881131Y-66518938D01*
X132971062Y-66608869D01*
X133027723Y-66637739D01*
X133081780Y-66665283D01*
X133081782Y-66665284D01*
X133084383Y-66666609D01*
X133210000Y-66686505D01*
X133212885Y-66686048D01*
X133332732Y-66667066D01*
X133335617Y-66666609D01*
X133338218Y-66665284D01*
X133338220Y-66665283D01*
X133392277Y-66637739D01*
X133448938Y-66608869D01*
X133538869Y-66518938D01*
X133567739Y-66462277D01*
X133595283Y-66408220D01*
X133595284Y-66408218D01*
X133596609Y-66405617D01*
X133616505Y-66280000D01*
X133596609Y-66154383D01*
X133538869Y-66041062D01*
X133448938Y-65951131D01*
X133376816Y-65914383D01*
X133350205Y-65900824D01*
X134111201Y-65900824D01*
X134140810Y-66073141D01*
X134209267Y-66234024D01*
X134210543Y-66235758D01*
X134308502Y-66368869D01*
X134312898Y-66374843D01*
X134446146Y-66488045D01*
X134601862Y-66567558D01*
X134603954Y-66568070D01*
X134603957Y-66568071D01*
X134770090Y-66608723D01*
X134770093Y-66608723D01*
X134771693Y-66609115D01*
X134782734Y-66609800D01*
X134908779Y-66609800D01*
X135038665Y-66594657D01*
X135040690Y-66593922D01*
X135040694Y-66593921D01*
X135200990Y-66535736D01*
X135203015Y-66535001D01*
X135349233Y-66439136D01*
X135383719Y-66402732D01*
X135467993Y-66313770D01*
X135467995Y-66313767D01*
X135469475Y-66312205D01*
X135557292Y-66161017D01*
X135558428Y-66157268D01*
X135593945Y-66040000D01*
X137233495Y-66040000D01*
X137253391Y-66165617D01*
X137311131Y-66278938D01*
X137401062Y-66368869D01*
X137412787Y-66374843D01*
X137511780Y-66425283D01*
X137511782Y-66425284D01*
X137514383Y-66426609D01*
X137640000Y-66446505D01*
X137642885Y-66446048D01*
X137686526Y-66439136D01*
X137765617Y-66426609D01*
X137768218Y-66425284D01*
X137768220Y-66425283D01*
X137867213Y-66374843D01*
X137878938Y-66368869D01*
X137968869Y-66278938D01*
X138026609Y-66165617D01*
X138046505Y-66040000D01*
X138026609Y-65914383D01*
X138019701Y-65900824D01*
X137979196Y-65821330D01*
X137968869Y-65801062D01*
X137878938Y-65711131D01*
X137822277Y-65682261D01*
X137768220Y-65654717D01*
X137768218Y-65654716D01*
X137765617Y-65653391D01*
X137640000Y-65633495D01*
X137514383Y-65653391D01*
X137511782Y-65654716D01*
X137511780Y-65654717D01*
X137457722Y-65682261D01*
X137401062Y-65711131D01*
X137311131Y-65801062D01*
X137300804Y-65821330D01*
X137260300Y-65900824D01*
X137253391Y-65914383D01*
X137233495Y-66040000D01*
X135593945Y-66040000D01*
X135607349Y-65995742D01*
X135607973Y-65993682D01*
X135618799Y-65819176D01*
X135590540Y-65654717D01*
X135589556Y-65648988D01*
X135589556Y-65648987D01*
X135589190Y-65646859D01*
X135520733Y-65485976D01*
X135464570Y-65409659D01*
X135418377Y-65346889D01*
X135418375Y-65346887D01*
X135417102Y-65345157D01*
X135283854Y-65231955D01*
X135128138Y-65152442D01*
X135126046Y-65151930D01*
X135126043Y-65151929D01*
X134959910Y-65111277D01*
X134959907Y-65111277D01*
X134958307Y-65110885D01*
X134947266Y-65110200D01*
X134821221Y-65110200D01*
X134691335Y-65125343D01*
X134689310Y-65126078D01*
X134689306Y-65126079D01*
X134540397Y-65180131D01*
X134526985Y-65184999D01*
X134380767Y-65280864D01*
X134379289Y-65282425D01*
X134379287Y-65282426D01*
X134262007Y-65406230D01*
X134262005Y-65406233D01*
X134260525Y-65407795D01*
X134172708Y-65558983D01*
X134172085Y-65561039D01*
X134172084Y-65561042D01*
X134143713Y-65654717D01*
X134122027Y-65726318D01*
X134111201Y-65900824D01*
X133350205Y-65900824D01*
X133338220Y-65894717D01*
X133338218Y-65894716D01*
X133335617Y-65893391D01*
X133210000Y-65873495D01*
X133084383Y-65893391D01*
X133081782Y-65894716D01*
X133081780Y-65894717D01*
X133043184Y-65914383D01*
X132971062Y-65951131D01*
X132881131Y-66041062D01*
X132823391Y-66154383D01*
X132803495Y-66280000D01*
X118710500Y-66280000D01*
X118710500Y-64610000D01*
X141973495Y-64610000D01*
X141993391Y-64735617D01*
X142051131Y-64848938D01*
X142141062Y-64938869D01*
X142197722Y-64967739D01*
X142251780Y-64995283D01*
X142251782Y-64995284D01*
X142254383Y-64996609D01*
X142380000Y-65016505D01*
X142382885Y-65016048D01*
X142502732Y-64997066D01*
X142505617Y-64996609D01*
X142508218Y-64995284D01*
X142508220Y-64995283D01*
X142562277Y-64967739D01*
X142618938Y-64938869D01*
X142708869Y-64848938D01*
X142766609Y-64735617D01*
X142766903Y-64733762D01*
X142785068Y-64712494D01*
X142813375Y-64710267D01*
X142834966Y-64728708D01*
X142891131Y-64838938D01*
X142981062Y-64928869D01*
X143000688Y-64938869D01*
X143091780Y-64985283D01*
X143091782Y-64985284D01*
X143094383Y-64986609D01*
X143220000Y-65006505D01*
X143222885Y-65006048D01*
X143342732Y-64987066D01*
X143345617Y-64986609D01*
X143348218Y-64985284D01*
X143348220Y-64985283D01*
X143439312Y-64938869D01*
X143458938Y-64928869D01*
X143548869Y-64838938D01*
X143577739Y-64782277D01*
X143605283Y-64728220D01*
X143605284Y-64728218D01*
X143606609Y-64725617D01*
X143606903Y-64723762D01*
X143625068Y-64702494D01*
X143653375Y-64700267D01*
X143674966Y-64718708D01*
X143731131Y-64828938D01*
X143821062Y-64918869D01*
X143860314Y-64938869D01*
X143931780Y-64975283D01*
X143931782Y-64975284D01*
X143934383Y-64976609D01*
X144060000Y-64996505D01*
X144062885Y-64996048D01*
X144182732Y-64977066D01*
X144185617Y-64976609D01*
X144188218Y-64975284D01*
X144188220Y-64975283D01*
X144259686Y-64938869D01*
X144298938Y-64918869D01*
X144388869Y-64828938D01*
X144435092Y-64738220D01*
X144445283Y-64718220D01*
X144445284Y-64718218D01*
X144446609Y-64715617D01*
X144466505Y-64590000D01*
X144446609Y-64464383D01*
X144388869Y-64351062D01*
X144298938Y-64261131D01*
X144205243Y-64213391D01*
X144188220Y-64204717D01*
X144188218Y-64204716D01*
X144185617Y-64203391D01*
X144060000Y-64183495D01*
X143934383Y-64203391D01*
X143931782Y-64204716D01*
X143931780Y-64204717D01*
X143914757Y-64213391D01*
X143821062Y-64261131D01*
X143731131Y-64351062D01*
X143673391Y-64464383D01*
X143673097Y-64466238D01*
X143654932Y-64487506D01*
X143626625Y-64489733D01*
X143605034Y-64471292D01*
X143600187Y-64461780D01*
X143548869Y-64361062D01*
X143458938Y-64271131D01*
X143365243Y-64223391D01*
X143348220Y-64214717D01*
X143348218Y-64214716D01*
X143345617Y-64213391D01*
X143340756Y-64212621D01*
X143222885Y-64193952D01*
X143220000Y-64193495D01*
X143217115Y-64193952D01*
X143099245Y-64212621D01*
X143094383Y-64213391D01*
X143091782Y-64214716D01*
X143091780Y-64214717D01*
X143074757Y-64223391D01*
X142981062Y-64271131D01*
X142891131Y-64361062D01*
X142862261Y-64417723D01*
X142839813Y-64461780D01*
X142833391Y-64474383D01*
X142833097Y-64476238D01*
X142814932Y-64497506D01*
X142786625Y-64499733D01*
X142765034Y-64481292D01*
X142757888Y-64467268D01*
X142708869Y-64371062D01*
X142618938Y-64281131D01*
X142562277Y-64252261D01*
X142508220Y-64224717D01*
X142508218Y-64224716D01*
X142505617Y-64223391D01*
X142380000Y-64203495D01*
X142254383Y-64223391D01*
X142251782Y-64224716D01*
X142251780Y-64224717D01*
X142197722Y-64252261D01*
X142141062Y-64281131D01*
X142051131Y-64371062D01*
X142049805Y-64373665D01*
X141999813Y-64471780D01*
X141993391Y-64484383D01*
X141973495Y-64610000D01*
X118710500Y-64610000D01*
X118710500Y-61987202D01*
X118711458Y-61978824D01*
X118714519Y-61965617D01*
X118715655Y-61960718D01*
X118715656Y-61960000D01*
X120177506Y-61960000D01*
X120197461Y-62264452D01*
X120197696Y-62265633D01*
X120197697Y-62265641D01*
X120209353Y-62324239D01*
X120256984Y-62563694D01*
X120355057Y-62852607D01*
X120355591Y-62853690D01*
X120355594Y-62853697D01*
X120456123Y-63057549D01*
X120490001Y-63126247D01*
X120490676Y-63127257D01*
X120490677Y-63127259D01*
X120601243Y-63292732D01*
X120659508Y-63379932D01*
X120860678Y-63609322D01*
X121090068Y-63810492D01*
X121343753Y-63979999D01*
X121344848Y-63980539D01*
X121616303Y-64114406D01*
X121616310Y-64114409D01*
X121617393Y-64114943D01*
X121906306Y-64213016D01*
X122017219Y-64235078D01*
X122204359Y-64272303D01*
X122204367Y-64272304D01*
X122205548Y-64272539D01*
X122510000Y-64292494D01*
X122814452Y-64272539D01*
X122815633Y-64272304D01*
X122815641Y-64272303D01*
X123002781Y-64235078D01*
X123113694Y-64213016D01*
X123402607Y-64114943D01*
X123403690Y-64114409D01*
X123403697Y-64114406D01*
X123675152Y-63980539D01*
X123676247Y-63979999D01*
X123929932Y-63810492D01*
X124159322Y-63609322D01*
X124360492Y-63379932D01*
X124418757Y-63292732D01*
X124500764Y-63170000D01*
X125263495Y-63170000D01*
X125283391Y-63295617D01*
X125341131Y-63408938D01*
X125431062Y-63498869D01*
X125487722Y-63527739D01*
X125541780Y-63555283D01*
X125541782Y-63555284D01*
X125544383Y-63556609D01*
X125670000Y-63576505D01*
X125672885Y-63576048D01*
X125792732Y-63557066D01*
X125795617Y-63556609D01*
X125798218Y-63555284D01*
X125798220Y-63555283D01*
X125852278Y-63527739D01*
X125908938Y-63498869D01*
X125998869Y-63408938D01*
X126056609Y-63295617D01*
X126076505Y-63170000D01*
X126056609Y-63044383D01*
X126052505Y-63036327D01*
X126000195Y-62933665D01*
X125998869Y-62931062D01*
X125908938Y-62841131D01*
X125852277Y-62812261D01*
X125798220Y-62784717D01*
X125798218Y-62784716D01*
X125795617Y-62783391D01*
X125769561Y-62779264D01*
X125672885Y-62763952D01*
X125670000Y-62763495D01*
X125667115Y-62763952D01*
X125570440Y-62779264D01*
X125544383Y-62783391D01*
X125541782Y-62784716D01*
X125541780Y-62784717D01*
X125487723Y-62812261D01*
X125431062Y-62841131D01*
X125341131Y-62931062D01*
X125339805Y-62933665D01*
X125287496Y-63036327D01*
X125283391Y-63044383D01*
X125263495Y-63170000D01*
X124500764Y-63170000D01*
X124529323Y-63127259D01*
X124529324Y-63127257D01*
X124529999Y-63126247D01*
X124563877Y-63057549D01*
X124664406Y-62853697D01*
X124664409Y-62853690D01*
X124664943Y-62852607D01*
X124733365Y-62651044D01*
X133344539Y-62651044D01*
X133364435Y-62776661D01*
X133365760Y-62779262D01*
X133365761Y-62779264D01*
X133393305Y-62833322D01*
X133422175Y-62889982D01*
X133512106Y-62979913D01*
X133568766Y-63008783D01*
X133622824Y-63036327D01*
X133622826Y-63036328D01*
X133625427Y-63037653D01*
X133628312Y-63038110D01*
X133667918Y-63044383D01*
X133751044Y-63057549D01*
X133753929Y-63057092D01*
X133873776Y-63038110D01*
X133876661Y-63037653D01*
X133879262Y-63036328D01*
X133879264Y-63036327D01*
X133933322Y-63008783D01*
X133989982Y-62979913D01*
X134079913Y-62889982D01*
X134108783Y-62833322D01*
X134136327Y-62779264D01*
X134136328Y-62779262D01*
X134137653Y-62776661D01*
X134157549Y-62651044D01*
X134137653Y-62525427D01*
X134079913Y-62412106D01*
X133989982Y-62322175D01*
X133933321Y-62293305D01*
X133879264Y-62265761D01*
X133879262Y-62265760D01*
X133876661Y-62264435D01*
X133869142Y-62263244D01*
X133813852Y-62254487D01*
X133751044Y-62244539D01*
X133688236Y-62254487D01*
X133632947Y-62263244D01*
X133625427Y-62264435D01*
X133622826Y-62265760D01*
X133622824Y-62265761D01*
X133568767Y-62293305D01*
X133512106Y-62322175D01*
X133422175Y-62412106D01*
X133364435Y-62525427D01*
X133344539Y-62651044D01*
X124733365Y-62651044D01*
X124763016Y-62563694D01*
X124810647Y-62324239D01*
X124822303Y-62265641D01*
X124822304Y-62265633D01*
X124822539Y-62264452D01*
X124842494Y-61960000D01*
X124829385Y-61760000D01*
X128293495Y-61760000D01*
X128313391Y-61885617D01*
X128371131Y-61998938D01*
X128461062Y-62088869D01*
X128517722Y-62117739D01*
X128571780Y-62145283D01*
X128571782Y-62145284D01*
X128574383Y-62146609D01*
X128700000Y-62166505D01*
X128702885Y-62166048D01*
X128822732Y-62147066D01*
X128825617Y-62146609D01*
X128828218Y-62145284D01*
X128828220Y-62145283D01*
X128882278Y-62117739D01*
X128938938Y-62088869D01*
X129028869Y-61998938D01*
X129086609Y-61885617D01*
X129106505Y-61760000D01*
X129089773Y-61654357D01*
X129089083Y-61650000D01*
X129293495Y-61650000D01*
X129293952Y-61652885D01*
X129310461Y-61757115D01*
X129313391Y-61775617D01*
X129371131Y-61888938D01*
X129461062Y-61978869D01*
X129517722Y-62007739D01*
X129571780Y-62035283D01*
X129571782Y-62035284D01*
X129574383Y-62036609D01*
X129700000Y-62056505D01*
X129702885Y-62056048D01*
X129822732Y-62037066D01*
X129825617Y-62036609D01*
X129828218Y-62035284D01*
X129828220Y-62035283D01*
X129882277Y-62007739D01*
X129938938Y-61978869D01*
X130028869Y-61888938D01*
X130053804Y-61840000D01*
X144423495Y-61840000D01*
X144443391Y-61965617D01*
X144444716Y-61968218D01*
X144444717Y-61968220D01*
X144472261Y-62022277D01*
X144501131Y-62078938D01*
X144591062Y-62168869D01*
X144647723Y-62197739D01*
X144701780Y-62225283D01*
X144701782Y-62225284D01*
X144704383Y-62226609D01*
X144830000Y-62246505D01*
X144832885Y-62246048D01*
X144842413Y-62244539D01*
X144955617Y-62226609D01*
X144958218Y-62225284D01*
X144958220Y-62225283D01*
X145012278Y-62197739D01*
X145068938Y-62168869D01*
X145158869Y-62078938D01*
X145187739Y-62022278D01*
X145215283Y-61968220D01*
X145215284Y-61968218D01*
X145216609Y-61965617D01*
X145217499Y-61959998D01*
X150677512Y-61959998D01*
X150697467Y-62264450D01*
X150697702Y-62265631D01*
X150697703Y-62265639D01*
X150726427Y-62410042D01*
X150756990Y-62563692D01*
X150855063Y-62852605D01*
X150855597Y-62853688D01*
X150855600Y-62853695D01*
X150956130Y-63057549D01*
X150990007Y-63126245D01*
X150990682Y-63127255D01*
X150990683Y-63127257D01*
X151017315Y-63167115D01*
X151159514Y-63379930D01*
X151360684Y-63609320D01*
X151590074Y-63810490D01*
X151843759Y-63979997D01*
X151844854Y-63980537D01*
X152116309Y-64114404D01*
X152116314Y-64114406D01*
X152117399Y-64114941D01*
X152406312Y-64213014D01*
X152517225Y-64235076D01*
X152704365Y-64272301D01*
X152704373Y-64272302D01*
X152705554Y-64272537D01*
X153010006Y-64292492D01*
X153314458Y-64272537D01*
X153315639Y-64272302D01*
X153315647Y-64272301D01*
X153502787Y-64235076D01*
X153613700Y-64213014D01*
X153902613Y-64114941D01*
X153903698Y-64114406D01*
X153903703Y-64114404D01*
X154175158Y-63980537D01*
X154176253Y-63979997D01*
X154429938Y-63810490D01*
X154659328Y-63609320D01*
X154860498Y-63379930D01*
X155002697Y-63167115D01*
X155029329Y-63127257D01*
X155029330Y-63127255D01*
X155030005Y-63126245D01*
X155063882Y-63057549D01*
X155164412Y-62853695D01*
X155164415Y-62853688D01*
X155164949Y-62852605D01*
X155263022Y-62563692D01*
X155293585Y-62410042D01*
X155322309Y-62265639D01*
X155322310Y-62265631D01*
X155322545Y-62264450D01*
X155342500Y-61959998D01*
X155322545Y-61655546D01*
X155322309Y-61654359D01*
X155322309Y-61654357D01*
X155278376Y-61433495D01*
X155263022Y-61356304D01*
X155262069Y-61353495D01*
X155227003Y-61250195D01*
X155164949Y-61067391D01*
X155164415Y-61066308D01*
X155164412Y-61066301D01*
X155030545Y-60794846D01*
X155030005Y-60793751D01*
X154953330Y-60678998D01*
X154861167Y-60541067D01*
X154861166Y-60541065D01*
X154860498Y-60540066D01*
X154659328Y-60310676D01*
X154429938Y-60109506D01*
X154176253Y-59939999D01*
X154175158Y-59939459D01*
X153903703Y-59805592D01*
X153903696Y-59805589D01*
X153902613Y-59805055D01*
X153613700Y-59706982D01*
X153502787Y-59684920D01*
X153315647Y-59647695D01*
X153315639Y-59647694D01*
X153314458Y-59647459D01*
X153010006Y-59627504D01*
X152705554Y-59647459D01*
X152704373Y-59647694D01*
X152704365Y-59647695D01*
X152517225Y-59684920D01*
X152406312Y-59706982D01*
X152117399Y-59805055D01*
X152116316Y-59805589D01*
X152116309Y-59805592D01*
X151844854Y-59939459D01*
X151843759Y-59939999D01*
X151590074Y-60109506D01*
X151360684Y-60310676D01*
X151159514Y-60540066D01*
X151158846Y-60541065D01*
X151158845Y-60541067D01*
X151066683Y-60678998D01*
X150990007Y-60793751D01*
X150989467Y-60794846D01*
X150855600Y-61066301D01*
X150855597Y-61066308D01*
X150855063Y-61067391D01*
X150793009Y-61250195D01*
X150757944Y-61353495D01*
X150756990Y-61356304D01*
X150741636Y-61433495D01*
X150697703Y-61654357D01*
X150697703Y-61654359D01*
X150697467Y-61655546D01*
X150677512Y-61959998D01*
X145217499Y-61959998D01*
X145236505Y-61840000D01*
X145216609Y-61714383D01*
X145202405Y-61686505D01*
X145187246Y-61656754D01*
X145158869Y-61601062D01*
X145068938Y-61511131D01*
X144980458Y-61466048D01*
X144958220Y-61454717D01*
X144958218Y-61454716D01*
X144955617Y-61453391D01*
X144830000Y-61433495D01*
X144704383Y-61453391D01*
X144701782Y-61454716D01*
X144701780Y-61454717D01*
X144679542Y-61466048D01*
X144591062Y-61511131D01*
X144501131Y-61601062D01*
X144472754Y-61656754D01*
X144457596Y-61686505D01*
X144443391Y-61714383D01*
X144423495Y-61840000D01*
X130053804Y-61840000D01*
X130086609Y-61775617D01*
X130089540Y-61757115D01*
X130106048Y-61652885D01*
X130106505Y-61650000D01*
X130086609Y-61524383D01*
X130084887Y-61521002D01*
X130040146Y-61433195D01*
X130028869Y-61411062D01*
X129938938Y-61321131D01*
X129858214Y-61280000D01*
X135343495Y-61280000D01*
X135350788Y-61326048D01*
X135355581Y-61356304D01*
X135363391Y-61405617D01*
X135364716Y-61408218D01*
X135364717Y-61408220D01*
X135377828Y-61433952D01*
X135421131Y-61518938D01*
X135511062Y-61608869D01*
X135556027Y-61631780D01*
X135621780Y-61665283D01*
X135621782Y-61665284D01*
X135624383Y-61666609D01*
X135750000Y-61686505D01*
X135752885Y-61686048D01*
X135872732Y-61667066D01*
X135875617Y-61666609D01*
X135878218Y-61665284D01*
X135878220Y-61665283D01*
X135943973Y-61631780D01*
X135988938Y-61608869D01*
X136078869Y-61518938D01*
X136122172Y-61433952D01*
X136135283Y-61408220D01*
X136135284Y-61408218D01*
X136136609Y-61405617D01*
X136144420Y-61356304D01*
X136149212Y-61326048D01*
X136156505Y-61280000D01*
X136151753Y-61250000D01*
X136343495Y-61250000D01*
X136363391Y-61375617D01*
X136364716Y-61378218D01*
X136364717Y-61378220D01*
X136370143Y-61388869D01*
X136421131Y-61488938D01*
X136511062Y-61578869D01*
X136554618Y-61601062D01*
X136621780Y-61635283D01*
X136621782Y-61635284D01*
X136624383Y-61636609D01*
X136627268Y-61637066D01*
X136687192Y-61646557D01*
X136750000Y-61656505D01*
X136752885Y-61656048D01*
X136756055Y-61655546D01*
X136812808Y-61646557D01*
X136872732Y-61637066D01*
X136875617Y-61636609D01*
X136878218Y-61635284D01*
X136878220Y-61635283D01*
X136945382Y-61601062D01*
X136988938Y-61578869D01*
X137078869Y-61488938D01*
X137129857Y-61388869D01*
X137135283Y-61378220D01*
X137135284Y-61378218D01*
X137136609Y-61375617D01*
X137156505Y-61250000D01*
X137136609Y-61124383D01*
X137078869Y-61011062D01*
X136988938Y-60921131D01*
X136896344Y-60873952D01*
X136878220Y-60864717D01*
X136878218Y-60864716D01*
X136875617Y-60863391D01*
X136846821Y-60858830D01*
X136752885Y-60843952D01*
X136750000Y-60843495D01*
X136747115Y-60843952D01*
X136653180Y-60858830D01*
X136624383Y-60863391D01*
X136621782Y-60864716D01*
X136621780Y-60864717D01*
X136603656Y-60873952D01*
X136511062Y-60921131D01*
X136421131Y-61011062D01*
X136363391Y-61124383D01*
X136343495Y-61250000D01*
X136151753Y-61250000D01*
X136137657Y-61161002D01*
X136137066Y-61157268D01*
X136136609Y-61154383D01*
X136078869Y-61041062D01*
X135988938Y-60951131D01*
X135893950Y-60902732D01*
X135878220Y-60894717D01*
X135878218Y-60894716D01*
X135875617Y-60893391D01*
X135750000Y-60873495D01*
X135624383Y-60893391D01*
X135621782Y-60894716D01*
X135621780Y-60894717D01*
X135606050Y-60902732D01*
X135511062Y-60951131D01*
X135421131Y-61041062D01*
X135363391Y-61154383D01*
X135362934Y-61157268D01*
X135362343Y-61161002D01*
X135343495Y-61280000D01*
X129858214Y-61280000D01*
X129852552Y-61277115D01*
X129828220Y-61264717D01*
X129828218Y-61264716D01*
X129825617Y-61263391D01*
X129700000Y-61243495D01*
X129574383Y-61263391D01*
X129571782Y-61264716D01*
X129571780Y-61264717D01*
X129547448Y-61277115D01*
X129461062Y-61321131D01*
X129371131Y-61411062D01*
X129359854Y-61433195D01*
X129315114Y-61521002D01*
X129313391Y-61524383D01*
X129293495Y-61650000D01*
X129089083Y-61650000D01*
X129087066Y-61637268D01*
X129086609Y-61634383D01*
X129070958Y-61603665D01*
X129030195Y-61523665D01*
X129028869Y-61521062D01*
X128938938Y-61431131D01*
X128858597Y-61390195D01*
X128828220Y-61374717D01*
X128828218Y-61374716D01*
X128825617Y-61373391D01*
X128821457Y-61372732D01*
X128762808Y-61363443D01*
X128700000Y-61353495D01*
X128637192Y-61363443D01*
X128578544Y-61372732D01*
X128574383Y-61373391D01*
X128571782Y-61374716D01*
X128571780Y-61374717D01*
X128541403Y-61390195D01*
X128461062Y-61431131D01*
X128371131Y-61521062D01*
X128369805Y-61523665D01*
X128329043Y-61603665D01*
X128313391Y-61634383D01*
X128312934Y-61637268D01*
X128310227Y-61654357D01*
X128293495Y-61760000D01*
X124829385Y-61760000D01*
X124822539Y-61655548D01*
X124822304Y-61654367D01*
X124822303Y-61654359D01*
X124782327Y-61453391D01*
X124763016Y-61356306D01*
X124664943Y-61067393D01*
X124664409Y-61066310D01*
X124664406Y-61066303D01*
X124661298Y-61060000D01*
X126403495Y-61060000D01*
X126423391Y-61185617D01*
X126481131Y-61298938D01*
X126571062Y-61388869D01*
X126614618Y-61411062D01*
X126681780Y-61445283D01*
X126681782Y-61445284D01*
X126684383Y-61446609D01*
X126810000Y-61466505D01*
X126812885Y-61466048D01*
X126932732Y-61447066D01*
X126935617Y-61446609D01*
X126938218Y-61445284D01*
X126938220Y-61445283D01*
X127005382Y-61411062D01*
X127048938Y-61388869D01*
X127138869Y-61298938D01*
X127196609Y-61185617D01*
X127216505Y-61060000D01*
X127196609Y-60934383D01*
X127190909Y-60923195D01*
X127157212Y-60857063D01*
X127138869Y-60821062D01*
X127097807Y-60780000D01*
X137203495Y-60780000D01*
X137223391Y-60905617D01*
X137224716Y-60908218D01*
X137224717Y-60908220D01*
X137231296Y-60921131D01*
X137281131Y-61018938D01*
X137371062Y-61108869D01*
X137401510Y-61124383D01*
X137481780Y-61165283D01*
X137481782Y-61165284D01*
X137484383Y-61166609D01*
X137610000Y-61186505D01*
X137612885Y-61186048D01*
X137615607Y-61185617D01*
X137735617Y-61166609D01*
X137738218Y-61165284D01*
X137738220Y-61165283D01*
X137818490Y-61124383D01*
X137848938Y-61108869D01*
X137938869Y-61018938D01*
X137988704Y-60921131D01*
X137989280Y-60920000D01*
X139503495Y-60920000D01*
X139503952Y-60922885D01*
X139522670Y-61041062D01*
X139523391Y-61045617D01*
X139524716Y-61048218D01*
X139524717Y-61048220D01*
X139532189Y-61062885D01*
X139581131Y-61158938D01*
X139671062Y-61248869D01*
X139726498Y-61277115D01*
X139781780Y-61305283D01*
X139781782Y-61305284D01*
X139784383Y-61306609D01*
X139910000Y-61326505D01*
X139912885Y-61326048D01*
X140032732Y-61307066D01*
X140035617Y-61306609D01*
X140038218Y-61305284D01*
X140038220Y-61305283D01*
X140093502Y-61277115D01*
X140148938Y-61248869D01*
X140238869Y-61158938D01*
X140287811Y-61062885D01*
X140295283Y-61048220D01*
X140295284Y-61048218D01*
X140296609Y-61045617D01*
X140297331Y-61041062D01*
X140316048Y-60922885D01*
X140316505Y-60920000D01*
X140296609Y-60794383D01*
X140290751Y-60782885D01*
X140240195Y-60683665D01*
X140238869Y-60681062D01*
X140148938Y-60591131D01*
X140050682Y-60541067D01*
X140038220Y-60534717D01*
X140038218Y-60534716D01*
X140035617Y-60533391D01*
X139910000Y-60513495D01*
X139784383Y-60533391D01*
X139781782Y-60534716D01*
X139781780Y-60534717D01*
X139769318Y-60541067D01*
X139671062Y-60591131D01*
X139581131Y-60681062D01*
X139579805Y-60683665D01*
X139529250Y-60782885D01*
X139523391Y-60794383D01*
X139503495Y-60920000D01*
X137989280Y-60920000D01*
X137995283Y-60908220D01*
X137995284Y-60908218D01*
X137996609Y-60905617D01*
X138016505Y-60780000D01*
X137996609Y-60654383D01*
X137938869Y-60541062D01*
X137848938Y-60451131D01*
X137792277Y-60422261D01*
X137738220Y-60394717D01*
X137738218Y-60394716D01*
X137735617Y-60393391D01*
X137610000Y-60373495D01*
X137484383Y-60393391D01*
X137481782Y-60394716D01*
X137481780Y-60394717D01*
X137427722Y-60422261D01*
X137371062Y-60451131D01*
X137281131Y-60541062D01*
X137223391Y-60654383D01*
X137203495Y-60780000D01*
X127097807Y-60780000D01*
X127048938Y-60731131D01*
X126955781Y-60683665D01*
X126938220Y-60674717D01*
X126938218Y-60674716D01*
X126935617Y-60673391D01*
X126810000Y-60653495D01*
X126684383Y-60673391D01*
X126681782Y-60674716D01*
X126681780Y-60674717D01*
X126664219Y-60683665D01*
X126571062Y-60731131D01*
X126481131Y-60821062D01*
X126462788Y-60857063D01*
X126429092Y-60923195D01*
X126423391Y-60934383D01*
X126403495Y-61060000D01*
X124661298Y-61060000D01*
X124530539Y-60794848D01*
X124530538Y-60794846D01*
X124529999Y-60793753D01*
X124529322Y-60792739D01*
X124362895Y-60543665D01*
X124360492Y-60540068D01*
X124159322Y-60310678D01*
X123929932Y-60109508D01*
X123676247Y-59940001D01*
X123675148Y-59939459D01*
X123403697Y-59805594D01*
X123403690Y-59805591D01*
X123402607Y-59805057D01*
X123113694Y-59706984D01*
X122960466Y-59676505D01*
X122815641Y-59647697D01*
X122815633Y-59647696D01*
X122814452Y-59647461D01*
X122510000Y-59627506D01*
X122205548Y-59647461D01*
X122204367Y-59647696D01*
X122204359Y-59647697D01*
X122059534Y-59676505D01*
X121906306Y-59706984D01*
X121617393Y-59805057D01*
X121616310Y-59805591D01*
X121616303Y-59805594D01*
X121344852Y-59939459D01*
X121343753Y-59940001D01*
X121090068Y-60109508D01*
X120860678Y-60310678D01*
X120659508Y-60540068D01*
X120657105Y-60543665D01*
X120490679Y-60792739D01*
X120490001Y-60793753D01*
X120489462Y-60794846D01*
X120489461Y-60794848D01*
X120355594Y-61066303D01*
X120355591Y-61066310D01*
X120355057Y-61067393D01*
X120256984Y-61356306D01*
X120237673Y-61453391D01*
X120197697Y-61654359D01*
X120197696Y-61654367D01*
X120197461Y-61655548D01*
X120177506Y-61960000D01*
X118715656Y-61960000D01*
X118712548Y-61946372D01*
X118711664Y-61936304D01*
X118711675Y-61936099D01*
X118725730Y-61650000D01*
X118728707Y-61589403D01*
X118729064Y-61585780D01*
X118783238Y-61220560D01*
X118783948Y-61216989D01*
X118807797Y-61121780D01*
X118873664Y-60858823D01*
X118874719Y-60855346D01*
X118878960Y-60843495D01*
X118999106Y-60507710D01*
X119000499Y-60504347D01*
X119158360Y-60170578D01*
X119160076Y-60167367D01*
X119349896Y-59850671D01*
X119351919Y-59847644D01*
X119571860Y-59551089D01*
X119574170Y-59548274D01*
X119799192Y-59300000D01*
X119822129Y-59274693D01*
X119824698Y-59272124D01*
X119827042Y-59270000D01*
X119838075Y-59260000D01*
X130323495Y-59260000D01*
X130343391Y-59385617D01*
X130344716Y-59388218D01*
X130344717Y-59388220D01*
X130362302Y-59422732D01*
X130401131Y-59498938D01*
X130491062Y-59588869D01*
X130510688Y-59598869D01*
X130601780Y-59645283D01*
X130601782Y-59645284D01*
X130604383Y-59646609D01*
X130607268Y-59647066D01*
X130611252Y-59647697D01*
X130730000Y-59666505D01*
X130732885Y-59666048D01*
X130852732Y-59647066D01*
X130855617Y-59646609D01*
X130858218Y-59645284D01*
X130858220Y-59645283D01*
X130949312Y-59598869D01*
X130968938Y-59588869D01*
X131058869Y-59498938D01*
X131097698Y-59422732D01*
X131115283Y-59388220D01*
X131115284Y-59388218D01*
X131116609Y-59385617D01*
X131134921Y-59270000D01*
X139473495Y-59270000D01*
X139493391Y-59395617D01*
X139551131Y-59508938D01*
X139641062Y-59598869D01*
X139695889Y-59626805D01*
X139751780Y-59655283D01*
X139751782Y-59655284D01*
X139754383Y-59656609D01*
X139880000Y-59676505D01*
X139882885Y-59676048D01*
X140002732Y-59657066D01*
X140005617Y-59656609D01*
X140008218Y-59655284D01*
X140008220Y-59655283D01*
X140064111Y-59626805D01*
X140118938Y-59598869D01*
X140208869Y-59508938D01*
X140266609Y-59395617D01*
X140281753Y-59300000D01*
X146303495Y-59300000D01*
X146323391Y-59425617D01*
X146381131Y-59538938D01*
X146471062Y-59628869D01*
X146505879Y-59646609D01*
X146581780Y-59685283D01*
X146581782Y-59685284D01*
X146584383Y-59686609D01*
X146710000Y-59706505D01*
X146712885Y-59706048D01*
X146832732Y-59687066D01*
X146835617Y-59686609D01*
X146838218Y-59685284D01*
X146838220Y-59685283D01*
X146914121Y-59646609D01*
X146948938Y-59628869D01*
X147038869Y-59538938D01*
X147096609Y-59425617D01*
X147116505Y-59300000D01*
X147096609Y-59174383D01*
X147038869Y-59061062D01*
X146948938Y-58971131D01*
X146887457Y-58939805D01*
X146838220Y-58914717D01*
X146838218Y-58914716D01*
X146835617Y-58913391D01*
X146710000Y-58893495D01*
X146584383Y-58913391D01*
X146581782Y-58914716D01*
X146581780Y-58914717D01*
X146532543Y-58939805D01*
X146471062Y-58971131D01*
X146381131Y-59061062D01*
X146323391Y-59174383D01*
X146303495Y-59300000D01*
X140281753Y-59300000D01*
X140286505Y-59270000D01*
X140266609Y-59144383D01*
X140260188Y-59131780D01*
X140210195Y-59033665D01*
X140208869Y-59031062D01*
X140118938Y-58941131D01*
X140026344Y-58893952D01*
X140008220Y-58884717D01*
X140008218Y-58884716D01*
X140005617Y-58883391D01*
X139880000Y-58863495D01*
X139754383Y-58883391D01*
X139751782Y-58884716D01*
X139751780Y-58884717D01*
X139733656Y-58893952D01*
X139641062Y-58941131D01*
X139551131Y-59031062D01*
X139549805Y-59033665D01*
X139499813Y-59131780D01*
X139493391Y-59144383D01*
X139473495Y-59270000D01*
X131134921Y-59270000D01*
X131136505Y-59260000D01*
X131116609Y-59134383D01*
X131058869Y-59021062D01*
X130968938Y-58931131D01*
X130875243Y-58883391D01*
X130858220Y-58874717D01*
X130858218Y-58874716D01*
X130855617Y-58873391D01*
X130730000Y-58853495D01*
X130604383Y-58873391D01*
X130601782Y-58874716D01*
X130601780Y-58874717D01*
X130584757Y-58883391D01*
X130491062Y-58931131D01*
X130401131Y-59021062D01*
X130343391Y-59134383D01*
X130323495Y-59260000D01*
X119838075Y-59260000D01*
X120087798Y-59033665D01*
X120098274Y-59024170D01*
X120101089Y-59021860D01*
X120397644Y-58801919D01*
X120400671Y-58799896D01*
X120717367Y-58610076D01*
X120720578Y-58608360D01*
X121054347Y-58450499D01*
X121057710Y-58449106D01*
X121237298Y-58384848D01*
X121405353Y-58324717D01*
X121408823Y-58323664D01*
X121766991Y-58233948D01*
X121770558Y-58233238D01*
X121847884Y-58221768D01*
X122135780Y-58179064D01*
X122139403Y-58178707D01*
X122460954Y-58162909D01*
X122486099Y-58161674D01*
X122496234Y-58162573D01*
X122509641Y-58165656D01*
X122513716Y-58164734D01*
X122513717Y-58164734D01*
X122528383Y-58161415D01*
X122536571Y-58160500D01*
X152983010Y-58160500D01*
X152991324Y-58161444D01*
G37*
%TD.AperFunction*%
%TD*%
M02*
