%TF.GenerationSoftware,KiCad,Pcbnew,(6.0.4)*%
%TF.CreationDate,2023-01-18T12:07:05-06:00*%
%TF.ProjectId,Flight_Controller,466c6967-6874-45f4-936f-6e74726f6c6c,rev?*%
%TF.SameCoordinates,Original*%
%TF.FileFunction,Paste,Bot*%
%TF.FilePolarity,Positive*%
%FSLAX46Y46*%
G04 Gerber Fmt 4.6, Leading zero omitted, Abs format (unit mm)*
G04 Created by KiCad (PCBNEW (6.0.4)) date 2023-01-18 12:07:05*
%MOMM*%
%LPD*%
G01*
G04 APERTURE LIST*
G04 Aperture macros list*
%AMRoundRect*
0 Rectangle with rounded corners*
0 $1 Rounding radius*
0 $2 $3 $4 $5 $6 $7 $8 $9 X,Y pos of 4 corners*
0 Add a 4 corners polygon primitive as box body*
4,1,4,$2,$3,$4,$5,$6,$7,$8,$9,$2,$3,0*
0 Add four circle primitives for the rounded corners*
1,1,$1+$1,$2,$3*
1,1,$1+$1,$4,$5*
1,1,$1+$1,$6,$7*
1,1,$1+$1,$8,$9*
0 Add four rect primitives between the rounded corners*
20,1,$1+$1,$2,$3,$4,$5,0*
20,1,$1+$1,$4,$5,$6,$7,0*
20,1,$1+$1,$6,$7,$8,$9,0*
20,1,$1+$1,$8,$9,$2,$3,0*%
G04 Aperture macros list end*
%ADD10C,0.010000*%
%ADD11RoundRect,0.079500X0.079500X0.100500X-0.079500X0.100500X-0.079500X-0.100500X0.079500X-0.100500X0*%
%ADD12RoundRect,0.250000X0.475000X-0.250000X0.475000X0.250000X-0.475000X0.250000X-0.475000X-0.250000X0*%
%ADD13RoundRect,0.150000X-0.150000X-0.625000X0.150000X-0.625000X0.150000X0.625000X-0.150000X0.625000X0*%
%ADD14RoundRect,0.250000X-0.350000X-0.650000X0.350000X-0.650000X0.350000X0.650000X-0.350000X0.650000X0*%
%ADD15RoundRect,0.079500X-0.079500X-0.100500X0.079500X-0.100500X0.079500X0.100500X-0.079500X0.100500X0*%
%ADD16RoundRect,0.135000X0.135000X0.185000X-0.135000X0.185000X-0.135000X-0.185000X0.135000X-0.185000X0*%
%ADD17RoundRect,0.225000X0.225000X0.250000X-0.225000X0.250000X-0.225000X-0.250000X0.225000X-0.250000X0*%
%ADD18R,1.200000X1.400000*%
%ADD19RoundRect,0.079500X0.100500X-0.079500X0.100500X0.079500X-0.100500X0.079500X-0.100500X-0.079500X0*%
%ADD20RoundRect,0.250000X-0.250000X-0.475000X0.250000X-0.475000X0.250000X0.475000X-0.250000X0.475000X0*%
%ADD21RoundRect,0.150000X0.150000X-0.587500X0.150000X0.587500X-0.150000X0.587500X-0.150000X-0.587500X0*%
%ADD22RoundRect,0.135000X-0.135000X-0.185000X0.135000X-0.185000X0.135000X0.185000X-0.135000X0.185000X0*%
%ADD23RoundRect,0.026400X-0.443600X-0.193600X0.443600X-0.193600X0.443600X0.193600X-0.443600X0.193600X0*%
%ADD24RoundRect,0.150000X-0.625000X0.150000X-0.625000X-0.150000X0.625000X-0.150000X0.625000X0.150000X0*%
%ADD25RoundRect,0.250000X-0.650000X0.350000X-0.650000X-0.350000X0.650000X-0.350000X0.650000X0.350000X0*%
%ADD26RoundRect,0.140000X-0.170000X0.140000X-0.170000X-0.140000X0.170000X-0.140000X0.170000X0.140000X0*%
%ADD27RoundRect,0.079500X-0.100500X0.079500X-0.100500X-0.079500X0.100500X-0.079500X0.100500X0.079500X0*%
%ADD28R,1.500000X0.700000*%
%ADD29RoundRect,0.140000X0.170000X-0.140000X0.170000X0.140000X-0.170000X0.140000X-0.170000X-0.140000X0*%
%ADD30R,1.500000X2.000000*%
%ADD31R,3.800000X2.000000*%
%ADD32RoundRect,0.150000X0.150000X0.625000X-0.150000X0.625000X-0.150000X-0.625000X0.150000X-0.625000X0*%
%ADD33RoundRect,0.250000X0.350000X0.650000X-0.350000X0.650000X-0.350000X-0.650000X0.350000X-0.650000X0*%
%ADD34RoundRect,0.150000X0.625000X-0.150000X0.625000X0.150000X-0.625000X0.150000X-0.625000X-0.150000X0*%
%ADD35RoundRect,0.250000X0.650000X-0.350000X0.650000X0.350000X-0.650000X0.350000X-0.650000X-0.350000X0*%
%ADD36R,1.200000X0.900000*%
%ADD37RoundRect,0.225000X0.250000X-0.225000X0.250000X0.225000X-0.250000X0.225000X-0.250000X-0.225000X0*%
%ADD38RoundRect,0.250000X-0.325000X-1.100000X0.325000X-1.100000X0.325000X1.100000X-0.325000X1.100000X0*%
%ADD39R,1.000000X0.700000*%
%ADD40R,0.600000X0.700000*%
%ADD41RoundRect,0.020500X0.719500X0.184500X-0.719500X0.184500X-0.719500X-0.184500X0.719500X-0.184500X0*%
%ADD42R,1.150000X0.300000*%
%ADD43R,2.000000X2.180000*%
%ADD44RoundRect,0.031500X0.263500X0.143500X-0.263500X0.143500X-0.263500X-0.143500X0.263500X-0.143500X0*%
%ADD45RoundRect,0.031500X0.143500X-0.263500X0.143500X0.263500X-0.143500X0.263500X-0.143500X-0.263500X0*%
%ADD46RoundRect,0.031500X-0.263500X-0.143500X0.263500X-0.143500X0.263500X0.143500X-0.263500X0.143500X0*%
%ADD47RoundRect,0.031500X-0.143500X0.263500X-0.143500X-0.263500X0.143500X-0.263500X0.143500X0.263500X0*%
G04 APERTURE END LIST*
%TO.C,U4*%
G36*
X146620000Y-86195000D02*
G01*
X145610000Y-86195000D01*
X145610000Y-84735000D01*
X146620000Y-84735000D01*
X146620000Y-86195000D01*
G37*
D10*
X146620000Y-86195000D02*
X145610000Y-86195000D01*
X145610000Y-84735000D01*
X146620000Y-84735000D01*
X146620000Y-86195000D01*
G36*
X146620000Y-88115000D02*
G01*
X145610000Y-88115000D01*
X145610000Y-86655000D01*
X146620000Y-86655000D01*
X146620000Y-88115000D01*
G37*
X146620000Y-88115000D02*
X145610000Y-88115000D01*
X145610000Y-86655000D01*
X146620000Y-86655000D01*
X146620000Y-88115000D01*
G36*
X145150000Y-88115000D02*
G01*
X144140000Y-88115000D01*
X144140000Y-86655000D01*
X145150000Y-86655000D01*
X145150000Y-88115000D01*
G37*
X145150000Y-88115000D02*
X144140000Y-88115000D01*
X144140000Y-86655000D01*
X145150000Y-86655000D01*
X145150000Y-88115000D01*
G36*
X145150000Y-86195000D02*
G01*
X144140000Y-86195000D01*
X144140000Y-84735000D01*
X145150000Y-84735000D01*
X145150000Y-86195000D01*
G37*
X145150000Y-86195000D02*
X144140000Y-86195000D01*
X144140000Y-84735000D01*
X145150000Y-84735000D01*
X145150000Y-86195000D01*
%TO.C,U2*%
G36*
X130748000Y-85135000D02*
G01*
X129322000Y-85135000D01*
X129322000Y-81785000D01*
X130748000Y-81785000D01*
X130748000Y-85135000D01*
G37*
X130748000Y-85135000D02*
X129322000Y-85135000D01*
X129322000Y-81785000D01*
X130748000Y-81785000D01*
X130748000Y-85135000D01*
%TD*%
D11*
%TO.C,C10*%
X136525000Y-79750000D03*
X137215000Y-79750000D03*
%TD*%
D12*
%TO.C,C22*%
X137360000Y-69120000D03*
X137360000Y-67220000D03*
%TD*%
D11*
%TO.C,C1*%
X136525000Y-80500000D03*
X137215000Y-80500000D03*
%TD*%
D13*
%TO.C,J5*%
X135750000Y-62925000D03*
X136750000Y-62925000D03*
X137750000Y-62925000D03*
X138750000Y-62925000D03*
X139750000Y-62925000D03*
X140750000Y-62925000D03*
X141750000Y-62925000D03*
X142750000Y-62925000D03*
D14*
X144050000Y-59050000D03*
X134450000Y-59050000D03*
%TD*%
D15*
%TO.C,C2*%
X137330000Y-85510000D03*
X136640000Y-85510000D03*
%TD*%
D16*
%TO.C,R20*%
X130840000Y-71570000D03*
X129820000Y-71570000D03*
%TD*%
D11*
%TO.C,R1*%
X125120000Y-82475000D03*
X124430000Y-82475000D03*
%TD*%
%TO.C,R5*%
X149645000Y-90050000D03*
X148955000Y-90050000D03*
%TD*%
D17*
%TO.C,C27*%
X131475000Y-69075000D03*
X129925000Y-69075000D03*
%TD*%
D11*
%TO.C,C8*%
X125805000Y-81185000D03*
X125115000Y-81185000D03*
%TD*%
D13*
%TO.C,J8*%
X126700000Y-62925000D03*
X127700000Y-62925000D03*
X128700000Y-62925000D03*
X129700000Y-62925000D03*
X130700000Y-62925000D03*
X131700000Y-62925000D03*
D14*
X133000000Y-59050000D03*
X125400000Y-59050000D03*
%TD*%
D18*
%TO.C,Y1*%
X137860000Y-81910000D03*
X137860000Y-84110000D03*
X136160000Y-84110000D03*
X136160000Y-81910000D03*
%TD*%
D19*
%TO.C,R25*%
X146280000Y-61865000D03*
X146280000Y-61175000D03*
%TD*%
D20*
%TO.C,C15*%
X145310000Y-64530000D03*
X147210000Y-64530000D03*
%TD*%
D21*
%TO.C,Q1*%
X147210000Y-73807500D03*
X145310000Y-73807500D03*
X146260000Y-71932500D03*
%TD*%
D15*
%TO.C,C3*%
X124430000Y-83175000D03*
X125120000Y-83175000D03*
%TD*%
D22*
%TO.C,R19*%
X129830000Y-72470000D03*
X130850000Y-72470000D03*
%TD*%
D23*
%TO.C,U4*%
X141485000Y-88330000D03*
X141485000Y-87060000D03*
X141485000Y-85790000D03*
X141485000Y-84520000D03*
X149275000Y-84520000D03*
X149275000Y-85790000D03*
X149275000Y-87060000D03*
X149275000Y-88330000D03*
%TD*%
D24*
%TO.C,J2*%
X152160000Y-86035000D03*
X152160000Y-87035000D03*
X152160000Y-88035000D03*
D25*
X156035000Y-89335000D03*
X156035000Y-84735000D03*
%TD*%
D26*
%TO.C,C43*%
X122500000Y-79820000D03*
X122500000Y-80780000D03*
%TD*%
D27*
%TO.C,R3*%
X124460000Y-80440000D03*
X124460000Y-81130000D03*
%TD*%
%TO.C,C6*%
X134260000Y-81205000D03*
X134260000Y-80515000D03*
%TD*%
D11*
%TO.C,R2*%
X125115000Y-85085000D03*
X125805000Y-85085000D03*
%TD*%
%TO.C,C5*%
X125115000Y-80435000D03*
X125805000Y-80435000D03*
%TD*%
D27*
%TO.C,C25*%
X129800000Y-70080000D03*
X129800000Y-70770000D03*
%TD*%
D11*
%TO.C,R10*%
X151505000Y-82475000D03*
X152195000Y-82475000D03*
%TD*%
D28*
%TO.C,SW1*%
X121660000Y-77260000D03*
X121660000Y-74260000D03*
X121660000Y-72760000D03*
%TD*%
D24*
%TO.C,J1*%
X152160000Y-66310000D03*
X152160000Y-67310000D03*
X152160000Y-68310000D03*
D25*
X156035000Y-69610000D03*
X156035000Y-65010000D03*
%TD*%
D29*
%TO.C,C4*%
X134400000Y-77605000D03*
X134400000Y-76645000D03*
%TD*%
D30*
%TO.C,U5*%
X139390000Y-66730000D03*
X141690000Y-66730000D03*
D31*
X141690000Y-73030000D03*
D30*
X143990000Y-66730000D03*
%TD*%
D32*
%TO.C,J6*%
X129725000Y-91500000D03*
X128725000Y-91500000D03*
X127725000Y-91500000D03*
X126725000Y-91500000D03*
D33*
X131025000Y-95375000D03*
X125425000Y-95375000D03*
%TD*%
D27*
%TO.C,C9*%
X125810000Y-83765000D03*
X125810000Y-84455000D03*
%TD*%
D34*
%TO.C,J3*%
X123385000Y-68310000D03*
X123385000Y-67310000D03*
X123385000Y-66310000D03*
D35*
X119510000Y-65010000D03*
X119510000Y-69610000D03*
%TD*%
D11*
%TO.C,R22*%
X149725000Y-69640000D03*
X149035000Y-69640000D03*
%TD*%
D36*
%TO.C,D1*%
X146580000Y-66620000D03*
X146580000Y-69920000D03*
%TD*%
D15*
%TO.C,R9*%
X152270000Y-70800000D03*
X151580000Y-70800000D03*
%TD*%
D22*
%TO.C,R26*%
X122940000Y-74275000D03*
X123960000Y-74275000D03*
%TD*%
D37*
%TO.C,C7*%
X133175000Y-77575000D03*
X133175000Y-76025000D03*
%TD*%
D22*
%TO.C,R17*%
X130540000Y-70150000D03*
X131560000Y-70150000D03*
%TD*%
D38*
%TO.C,C29*%
X125600000Y-71300000D03*
X128550000Y-71300000D03*
%TD*%
D29*
%TO.C,C14*%
X150475000Y-89955000D03*
X150475000Y-88995000D03*
%TD*%
D27*
%TO.C,C11*%
X125825000Y-82520000D03*
X125825000Y-81830000D03*
%TD*%
%TO.C,R24*%
X145620000Y-61865000D03*
X145620000Y-61175000D03*
%TD*%
D38*
%TO.C,C31*%
X125600000Y-74250000D03*
X128550000Y-74250000D03*
%TD*%
D34*
%TO.C,J4*%
X123450000Y-87730000D03*
X123450000Y-86730000D03*
X123450000Y-85730000D03*
D35*
X119575000Y-84430000D03*
X119575000Y-89030000D03*
%TD*%
D32*
%TO.C,J11*%
X147325000Y-91500000D03*
X146325000Y-91500000D03*
X145325000Y-91500000D03*
X144325000Y-91500000D03*
D33*
X143025000Y-95375000D03*
X148625000Y-95375000D03*
%TD*%
D19*
%TO.C,R8*%
X140425000Y-88930000D03*
X140425000Y-89620000D03*
%TD*%
D39*
%TO.C,D2*%
X146770000Y-77620000D03*
D40*
X145070000Y-77620000D03*
X145070000Y-75620000D03*
X146970000Y-75620000D03*
%TD*%
D41*
%TO.C,U2*%
X132910000Y-79235000D03*
X132910000Y-79885000D03*
X132910000Y-80535000D03*
X132910000Y-81185000D03*
X132910000Y-81835000D03*
X132910000Y-82485000D03*
X132910000Y-83135000D03*
X132910000Y-83785000D03*
X132910000Y-84435000D03*
X132910000Y-85085000D03*
X132910000Y-85735000D03*
X132910000Y-86385000D03*
X132910000Y-87035000D03*
X132910000Y-87685000D03*
X127160000Y-87685000D03*
X127160000Y-87035000D03*
X127160000Y-86385000D03*
X127160000Y-85735000D03*
X127160000Y-85085000D03*
X127160000Y-84435000D03*
X127160000Y-83785000D03*
X127160000Y-83135000D03*
X127160000Y-82485000D03*
X127160000Y-81835000D03*
X127160000Y-81185000D03*
X127160000Y-80535000D03*
X127160000Y-79885000D03*
X127160000Y-79235000D03*
%TD*%
D15*
%TO.C,R21*%
X149035000Y-68990000D03*
X149725000Y-68990000D03*
%TD*%
D32*
%TO.C,J7*%
X139530000Y-91490000D03*
X138530000Y-91490000D03*
X137530000Y-91490000D03*
X136530000Y-91490000D03*
X135530000Y-91490000D03*
X134530000Y-91490000D03*
D33*
X133230000Y-95365000D03*
X140830000Y-95365000D03*
%TD*%
D42*
%TO.C,P1*%
X149392000Y-73290000D03*
X149392000Y-74090000D03*
X149392000Y-75390000D03*
X149392000Y-76390000D03*
X149392000Y-76890000D03*
X149392000Y-77890000D03*
X149392000Y-79190000D03*
X149392000Y-79990000D03*
X149392000Y-79690000D03*
X149392000Y-78890000D03*
X149392000Y-78390000D03*
X149392000Y-77390000D03*
X149392000Y-75890000D03*
X149392000Y-74890000D03*
X149392000Y-74390000D03*
X149392000Y-73590000D03*
D43*
X153897000Y-71530000D03*
X153897000Y-81750000D03*
X149967000Y-71530000D03*
X149967000Y-81750000D03*
%TD*%
D27*
%TO.C,R4*%
X140400000Y-85820000D03*
X140400000Y-85130000D03*
%TD*%
D19*
%TO.C,R28*%
X148140000Y-68745000D03*
X148140000Y-69435000D03*
%TD*%
D44*
%TO.C,U1*%
X137777500Y-77100000D03*
X137777500Y-77600000D03*
X137777500Y-78100000D03*
X137777500Y-78600000D03*
D45*
X137112500Y-78765000D03*
X136612500Y-78765000D03*
X136112500Y-78765000D03*
D46*
X135447500Y-78600000D03*
X135447500Y-78100000D03*
X135447500Y-77600000D03*
X135447500Y-77100000D03*
D47*
X136112500Y-76935000D03*
X136612500Y-76935000D03*
X137112500Y-76935000D03*
%TD*%
M02*
