%TF.GenerationSoftware,KiCad,Pcbnew,(6.0.4)*%
%TF.CreationDate,2023-01-18T12:07:05-06:00*%
%TF.ProjectId,Flight_Controller,466c6967-6874-45f4-936f-6e74726f6c6c,rev?*%
%TF.SameCoordinates,Original*%
%TF.FileFunction,Soldermask,Bot*%
%TF.FilePolarity,Negative*%
%FSLAX46Y46*%
G04 Gerber Fmt 4.6, Leading zero omitted, Abs format (unit mm)*
G04 Created by KiCad (PCBNEW (6.0.4)) date 2023-01-18 12:07:05*
%MOMM*%
%LPD*%
G01*
G04 APERTURE LIST*
G04 Aperture macros list*
%AMRoundRect*
0 Rectangle with rounded corners*
0 $1 Rounding radius*
0 $2 $3 $4 $5 $6 $7 $8 $9 X,Y pos of 4 corners*
0 Add a 4 corners polygon primitive as box body*
4,1,4,$2,$3,$4,$5,$6,$7,$8,$9,$2,$3,0*
0 Add four circle primitives for the rounded corners*
1,1,$1+$1,$2,$3*
1,1,$1+$1,$4,$5*
1,1,$1+$1,$6,$7*
1,1,$1+$1,$8,$9*
0 Add four rect primitives between the rounded corners*
20,1,$1+$1,$2,$3,$4,$5,0*
20,1,$1+$1,$4,$5,$6,$7,0*
20,1,$1+$1,$6,$7,$8,$9,0*
20,1,$1+$1,$8,$9,$2,$3,0*%
%AMFreePoly0*
4,1,6,1.000000,0.000000,0.500000,-0.750000,-0.500000,-0.750000,-0.500000,0.750000,0.500000,0.750000,1.000000,0.000000,1.000000,0.000000,$1*%
%AMFreePoly1*
4,1,6,0.500000,-0.750000,-0.650000,-0.750000,-0.150000,0.000000,-0.650000,0.750000,0.500000,0.750000,0.500000,-0.750000,0.500000,-0.750000,$1*%
G04 Aperture macros list end*
%ADD10C,0.010000*%
%ADD11C,0.700000*%
%ADD12C,4.400000*%
%ADD13C,0.990600*%
%ADD14RoundRect,0.100000X0.130000X0.100000X-0.130000X0.100000X-0.130000X-0.100000X0.130000X-0.100000X0*%
%ADD15RoundRect,0.250000X0.475000X-0.250000X0.475000X0.250000X-0.475000X0.250000X-0.475000X-0.250000X0*%
%ADD16RoundRect,0.150000X-0.150000X-0.625000X0.150000X-0.625000X0.150000X0.625000X-0.150000X0.625000X0*%
%ADD17RoundRect,0.250000X-0.350000X-0.650000X0.350000X-0.650000X0.350000X0.650000X-0.350000X0.650000X0*%
%ADD18RoundRect,0.100000X-0.130000X-0.100000X0.130000X-0.100000X0.130000X0.100000X-0.130000X0.100000X0*%
%ADD19RoundRect,0.135000X0.135000X0.185000X-0.135000X0.185000X-0.135000X-0.185000X0.135000X-0.185000X0*%
%ADD20RoundRect,0.225000X0.225000X0.250000X-0.225000X0.250000X-0.225000X-0.250000X0.225000X-0.250000X0*%
%ADD21R,1.200000X1.400000*%
%ADD22RoundRect,0.100000X0.100000X-0.130000X0.100000X0.130000X-0.100000X0.130000X-0.100000X-0.130000X0*%
%ADD23RoundRect,0.250000X-0.250000X-0.475000X0.250000X-0.475000X0.250000X0.475000X-0.250000X0.475000X0*%
%ADD24RoundRect,0.150000X0.150000X-0.587500X0.150000X0.587500X-0.150000X0.587500X-0.150000X-0.587500X0*%
%ADD25RoundRect,0.135000X-0.135000X-0.185000X0.135000X-0.185000X0.135000X0.185000X-0.135000X0.185000X0*%
%ADD26RoundRect,0.026400X-0.443600X-0.193600X0.443600X-0.193600X0.443600X0.193600X-0.443600X0.193600X0*%
%ADD27R,3.400000X4.300000*%
%ADD28RoundRect,0.150000X-0.625000X0.150000X-0.625000X-0.150000X0.625000X-0.150000X0.625000X0.150000X0*%
%ADD29RoundRect,0.250000X-0.650000X0.350000X-0.650000X-0.350000X0.650000X-0.350000X0.650000X0.350000X0*%
%ADD30RoundRect,0.140000X-0.170000X0.140000X-0.170000X-0.140000X0.170000X-0.140000X0.170000X0.140000X0*%
%ADD31RoundRect,0.100000X-0.100000X0.130000X-0.100000X-0.130000X0.100000X-0.130000X0.100000X0.130000X0*%
%ADD32C,0.900000*%
%ADD33R,1.500000X0.700000*%
%ADD34RoundRect,0.140000X0.170000X-0.140000X0.170000X0.140000X-0.170000X0.140000X-0.170000X-0.140000X0*%
%ADD35R,1.500000X2.000000*%
%ADD36R,3.800000X2.000000*%
%ADD37RoundRect,0.150000X0.150000X0.625000X-0.150000X0.625000X-0.150000X-0.625000X0.150000X-0.625000X0*%
%ADD38RoundRect,0.250000X0.350000X0.650000X-0.350000X0.650000X-0.350000X-0.650000X0.350000X-0.650000X0*%
%ADD39RoundRect,0.150000X0.625000X-0.150000X0.625000X0.150000X-0.625000X0.150000X-0.625000X-0.150000X0*%
%ADD40RoundRect,0.250000X0.650000X-0.350000X0.650000X0.350000X-0.650000X0.350000X-0.650000X-0.350000X0*%
%ADD41R,1.200000X0.900000*%
%ADD42RoundRect,0.225000X0.250000X-0.225000X0.250000X0.225000X-0.250000X0.225000X-0.250000X-0.225000X0*%
%ADD43RoundRect,0.250000X-0.325000X-1.100000X0.325000X-1.100000X0.325000X1.100000X-0.325000X1.100000X0*%
%ADD44R,1.000000X0.700000*%
%ADD45R,0.600000X0.700000*%
%ADD46FreePoly0,90.000000*%
%ADD47FreePoly1,90.000000*%
%ADD48RoundRect,0.020500X0.719500X0.184500X-0.719500X0.184500X-0.719500X-0.184500X0.719500X-0.184500X0*%
%ADD49R,2.850000X6.700000*%
%ADD50C,0.650000*%
%ADD51R,1.150000X0.300000*%
%ADD52R,2.000000X2.180000*%
G04 APERTURE END LIST*
%TO.C,U1*%
G36*
X138010500Y-76876000D02*
G01*
X138017500Y-76877000D01*
X138029500Y-76879000D01*
X138036500Y-76881000D01*
X138042500Y-76883000D01*
X138060500Y-76892000D01*
X138065500Y-76895000D01*
X138070500Y-76899000D01*
X138076500Y-76903000D01*
X138081500Y-76907000D01*
X138085500Y-76912000D01*
X138090500Y-76916000D01*
X138094500Y-76921000D01*
X138098500Y-76927000D01*
X138102500Y-76932000D01*
X138105500Y-76938000D01*
X138108500Y-76943000D01*
X138114500Y-76955000D01*
X138116500Y-76961000D01*
X138118500Y-76968000D01*
X138120500Y-76980000D01*
X138121500Y-76987000D01*
X138122500Y-76993000D01*
X138122500Y-77207000D01*
X138121500Y-77213000D01*
X138120500Y-77220000D01*
X138118500Y-77232000D01*
X138116500Y-77239000D01*
X138114500Y-77245000D01*
X138108500Y-77257000D01*
X138105500Y-77262000D01*
X138102500Y-77268000D01*
X138098500Y-77273000D01*
X138094500Y-77279000D01*
X138090500Y-77284000D01*
X138085500Y-77288000D01*
X138081500Y-77293000D01*
X138076500Y-77297000D01*
X138070500Y-77301000D01*
X138065500Y-77305000D01*
X138060500Y-77308000D01*
X138042500Y-77317000D01*
X138036500Y-77319000D01*
X138029500Y-77321000D01*
X138017500Y-77323000D01*
X138010500Y-77324000D01*
X138004500Y-77325000D01*
X137550500Y-77325000D01*
X137544500Y-77324000D01*
X137537500Y-77323000D01*
X137525500Y-77321000D01*
X137518500Y-77319000D01*
X137512500Y-77317000D01*
X137494500Y-77308000D01*
X137489500Y-77305000D01*
X137484500Y-77301000D01*
X137478500Y-77297000D01*
X137473500Y-77293000D01*
X137469500Y-77288000D01*
X137464500Y-77284000D01*
X137460500Y-77279000D01*
X137456500Y-77273000D01*
X137452500Y-77268000D01*
X137449500Y-77262000D01*
X137446500Y-77257000D01*
X137440500Y-77245000D01*
X137438500Y-77239000D01*
X137436500Y-77232000D01*
X137434500Y-77220000D01*
X137433500Y-77213000D01*
X137432500Y-77207000D01*
X137432500Y-76993000D01*
X137433500Y-76987000D01*
X137434500Y-76980000D01*
X137436500Y-76968000D01*
X137438500Y-76961000D01*
X137440500Y-76955000D01*
X137446500Y-76943000D01*
X137449500Y-76938000D01*
X137452500Y-76932000D01*
X137456500Y-76927000D01*
X137460500Y-76921000D01*
X137464500Y-76916000D01*
X137469500Y-76912000D01*
X137473500Y-76907000D01*
X137478500Y-76903000D01*
X137484500Y-76899000D01*
X137489500Y-76895000D01*
X137494500Y-76892000D01*
X137512500Y-76883000D01*
X137518500Y-76881000D01*
X137525500Y-76879000D01*
X137537500Y-76877000D01*
X137544500Y-76876000D01*
X137550500Y-76875000D01*
X138004500Y-76875000D01*
X138010500Y-76876000D01*
G37*
D10*
X138010500Y-76876000D02*
X138017500Y-76877000D01*
X138029500Y-76879000D01*
X138036500Y-76881000D01*
X138042500Y-76883000D01*
X138060500Y-76892000D01*
X138065500Y-76895000D01*
X138070500Y-76899000D01*
X138076500Y-76903000D01*
X138081500Y-76907000D01*
X138085500Y-76912000D01*
X138090500Y-76916000D01*
X138094500Y-76921000D01*
X138098500Y-76927000D01*
X138102500Y-76932000D01*
X138105500Y-76938000D01*
X138108500Y-76943000D01*
X138114500Y-76955000D01*
X138116500Y-76961000D01*
X138118500Y-76968000D01*
X138120500Y-76980000D01*
X138121500Y-76987000D01*
X138122500Y-76993000D01*
X138122500Y-77207000D01*
X138121500Y-77213000D01*
X138120500Y-77220000D01*
X138118500Y-77232000D01*
X138116500Y-77239000D01*
X138114500Y-77245000D01*
X138108500Y-77257000D01*
X138105500Y-77262000D01*
X138102500Y-77268000D01*
X138098500Y-77273000D01*
X138094500Y-77279000D01*
X138090500Y-77284000D01*
X138085500Y-77288000D01*
X138081500Y-77293000D01*
X138076500Y-77297000D01*
X138070500Y-77301000D01*
X138065500Y-77305000D01*
X138060500Y-77308000D01*
X138042500Y-77317000D01*
X138036500Y-77319000D01*
X138029500Y-77321000D01*
X138017500Y-77323000D01*
X138010500Y-77324000D01*
X138004500Y-77325000D01*
X137550500Y-77325000D01*
X137544500Y-77324000D01*
X137537500Y-77323000D01*
X137525500Y-77321000D01*
X137518500Y-77319000D01*
X137512500Y-77317000D01*
X137494500Y-77308000D01*
X137489500Y-77305000D01*
X137484500Y-77301000D01*
X137478500Y-77297000D01*
X137473500Y-77293000D01*
X137469500Y-77288000D01*
X137464500Y-77284000D01*
X137460500Y-77279000D01*
X137456500Y-77273000D01*
X137452500Y-77268000D01*
X137449500Y-77262000D01*
X137446500Y-77257000D01*
X137440500Y-77245000D01*
X137438500Y-77239000D01*
X137436500Y-77232000D01*
X137434500Y-77220000D01*
X137433500Y-77213000D01*
X137432500Y-77207000D01*
X137432500Y-76993000D01*
X137433500Y-76987000D01*
X137434500Y-76980000D01*
X137436500Y-76968000D01*
X137438500Y-76961000D01*
X137440500Y-76955000D01*
X137446500Y-76943000D01*
X137449500Y-76938000D01*
X137452500Y-76932000D01*
X137456500Y-76927000D01*
X137460500Y-76921000D01*
X137464500Y-76916000D01*
X137469500Y-76912000D01*
X137473500Y-76907000D01*
X137478500Y-76903000D01*
X137484500Y-76899000D01*
X137489500Y-76895000D01*
X137494500Y-76892000D01*
X137512500Y-76883000D01*
X137518500Y-76881000D01*
X137525500Y-76879000D01*
X137537500Y-76877000D01*
X137544500Y-76876000D01*
X137550500Y-76875000D01*
X138004500Y-76875000D01*
X138010500Y-76876000D01*
G36*
X138010500Y-77376000D02*
G01*
X138017500Y-77377000D01*
X138029500Y-77379000D01*
X138036500Y-77381000D01*
X138042500Y-77383000D01*
X138060500Y-77392000D01*
X138065500Y-77395000D01*
X138070500Y-77399000D01*
X138076500Y-77403000D01*
X138081500Y-77407000D01*
X138085500Y-77412000D01*
X138090500Y-77416000D01*
X138094500Y-77421000D01*
X138098500Y-77427000D01*
X138102500Y-77432000D01*
X138105500Y-77438000D01*
X138108500Y-77443000D01*
X138114500Y-77455000D01*
X138116500Y-77461000D01*
X138118500Y-77468000D01*
X138120500Y-77480000D01*
X138121500Y-77487000D01*
X138122500Y-77493000D01*
X138122500Y-77707000D01*
X138121500Y-77713000D01*
X138120500Y-77720000D01*
X138118500Y-77732000D01*
X138116500Y-77739000D01*
X138114500Y-77745000D01*
X138108500Y-77757000D01*
X138105500Y-77762000D01*
X138102500Y-77768000D01*
X138098500Y-77773000D01*
X138094500Y-77779000D01*
X138090500Y-77784000D01*
X138085500Y-77788000D01*
X138081500Y-77793000D01*
X138076500Y-77797000D01*
X138070500Y-77801000D01*
X138065500Y-77805000D01*
X138060500Y-77808000D01*
X138042500Y-77817000D01*
X138036500Y-77819000D01*
X138029500Y-77821000D01*
X138017500Y-77823000D01*
X138010500Y-77824000D01*
X138004500Y-77825000D01*
X137550500Y-77825000D01*
X137544500Y-77824000D01*
X137537500Y-77823000D01*
X137525500Y-77821000D01*
X137518500Y-77819000D01*
X137512500Y-77817000D01*
X137494500Y-77808000D01*
X137489500Y-77805000D01*
X137484500Y-77801000D01*
X137478500Y-77797000D01*
X137473500Y-77793000D01*
X137469500Y-77788000D01*
X137464500Y-77784000D01*
X137460500Y-77779000D01*
X137456500Y-77773000D01*
X137452500Y-77768000D01*
X137449500Y-77762000D01*
X137446500Y-77757000D01*
X137440500Y-77745000D01*
X137438500Y-77739000D01*
X137436500Y-77732000D01*
X137434500Y-77720000D01*
X137433500Y-77713000D01*
X137432500Y-77707000D01*
X137432500Y-77493000D01*
X137433500Y-77487000D01*
X137434500Y-77480000D01*
X137436500Y-77468000D01*
X137438500Y-77461000D01*
X137440500Y-77455000D01*
X137446500Y-77443000D01*
X137449500Y-77438000D01*
X137452500Y-77432000D01*
X137456500Y-77427000D01*
X137460500Y-77421000D01*
X137464500Y-77416000D01*
X137469500Y-77412000D01*
X137473500Y-77407000D01*
X137478500Y-77403000D01*
X137484500Y-77399000D01*
X137489500Y-77395000D01*
X137494500Y-77392000D01*
X137512500Y-77383000D01*
X137518500Y-77381000D01*
X137525500Y-77379000D01*
X137537500Y-77377000D01*
X137544500Y-77376000D01*
X137550500Y-77375000D01*
X138004500Y-77375000D01*
X138010500Y-77376000D01*
G37*
X138010500Y-77376000D02*
X138017500Y-77377000D01*
X138029500Y-77379000D01*
X138036500Y-77381000D01*
X138042500Y-77383000D01*
X138060500Y-77392000D01*
X138065500Y-77395000D01*
X138070500Y-77399000D01*
X138076500Y-77403000D01*
X138081500Y-77407000D01*
X138085500Y-77412000D01*
X138090500Y-77416000D01*
X138094500Y-77421000D01*
X138098500Y-77427000D01*
X138102500Y-77432000D01*
X138105500Y-77438000D01*
X138108500Y-77443000D01*
X138114500Y-77455000D01*
X138116500Y-77461000D01*
X138118500Y-77468000D01*
X138120500Y-77480000D01*
X138121500Y-77487000D01*
X138122500Y-77493000D01*
X138122500Y-77707000D01*
X138121500Y-77713000D01*
X138120500Y-77720000D01*
X138118500Y-77732000D01*
X138116500Y-77739000D01*
X138114500Y-77745000D01*
X138108500Y-77757000D01*
X138105500Y-77762000D01*
X138102500Y-77768000D01*
X138098500Y-77773000D01*
X138094500Y-77779000D01*
X138090500Y-77784000D01*
X138085500Y-77788000D01*
X138081500Y-77793000D01*
X138076500Y-77797000D01*
X138070500Y-77801000D01*
X138065500Y-77805000D01*
X138060500Y-77808000D01*
X138042500Y-77817000D01*
X138036500Y-77819000D01*
X138029500Y-77821000D01*
X138017500Y-77823000D01*
X138010500Y-77824000D01*
X138004500Y-77825000D01*
X137550500Y-77825000D01*
X137544500Y-77824000D01*
X137537500Y-77823000D01*
X137525500Y-77821000D01*
X137518500Y-77819000D01*
X137512500Y-77817000D01*
X137494500Y-77808000D01*
X137489500Y-77805000D01*
X137484500Y-77801000D01*
X137478500Y-77797000D01*
X137473500Y-77793000D01*
X137469500Y-77788000D01*
X137464500Y-77784000D01*
X137460500Y-77779000D01*
X137456500Y-77773000D01*
X137452500Y-77768000D01*
X137449500Y-77762000D01*
X137446500Y-77757000D01*
X137440500Y-77745000D01*
X137438500Y-77739000D01*
X137436500Y-77732000D01*
X137434500Y-77720000D01*
X137433500Y-77713000D01*
X137432500Y-77707000D01*
X137432500Y-77493000D01*
X137433500Y-77487000D01*
X137434500Y-77480000D01*
X137436500Y-77468000D01*
X137438500Y-77461000D01*
X137440500Y-77455000D01*
X137446500Y-77443000D01*
X137449500Y-77438000D01*
X137452500Y-77432000D01*
X137456500Y-77427000D01*
X137460500Y-77421000D01*
X137464500Y-77416000D01*
X137469500Y-77412000D01*
X137473500Y-77407000D01*
X137478500Y-77403000D01*
X137484500Y-77399000D01*
X137489500Y-77395000D01*
X137494500Y-77392000D01*
X137512500Y-77383000D01*
X137518500Y-77381000D01*
X137525500Y-77379000D01*
X137537500Y-77377000D01*
X137544500Y-77376000D01*
X137550500Y-77375000D01*
X138004500Y-77375000D01*
X138010500Y-77376000D01*
G36*
X136725500Y-78421000D02*
G01*
X136732500Y-78422000D01*
X136744500Y-78424000D01*
X136751500Y-78426000D01*
X136757500Y-78428000D01*
X136769500Y-78434000D01*
X136774500Y-78437000D01*
X136780500Y-78440000D01*
X136785500Y-78444000D01*
X136791500Y-78448000D01*
X136796500Y-78452000D01*
X136800500Y-78457000D01*
X136805500Y-78461000D01*
X136809500Y-78466000D01*
X136813500Y-78472000D01*
X136817500Y-78477000D01*
X136820500Y-78482000D01*
X136829500Y-78500000D01*
X136831500Y-78506000D01*
X136833500Y-78513000D01*
X136835500Y-78525000D01*
X136836500Y-78532000D01*
X136837500Y-78538000D01*
X136837500Y-78992000D01*
X136836500Y-78998000D01*
X136835500Y-79005000D01*
X136833500Y-79017000D01*
X136831500Y-79024000D01*
X136829500Y-79030000D01*
X136820500Y-79048000D01*
X136817500Y-79053000D01*
X136813500Y-79058000D01*
X136809500Y-79064000D01*
X136805500Y-79069000D01*
X136800500Y-79073000D01*
X136796500Y-79078000D01*
X136791500Y-79082000D01*
X136785500Y-79086000D01*
X136780500Y-79090000D01*
X136775500Y-79093000D01*
X136757500Y-79102000D01*
X136751500Y-79104000D01*
X136744500Y-79106000D01*
X136732500Y-79108000D01*
X136725500Y-79109000D01*
X136719500Y-79110000D01*
X136505500Y-79110000D01*
X136499500Y-79109000D01*
X136492500Y-79108000D01*
X136480500Y-79106000D01*
X136473500Y-79104000D01*
X136467500Y-79102000D01*
X136449500Y-79093000D01*
X136444500Y-79090000D01*
X136439500Y-79086000D01*
X136433500Y-79082000D01*
X136428500Y-79078000D01*
X136424500Y-79073000D01*
X136419500Y-79069000D01*
X136415500Y-79064000D01*
X136411500Y-79058000D01*
X136407500Y-79053000D01*
X136404500Y-79048000D01*
X136395500Y-79030000D01*
X136393500Y-79024000D01*
X136391500Y-79017000D01*
X136389500Y-79005000D01*
X136388500Y-78998000D01*
X136387500Y-78992000D01*
X136387500Y-78538000D01*
X136388500Y-78532000D01*
X136389500Y-78525000D01*
X136391500Y-78513000D01*
X136393500Y-78506000D01*
X136395500Y-78500000D01*
X136404500Y-78482000D01*
X136407500Y-78477000D01*
X136411500Y-78472000D01*
X136415500Y-78466000D01*
X136419500Y-78461000D01*
X136424500Y-78457000D01*
X136428500Y-78452000D01*
X136433500Y-78448000D01*
X136439500Y-78444000D01*
X136444500Y-78440000D01*
X136449500Y-78437000D01*
X136467500Y-78428000D01*
X136473500Y-78426000D01*
X136480500Y-78424000D01*
X136492500Y-78422000D01*
X136499500Y-78421000D01*
X136505500Y-78420000D01*
X136719500Y-78420000D01*
X136725500Y-78421000D01*
G37*
X136725500Y-78421000D02*
X136732500Y-78422000D01*
X136744500Y-78424000D01*
X136751500Y-78426000D01*
X136757500Y-78428000D01*
X136769500Y-78434000D01*
X136774500Y-78437000D01*
X136780500Y-78440000D01*
X136785500Y-78444000D01*
X136791500Y-78448000D01*
X136796500Y-78452000D01*
X136800500Y-78457000D01*
X136805500Y-78461000D01*
X136809500Y-78466000D01*
X136813500Y-78472000D01*
X136817500Y-78477000D01*
X136820500Y-78482000D01*
X136829500Y-78500000D01*
X136831500Y-78506000D01*
X136833500Y-78513000D01*
X136835500Y-78525000D01*
X136836500Y-78532000D01*
X136837500Y-78538000D01*
X136837500Y-78992000D01*
X136836500Y-78998000D01*
X136835500Y-79005000D01*
X136833500Y-79017000D01*
X136831500Y-79024000D01*
X136829500Y-79030000D01*
X136820500Y-79048000D01*
X136817500Y-79053000D01*
X136813500Y-79058000D01*
X136809500Y-79064000D01*
X136805500Y-79069000D01*
X136800500Y-79073000D01*
X136796500Y-79078000D01*
X136791500Y-79082000D01*
X136785500Y-79086000D01*
X136780500Y-79090000D01*
X136775500Y-79093000D01*
X136757500Y-79102000D01*
X136751500Y-79104000D01*
X136744500Y-79106000D01*
X136732500Y-79108000D01*
X136725500Y-79109000D01*
X136719500Y-79110000D01*
X136505500Y-79110000D01*
X136499500Y-79109000D01*
X136492500Y-79108000D01*
X136480500Y-79106000D01*
X136473500Y-79104000D01*
X136467500Y-79102000D01*
X136449500Y-79093000D01*
X136444500Y-79090000D01*
X136439500Y-79086000D01*
X136433500Y-79082000D01*
X136428500Y-79078000D01*
X136424500Y-79073000D01*
X136419500Y-79069000D01*
X136415500Y-79064000D01*
X136411500Y-79058000D01*
X136407500Y-79053000D01*
X136404500Y-79048000D01*
X136395500Y-79030000D01*
X136393500Y-79024000D01*
X136391500Y-79017000D01*
X136389500Y-79005000D01*
X136388500Y-78998000D01*
X136387500Y-78992000D01*
X136387500Y-78538000D01*
X136388500Y-78532000D01*
X136389500Y-78525000D01*
X136391500Y-78513000D01*
X136393500Y-78506000D01*
X136395500Y-78500000D01*
X136404500Y-78482000D01*
X136407500Y-78477000D01*
X136411500Y-78472000D01*
X136415500Y-78466000D01*
X136419500Y-78461000D01*
X136424500Y-78457000D01*
X136428500Y-78452000D01*
X136433500Y-78448000D01*
X136439500Y-78444000D01*
X136444500Y-78440000D01*
X136449500Y-78437000D01*
X136467500Y-78428000D01*
X136473500Y-78426000D01*
X136480500Y-78424000D01*
X136492500Y-78422000D01*
X136499500Y-78421000D01*
X136505500Y-78420000D01*
X136719500Y-78420000D01*
X136725500Y-78421000D01*
G36*
X135680500Y-76876000D02*
G01*
X135687500Y-76877000D01*
X135699500Y-76879000D01*
X135706500Y-76881000D01*
X135712500Y-76883000D01*
X135730500Y-76892000D01*
X135735500Y-76895000D01*
X135740500Y-76899000D01*
X135746500Y-76903000D01*
X135751500Y-76907000D01*
X135755500Y-76912000D01*
X135760500Y-76916000D01*
X135764500Y-76921000D01*
X135768500Y-76927000D01*
X135772500Y-76932000D01*
X135775500Y-76938000D01*
X135778500Y-76943000D01*
X135784500Y-76955000D01*
X135786500Y-76961000D01*
X135788500Y-76968000D01*
X135790500Y-76980000D01*
X135791500Y-76987000D01*
X135792500Y-76993000D01*
X135792500Y-77207000D01*
X135791500Y-77213000D01*
X135790500Y-77220000D01*
X135788500Y-77232000D01*
X135786500Y-77239000D01*
X135784500Y-77245000D01*
X135778500Y-77257000D01*
X135775500Y-77262000D01*
X135772500Y-77268000D01*
X135768500Y-77273000D01*
X135764500Y-77279000D01*
X135760500Y-77284000D01*
X135755500Y-77288000D01*
X135751500Y-77293000D01*
X135746500Y-77297000D01*
X135740500Y-77301000D01*
X135735500Y-77305000D01*
X135730500Y-77308000D01*
X135712500Y-77317000D01*
X135706500Y-77319000D01*
X135699500Y-77321000D01*
X135687500Y-77323000D01*
X135680500Y-77324000D01*
X135674500Y-77325000D01*
X135220500Y-77325000D01*
X135214500Y-77324000D01*
X135207500Y-77323000D01*
X135195500Y-77321000D01*
X135188500Y-77319000D01*
X135182500Y-77317000D01*
X135164500Y-77308000D01*
X135159500Y-77305000D01*
X135154500Y-77301000D01*
X135148500Y-77297000D01*
X135143500Y-77293000D01*
X135139500Y-77288000D01*
X135134500Y-77284000D01*
X135130500Y-77279000D01*
X135126500Y-77273000D01*
X135122500Y-77268000D01*
X135119500Y-77262000D01*
X135116500Y-77257000D01*
X135110500Y-77245000D01*
X135108500Y-77239000D01*
X135106500Y-77232000D01*
X135104500Y-77220000D01*
X135103500Y-77213000D01*
X135102500Y-77207000D01*
X135102500Y-76993000D01*
X135103500Y-76987000D01*
X135104500Y-76980000D01*
X135106500Y-76968000D01*
X135108500Y-76961000D01*
X135110500Y-76955000D01*
X135116500Y-76943000D01*
X135119500Y-76938000D01*
X135122500Y-76932000D01*
X135126500Y-76927000D01*
X135130500Y-76921000D01*
X135134500Y-76916000D01*
X135139500Y-76912000D01*
X135143500Y-76907000D01*
X135148500Y-76903000D01*
X135154500Y-76899000D01*
X135159500Y-76895000D01*
X135164500Y-76892000D01*
X135182500Y-76883000D01*
X135188500Y-76881000D01*
X135195500Y-76879000D01*
X135207500Y-76877000D01*
X135214500Y-76876000D01*
X135220500Y-76875000D01*
X135674500Y-76875000D01*
X135680500Y-76876000D01*
G37*
X135680500Y-76876000D02*
X135687500Y-76877000D01*
X135699500Y-76879000D01*
X135706500Y-76881000D01*
X135712500Y-76883000D01*
X135730500Y-76892000D01*
X135735500Y-76895000D01*
X135740500Y-76899000D01*
X135746500Y-76903000D01*
X135751500Y-76907000D01*
X135755500Y-76912000D01*
X135760500Y-76916000D01*
X135764500Y-76921000D01*
X135768500Y-76927000D01*
X135772500Y-76932000D01*
X135775500Y-76938000D01*
X135778500Y-76943000D01*
X135784500Y-76955000D01*
X135786500Y-76961000D01*
X135788500Y-76968000D01*
X135790500Y-76980000D01*
X135791500Y-76987000D01*
X135792500Y-76993000D01*
X135792500Y-77207000D01*
X135791500Y-77213000D01*
X135790500Y-77220000D01*
X135788500Y-77232000D01*
X135786500Y-77239000D01*
X135784500Y-77245000D01*
X135778500Y-77257000D01*
X135775500Y-77262000D01*
X135772500Y-77268000D01*
X135768500Y-77273000D01*
X135764500Y-77279000D01*
X135760500Y-77284000D01*
X135755500Y-77288000D01*
X135751500Y-77293000D01*
X135746500Y-77297000D01*
X135740500Y-77301000D01*
X135735500Y-77305000D01*
X135730500Y-77308000D01*
X135712500Y-77317000D01*
X135706500Y-77319000D01*
X135699500Y-77321000D01*
X135687500Y-77323000D01*
X135680500Y-77324000D01*
X135674500Y-77325000D01*
X135220500Y-77325000D01*
X135214500Y-77324000D01*
X135207500Y-77323000D01*
X135195500Y-77321000D01*
X135188500Y-77319000D01*
X135182500Y-77317000D01*
X135164500Y-77308000D01*
X135159500Y-77305000D01*
X135154500Y-77301000D01*
X135148500Y-77297000D01*
X135143500Y-77293000D01*
X135139500Y-77288000D01*
X135134500Y-77284000D01*
X135130500Y-77279000D01*
X135126500Y-77273000D01*
X135122500Y-77268000D01*
X135119500Y-77262000D01*
X135116500Y-77257000D01*
X135110500Y-77245000D01*
X135108500Y-77239000D01*
X135106500Y-77232000D01*
X135104500Y-77220000D01*
X135103500Y-77213000D01*
X135102500Y-77207000D01*
X135102500Y-76993000D01*
X135103500Y-76987000D01*
X135104500Y-76980000D01*
X135106500Y-76968000D01*
X135108500Y-76961000D01*
X135110500Y-76955000D01*
X135116500Y-76943000D01*
X135119500Y-76938000D01*
X135122500Y-76932000D01*
X135126500Y-76927000D01*
X135130500Y-76921000D01*
X135134500Y-76916000D01*
X135139500Y-76912000D01*
X135143500Y-76907000D01*
X135148500Y-76903000D01*
X135154500Y-76899000D01*
X135159500Y-76895000D01*
X135164500Y-76892000D01*
X135182500Y-76883000D01*
X135188500Y-76881000D01*
X135195500Y-76879000D01*
X135207500Y-76877000D01*
X135214500Y-76876000D01*
X135220500Y-76875000D01*
X135674500Y-76875000D01*
X135680500Y-76876000D01*
G36*
X136725500Y-76591000D02*
G01*
X136732500Y-76592000D01*
X136744500Y-76594000D01*
X136751500Y-76596000D01*
X136757500Y-76598000D01*
X136769500Y-76604000D01*
X136774500Y-76607000D01*
X136780500Y-76610000D01*
X136785500Y-76614000D01*
X136791500Y-76618000D01*
X136796500Y-76622000D01*
X136800500Y-76627000D01*
X136805500Y-76631000D01*
X136809500Y-76636000D01*
X136813500Y-76642000D01*
X136817500Y-76647000D01*
X136820500Y-76652000D01*
X136829500Y-76670000D01*
X136831500Y-76676000D01*
X136833500Y-76683000D01*
X136835500Y-76695000D01*
X136836500Y-76702000D01*
X136837500Y-76708000D01*
X136837500Y-77162000D01*
X136836500Y-77168000D01*
X136835500Y-77175000D01*
X136833500Y-77187000D01*
X136831500Y-77194000D01*
X136829500Y-77200000D01*
X136820500Y-77218000D01*
X136817500Y-77223000D01*
X136813500Y-77228000D01*
X136809500Y-77234000D01*
X136805500Y-77239000D01*
X136800500Y-77243000D01*
X136796500Y-77248000D01*
X136791500Y-77252000D01*
X136785500Y-77256000D01*
X136780500Y-77260000D01*
X136775500Y-77263000D01*
X136757500Y-77272000D01*
X136751500Y-77274000D01*
X136744500Y-77276000D01*
X136732500Y-77278000D01*
X136725500Y-77279000D01*
X136719500Y-77280000D01*
X136505500Y-77280000D01*
X136499500Y-77279000D01*
X136492500Y-77278000D01*
X136480500Y-77276000D01*
X136473500Y-77274000D01*
X136467500Y-77272000D01*
X136449500Y-77263000D01*
X136444500Y-77260000D01*
X136439500Y-77256000D01*
X136433500Y-77252000D01*
X136428500Y-77248000D01*
X136424500Y-77243000D01*
X136419500Y-77239000D01*
X136415500Y-77234000D01*
X136411500Y-77228000D01*
X136407500Y-77223000D01*
X136404500Y-77218000D01*
X136395500Y-77200000D01*
X136393500Y-77194000D01*
X136391500Y-77187000D01*
X136389500Y-77175000D01*
X136388500Y-77168000D01*
X136387500Y-77162000D01*
X136387500Y-76708000D01*
X136388500Y-76702000D01*
X136389500Y-76695000D01*
X136391500Y-76683000D01*
X136393500Y-76676000D01*
X136395500Y-76670000D01*
X136404500Y-76652000D01*
X136407500Y-76647000D01*
X136411500Y-76642000D01*
X136415500Y-76636000D01*
X136419500Y-76631000D01*
X136424500Y-76627000D01*
X136428500Y-76622000D01*
X136433500Y-76618000D01*
X136439500Y-76614000D01*
X136444500Y-76610000D01*
X136449500Y-76607000D01*
X136467500Y-76598000D01*
X136473500Y-76596000D01*
X136480500Y-76594000D01*
X136492500Y-76592000D01*
X136499500Y-76591000D01*
X136505500Y-76590000D01*
X136719500Y-76590000D01*
X136725500Y-76591000D01*
G37*
X136725500Y-76591000D02*
X136732500Y-76592000D01*
X136744500Y-76594000D01*
X136751500Y-76596000D01*
X136757500Y-76598000D01*
X136769500Y-76604000D01*
X136774500Y-76607000D01*
X136780500Y-76610000D01*
X136785500Y-76614000D01*
X136791500Y-76618000D01*
X136796500Y-76622000D01*
X136800500Y-76627000D01*
X136805500Y-76631000D01*
X136809500Y-76636000D01*
X136813500Y-76642000D01*
X136817500Y-76647000D01*
X136820500Y-76652000D01*
X136829500Y-76670000D01*
X136831500Y-76676000D01*
X136833500Y-76683000D01*
X136835500Y-76695000D01*
X136836500Y-76702000D01*
X136837500Y-76708000D01*
X136837500Y-77162000D01*
X136836500Y-77168000D01*
X136835500Y-77175000D01*
X136833500Y-77187000D01*
X136831500Y-77194000D01*
X136829500Y-77200000D01*
X136820500Y-77218000D01*
X136817500Y-77223000D01*
X136813500Y-77228000D01*
X136809500Y-77234000D01*
X136805500Y-77239000D01*
X136800500Y-77243000D01*
X136796500Y-77248000D01*
X136791500Y-77252000D01*
X136785500Y-77256000D01*
X136780500Y-77260000D01*
X136775500Y-77263000D01*
X136757500Y-77272000D01*
X136751500Y-77274000D01*
X136744500Y-77276000D01*
X136732500Y-77278000D01*
X136725500Y-77279000D01*
X136719500Y-77280000D01*
X136505500Y-77280000D01*
X136499500Y-77279000D01*
X136492500Y-77278000D01*
X136480500Y-77276000D01*
X136473500Y-77274000D01*
X136467500Y-77272000D01*
X136449500Y-77263000D01*
X136444500Y-77260000D01*
X136439500Y-77256000D01*
X136433500Y-77252000D01*
X136428500Y-77248000D01*
X136424500Y-77243000D01*
X136419500Y-77239000D01*
X136415500Y-77234000D01*
X136411500Y-77228000D01*
X136407500Y-77223000D01*
X136404500Y-77218000D01*
X136395500Y-77200000D01*
X136393500Y-77194000D01*
X136391500Y-77187000D01*
X136389500Y-77175000D01*
X136388500Y-77168000D01*
X136387500Y-77162000D01*
X136387500Y-76708000D01*
X136388500Y-76702000D01*
X136389500Y-76695000D01*
X136391500Y-76683000D01*
X136393500Y-76676000D01*
X136395500Y-76670000D01*
X136404500Y-76652000D01*
X136407500Y-76647000D01*
X136411500Y-76642000D01*
X136415500Y-76636000D01*
X136419500Y-76631000D01*
X136424500Y-76627000D01*
X136428500Y-76622000D01*
X136433500Y-76618000D01*
X136439500Y-76614000D01*
X136444500Y-76610000D01*
X136449500Y-76607000D01*
X136467500Y-76598000D01*
X136473500Y-76596000D01*
X136480500Y-76594000D01*
X136492500Y-76592000D01*
X136499500Y-76591000D01*
X136505500Y-76590000D01*
X136719500Y-76590000D01*
X136725500Y-76591000D01*
G36*
X136225500Y-76591000D02*
G01*
X136232500Y-76592000D01*
X136244500Y-76594000D01*
X136251500Y-76596000D01*
X136257500Y-76598000D01*
X136269500Y-76604000D01*
X136274500Y-76607000D01*
X136280500Y-76610000D01*
X136285500Y-76614000D01*
X136291500Y-76618000D01*
X136296500Y-76622000D01*
X136300500Y-76627000D01*
X136305500Y-76631000D01*
X136309500Y-76636000D01*
X136313500Y-76642000D01*
X136317500Y-76647000D01*
X136320500Y-76652000D01*
X136329500Y-76670000D01*
X136331500Y-76676000D01*
X136333500Y-76683000D01*
X136335500Y-76695000D01*
X136336500Y-76702000D01*
X136337500Y-76708000D01*
X136337500Y-77162000D01*
X136336500Y-77168000D01*
X136335500Y-77175000D01*
X136333500Y-77187000D01*
X136331500Y-77194000D01*
X136329500Y-77200000D01*
X136320500Y-77218000D01*
X136317500Y-77223000D01*
X136313500Y-77228000D01*
X136309500Y-77234000D01*
X136305500Y-77239000D01*
X136300500Y-77243000D01*
X136296500Y-77248000D01*
X136291500Y-77252000D01*
X136285500Y-77256000D01*
X136280500Y-77260000D01*
X136275500Y-77263000D01*
X136257500Y-77272000D01*
X136251500Y-77274000D01*
X136244500Y-77276000D01*
X136232500Y-77278000D01*
X136225500Y-77279000D01*
X136219500Y-77280000D01*
X136005500Y-77280000D01*
X135999500Y-77279000D01*
X135992500Y-77278000D01*
X135980500Y-77276000D01*
X135973500Y-77274000D01*
X135967500Y-77272000D01*
X135955500Y-77266000D01*
X135950500Y-77263000D01*
X135944500Y-77260000D01*
X135939500Y-77256000D01*
X135933500Y-77252000D01*
X135928500Y-77248000D01*
X135924500Y-77243000D01*
X135919500Y-77239000D01*
X135915500Y-77234000D01*
X135911500Y-77228000D01*
X135907500Y-77223000D01*
X135904500Y-77218000D01*
X135895500Y-77200000D01*
X135893500Y-77194000D01*
X135891500Y-77187000D01*
X135889500Y-77175000D01*
X135888500Y-77168000D01*
X135887500Y-77162000D01*
X135887500Y-76708000D01*
X135888500Y-76702000D01*
X135889500Y-76695000D01*
X135891500Y-76683000D01*
X135893500Y-76676000D01*
X135895500Y-76670000D01*
X135904500Y-76652000D01*
X135907500Y-76647000D01*
X135911500Y-76642000D01*
X135915500Y-76636000D01*
X135919500Y-76631000D01*
X135924500Y-76627000D01*
X135928500Y-76622000D01*
X135933500Y-76618000D01*
X135939500Y-76614000D01*
X135944500Y-76610000D01*
X135950500Y-76607000D01*
X135955500Y-76604000D01*
X135967500Y-76598000D01*
X135973500Y-76596000D01*
X135980500Y-76594000D01*
X135992500Y-76592000D01*
X135999500Y-76591000D01*
X136005500Y-76590000D01*
X136219500Y-76590000D01*
X136225500Y-76591000D01*
G37*
X136225500Y-76591000D02*
X136232500Y-76592000D01*
X136244500Y-76594000D01*
X136251500Y-76596000D01*
X136257500Y-76598000D01*
X136269500Y-76604000D01*
X136274500Y-76607000D01*
X136280500Y-76610000D01*
X136285500Y-76614000D01*
X136291500Y-76618000D01*
X136296500Y-76622000D01*
X136300500Y-76627000D01*
X136305500Y-76631000D01*
X136309500Y-76636000D01*
X136313500Y-76642000D01*
X136317500Y-76647000D01*
X136320500Y-76652000D01*
X136329500Y-76670000D01*
X136331500Y-76676000D01*
X136333500Y-76683000D01*
X136335500Y-76695000D01*
X136336500Y-76702000D01*
X136337500Y-76708000D01*
X136337500Y-77162000D01*
X136336500Y-77168000D01*
X136335500Y-77175000D01*
X136333500Y-77187000D01*
X136331500Y-77194000D01*
X136329500Y-77200000D01*
X136320500Y-77218000D01*
X136317500Y-77223000D01*
X136313500Y-77228000D01*
X136309500Y-77234000D01*
X136305500Y-77239000D01*
X136300500Y-77243000D01*
X136296500Y-77248000D01*
X136291500Y-77252000D01*
X136285500Y-77256000D01*
X136280500Y-77260000D01*
X136275500Y-77263000D01*
X136257500Y-77272000D01*
X136251500Y-77274000D01*
X136244500Y-77276000D01*
X136232500Y-77278000D01*
X136225500Y-77279000D01*
X136219500Y-77280000D01*
X136005500Y-77280000D01*
X135999500Y-77279000D01*
X135992500Y-77278000D01*
X135980500Y-77276000D01*
X135973500Y-77274000D01*
X135967500Y-77272000D01*
X135955500Y-77266000D01*
X135950500Y-77263000D01*
X135944500Y-77260000D01*
X135939500Y-77256000D01*
X135933500Y-77252000D01*
X135928500Y-77248000D01*
X135924500Y-77243000D01*
X135919500Y-77239000D01*
X135915500Y-77234000D01*
X135911500Y-77228000D01*
X135907500Y-77223000D01*
X135904500Y-77218000D01*
X135895500Y-77200000D01*
X135893500Y-77194000D01*
X135891500Y-77187000D01*
X135889500Y-77175000D01*
X135888500Y-77168000D01*
X135887500Y-77162000D01*
X135887500Y-76708000D01*
X135888500Y-76702000D01*
X135889500Y-76695000D01*
X135891500Y-76683000D01*
X135893500Y-76676000D01*
X135895500Y-76670000D01*
X135904500Y-76652000D01*
X135907500Y-76647000D01*
X135911500Y-76642000D01*
X135915500Y-76636000D01*
X135919500Y-76631000D01*
X135924500Y-76627000D01*
X135928500Y-76622000D01*
X135933500Y-76618000D01*
X135939500Y-76614000D01*
X135944500Y-76610000D01*
X135950500Y-76607000D01*
X135955500Y-76604000D01*
X135967500Y-76598000D01*
X135973500Y-76596000D01*
X135980500Y-76594000D01*
X135992500Y-76592000D01*
X135999500Y-76591000D01*
X136005500Y-76590000D01*
X136219500Y-76590000D01*
X136225500Y-76591000D01*
G36*
X138010500Y-77876000D02*
G01*
X138017500Y-77877000D01*
X138029500Y-77879000D01*
X138036500Y-77881000D01*
X138042500Y-77883000D01*
X138060500Y-77892000D01*
X138065500Y-77895000D01*
X138070500Y-77899000D01*
X138076500Y-77903000D01*
X138081500Y-77907000D01*
X138085500Y-77912000D01*
X138090500Y-77916000D01*
X138094500Y-77921000D01*
X138098500Y-77927000D01*
X138102500Y-77932000D01*
X138105500Y-77938000D01*
X138108500Y-77943000D01*
X138114500Y-77955000D01*
X138116500Y-77961000D01*
X138118500Y-77968000D01*
X138120500Y-77980000D01*
X138121500Y-77987000D01*
X138122500Y-77993000D01*
X138122500Y-78207000D01*
X138121500Y-78213000D01*
X138120500Y-78220000D01*
X138118500Y-78232000D01*
X138116500Y-78239000D01*
X138114500Y-78245000D01*
X138108500Y-78257000D01*
X138105500Y-78262000D01*
X138102500Y-78268000D01*
X138098500Y-78273000D01*
X138094500Y-78279000D01*
X138090500Y-78284000D01*
X138085500Y-78288000D01*
X138081500Y-78293000D01*
X138076500Y-78297000D01*
X138070500Y-78301000D01*
X138065500Y-78305000D01*
X138060500Y-78308000D01*
X138042500Y-78317000D01*
X138036500Y-78319000D01*
X138029500Y-78321000D01*
X138017500Y-78323000D01*
X138010500Y-78324000D01*
X138004500Y-78325000D01*
X137550500Y-78325000D01*
X137544500Y-78324000D01*
X137537500Y-78323000D01*
X137525500Y-78321000D01*
X137518500Y-78319000D01*
X137512500Y-78317000D01*
X137494500Y-78308000D01*
X137489500Y-78305000D01*
X137484500Y-78301000D01*
X137478500Y-78297000D01*
X137473500Y-78293000D01*
X137469500Y-78288000D01*
X137464500Y-78284000D01*
X137460500Y-78279000D01*
X137456500Y-78273000D01*
X137452500Y-78268000D01*
X137449500Y-78262000D01*
X137446500Y-78257000D01*
X137440500Y-78245000D01*
X137438500Y-78239000D01*
X137436500Y-78232000D01*
X137434500Y-78220000D01*
X137433500Y-78213000D01*
X137432500Y-78207000D01*
X137432500Y-77993000D01*
X137433500Y-77987000D01*
X137434500Y-77980000D01*
X137436500Y-77968000D01*
X137438500Y-77961000D01*
X137440500Y-77955000D01*
X137446500Y-77943000D01*
X137449500Y-77938000D01*
X137452500Y-77932000D01*
X137456500Y-77927000D01*
X137460500Y-77921000D01*
X137464500Y-77916000D01*
X137469500Y-77912000D01*
X137473500Y-77907000D01*
X137478500Y-77903000D01*
X137484500Y-77899000D01*
X137489500Y-77895000D01*
X137494500Y-77892000D01*
X137512500Y-77883000D01*
X137518500Y-77881000D01*
X137525500Y-77879000D01*
X137537500Y-77877000D01*
X137544500Y-77876000D01*
X137550500Y-77875000D01*
X138004500Y-77875000D01*
X138010500Y-77876000D01*
G37*
X138010500Y-77876000D02*
X138017500Y-77877000D01*
X138029500Y-77879000D01*
X138036500Y-77881000D01*
X138042500Y-77883000D01*
X138060500Y-77892000D01*
X138065500Y-77895000D01*
X138070500Y-77899000D01*
X138076500Y-77903000D01*
X138081500Y-77907000D01*
X138085500Y-77912000D01*
X138090500Y-77916000D01*
X138094500Y-77921000D01*
X138098500Y-77927000D01*
X138102500Y-77932000D01*
X138105500Y-77938000D01*
X138108500Y-77943000D01*
X138114500Y-77955000D01*
X138116500Y-77961000D01*
X138118500Y-77968000D01*
X138120500Y-77980000D01*
X138121500Y-77987000D01*
X138122500Y-77993000D01*
X138122500Y-78207000D01*
X138121500Y-78213000D01*
X138120500Y-78220000D01*
X138118500Y-78232000D01*
X138116500Y-78239000D01*
X138114500Y-78245000D01*
X138108500Y-78257000D01*
X138105500Y-78262000D01*
X138102500Y-78268000D01*
X138098500Y-78273000D01*
X138094500Y-78279000D01*
X138090500Y-78284000D01*
X138085500Y-78288000D01*
X138081500Y-78293000D01*
X138076500Y-78297000D01*
X138070500Y-78301000D01*
X138065500Y-78305000D01*
X138060500Y-78308000D01*
X138042500Y-78317000D01*
X138036500Y-78319000D01*
X138029500Y-78321000D01*
X138017500Y-78323000D01*
X138010500Y-78324000D01*
X138004500Y-78325000D01*
X137550500Y-78325000D01*
X137544500Y-78324000D01*
X137537500Y-78323000D01*
X137525500Y-78321000D01*
X137518500Y-78319000D01*
X137512500Y-78317000D01*
X137494500Y-78308000D01*
X137489500Y-78305000D01*
X137484500Y-78301000D01*
X137478500Y-78297000D01*
X137473500Y-78293000D01*
X137469500Y-78288000D01*
X137464500Y-78284000D01*
X137460500Y-78279000D01*
X137456500Y-78273000D01*
X137452500Y-78268000D01*
X137449500Y-78262000D01*
X137446500Y-78257000D01*
X137440500Y-78245000D01*
X137438500Y-78239000D01*
X137436500Y-78232000D01*
X137434500Y-78220000D01*
X137433500Y-78213000D01*
X137432500Y-78207000D01*
X137432500Y-77993000D01*
X137433500Y-77987000D01*
X137434500Y-77980000D01*
X137436500Y-77968000D01*
X137438500Y-77961000D01*
X137440500Y-77955000D01*
X137446500Y-77943000D01*
X137449500Y-77938000D01*
X137452500Y-77932000D01*
X137456500Y-77927000D01*
X137460500Y-77921000D01*
X137464500Y-77916000D01*
X137469500Y-77912000D01*
X137473500Y-77907000D01*
X137478500Y-77903000D01*
X137484500Y-77899000D01*
X137489500Y-77895000D01*
X137494500Y-77892000D01*
X137512500Y-77883000D01*
X137518500Y-77881000D01*
X137525500Y-77879000D01*
X137537500Y-77877000D01*
X137544500Y-77876000D01*
X137550500Y-77875000D01*
X138004500Y-77875000D01*
X138010500Y-77876000D01*
G36*
X135680500Y-78376000D02*
G01*
X135687500Y-78377000D01*
X135699500Y-78379000D01*
X135706500Y-78381000D01*
X135712500Y-78383000D01*
X135730500Y-78392000D01*
X135735500Y-78395000D01*
X135740500Y-78399000D01*
X135746500Y-78403000D01*
X135751500Y-78407000D01*
X135755500Y-78412000D01*
X135760500Y-78416000D01*
X135764500Y-78421000D01*
X135768500Y-78427000D01*
X135772500Y-78432000D01*
X135775500Y-78438000D01*
X135778500Y-78443000D01*
X135784500Y-78455000D01*
X135786500Y-78461000D01*
X135788500Y-78468000D01*
X135790500Y-78480000D01*
X135791500Y-78487000D01*
X135792500Y-78493000D01*
X135792500Y-78707000D01*
X135791500Y-78713000D01*
X135790500Y-78720000D01*
X135788500Y-78732000D01*
X135786500Y-78739000D01*
X135784500Y-78745000D01*
X135778500Y-78757000D01*
X135775500Y-78762000D01*
X135772500Y-78768000D01*
X135768500Y-78773000D01*
X135764500Y-78779000D01*
X135760500Y-78784000D01*
X135755500Y-78788000D01*
X135751500Y-78793000D01*
X135746500Y-78797000D01*
X135740500Y-78801000D01*
X135735500Y-78805000D01*
X135730500Y-78808000D01*
X135712500Y-78817000D01*
X135706500Y-78819000D01*
X135699500Y-78821000D01*
X135687500Y-78823000D01*
X135680500Y-78824000D01*
X135674500Y-78825000D01*
X135220500Y-78825000D01*
X135214500Y-78824000D01*
X135207500Y-78823000D01*
X135195500Y-78821000D01*
X135188500Y-78819000D01*
X135182500Y-78817000D01*
X135164500Y-78808000D01*
X135159500Y-78805000D01*
X135154500Y-78801000D01*
X135148500Y-78797000D01*
X135143500Y-78793000D01*
X135139500Y-78788000D01*
X135134500Y-78784000D01*
X135130500Y-78779000D01*
X135126500Y-78773000D01*
X135122500Y-78768000D01*
X135119500Y-78762000D01*
X135116500Y-78757000D01*
X135110500Y-78745000D01*
X135108500Y-78739000D01*
X135106500Y-78732000D01*
X135104500Y-78720000D01*
X135103500Y-78713000D01*
X135102500Y-78707000D01*
X135102500Y-78493000D01*
X135103500Y-78487000D01*
X135104500Y-78480000D01*
X135106500Y-78468000D01*
X135108500Y-78461000D01*
X135110500Y-78455000D01*
X135116500Y-78443000D01*
X135119500Y-78438000D01*
X135122500Y-78432000D01*
X135126500Y-78427000D01*
X135130500Y-78421000D01*
X135134500Y-78416000D01*
X135139500Y-78412000D01*
X135143500Y-78407000D01*
X135148500Y-78403000D01*
X135154500Y-78399000D01*
X135159500Y-78395000D01*
X135164500Y-78392000D01*
X135182500Y-78383000D01*
X135188500Y-78381000D01*
X135195500Y-78379000D01*
X135207500Y-78377000D01*
X135214500Y-78376000D01*
X135220500Y-78375000D01*
X135674500Y-78375000D01*
X135680500Y-78376000D01*
G37*
X135680500Y-78376000D02*
X135687500Y-78377000D01*
X135699500Y-78379000D01*
X135706500Y-78381000D01*
X135712500Y-78383000D01*
X135730500Y-78392000D01*
X135735500Y-78395000D01*
X135740500Y-78399000D01*
X135746500Y-78403000D01*
X135751500Y-78407000D01*
X135755500Y-78412000D01*
X135760500Y-78416000D01*
X135764500Y-78421000D01*
X135768500Y-78427000D01*
X135772500Y-78432000D01*
X135775500Y-78438000D01*
X135778500Y-78443000D01*
X135784500Y-78455000D01*
X135786500Y-78461000D01*
X135788500Y-78468000D01*
X135790500Y-78480000D01*
X135791500Y-78487000D01*
X135792500Y-78493000D01*
X135792500Y-78707000D01*
X135791500Y-78713000D01*
X135790500Y-78720000D01*
X135788500Y-78732000D01*
X135786500Y-78739000D01*
X135784500Y-78745000D01*
X135778500Y-78757000D01*
X135775500Y-78762000D01*
X135772500Y-78768000D01*
X135768500Y-78773000D01*
X135764500Y-78779000D01*
X135760500Y-78784000D01*
X135755500Y-78788000D01*
X135751500Y-78793000D01*
X135746500Y-78797000D01*
X135740500Y-78801000D01*
X135735500Y-78805000D01*
X135730500Y-78808000D01*
X135712500Y-78817000D01*
X135706500Y-78819000D01*
X135699500Y-78821000D01*
X135687500Y-78823000D01*
X135680500Y-78824000D01*
X135674500Y-78825000D01*
X135220500Y-78825000D01*
X135214500Y-78824000D01*
X135207500Y-78823000D01*
X135195500Y-78821000D01*
X135188500Y-78819000D01*
X135182500Y-78817000D01*
X135164500Y-78808000D01*
X135159500Y-78805000D01*
X135154500Y-78801000D01*
X135148500Y-78797000D01*
X135143500Y-78793000D01*
X135139500Y-78788000D01*
X135134500Y-78784000D01*
X135130500Y-78779000D01*
X135126500Y-78773000D01*
X135122500Y-78768000D01*
X135119500Y-78762000D01*
X135116500Y-78757000D01*
X135110500Y-78745000D01*
X135108500Y-78739000D01*
X135106500Y-78732000D01*
X135104500Y-78720000D01*
X135103500Y-78713000D01*
X135102500Y-78707000D01*
X135102500Y-78493000D01*
X135103500Y-78487000D01*
X135104500Y-78480000D01*
X135106500Y-78468000D01*
X135108500Y-78461000D01*
X135110500Y-78455000D01*
X135116500Y-78443000D01*
X135119500Y-78438000D01*
X135122500Y-78432000D01*
X135126500Y-78427000D01*
X135130500Y-78421000D01*
X135134500Y-78416000D01*
X135139500Y-78412000D01*
X135143500Y-78407000D01*
X135148500Y-78403000D01*
X135154500Y-78399000D01*
X135159500Y-78395000D01*
X135164500Y-78392000D01*
X135182500Y-78383000D01*
X135188500Y-78381000D01*
X135195500Y-78379000D01*
X135207500Y-78377000D01*
X135214500Y-78376000D01*
X135220500Y-78375000D01*
X135674500Y-78375000D01*
X135680500Y-78376000D01*
G36*
X138010500Y-78376000D02*
G01*
X138017500Y-78377000D01*
X138029500Y-78379000D01*
X138036500Y-78381000D01*
X138042500Y-78383000D01*
X138060500Y-78392000D01*
X138065500Y-78395000D01*
X138070500Y-78399000D01*
X138076500Y-78403000D01*
X138081500Y-78407000D01*
X138085500Y-78412000D01*
X138090500Y-78416000D01*
X138094500Y-78421000D01*
X138098500Y-78427000D01*
X138102500Y-78432000D01*
X138105500Y-78438000D01*
X138108500Y-78443000D01*
X138114500Y-78455000D01*
X138116500Y-78461000D01*
X138118500Y-78468000D01*
X138120500Y-78480000D01*
X138121500Y-78487000D01*
X138122500Y-78493000D01*
X138122500Y-78707000D01*
X138121500Y-78713000D01*
X138120500Y-78720000D01*
X138118500Y-78732000D01*
X138116500Y-78739000D01*
X138114500Y-78745000D01*
X138108500Y-78757000D01*
X138105500Y-78762000D01*
X138102500Y-78768000D01*
X138098500Y-78773000D01*
X138094500Y-78779000D01*
X138090500Y-78784000D01*
X138085500Y-78788000D01*
X138081500Y-78793000D01*
X138076500Y-78797000D01*
X138070500Y-78801000D01*
X138065500Y-78805000D01*
X138060500Y-78808000D01*
X138042500Y-78817000D01*
X138036500Y-78819000D01*
X138029500Y-78821000D01*
X138017500Y-78823000D01*
X138010500Y-78824000D01*
X138004500Y-78825000D01*
X137550500Y-78825000D01*
X137544500Y-78824000D01*
X137537500Y-78823000D01*
X137525500Y-78821000D01*
X137518500Y-78819000D01*
X137512500Y-78817000D01*
X137494500Y-78808000D01*
X137489500Y-78805000D01*
X137484500Y-78801000D01*
X137478500Y-78797000D01*
X137473500Y-78793000D01*
X137469500Y-78788000D01*
X137464500Y-78784000D01*
X137460500Y-78779000D01*
X137456500Y-78773000D01*
X137452500Y-78768000D01*
X137449500Y-78762000D01*
X137446500Y-78757000D01*
X137440500Y-78745000D01*
X137438500Y-78739000D01*
X137436500Y-78732000D01*
X137434500Y-78720000D01*
X137433500Y-78713000D01*
X137432500Y-78707000D01*
X137432500Y-78493000D01*
X137433500Y-78487000D01*
X137434500Y-78480000D01*
X137436500Y-78468000D01*
X137438500Y-78461000D01*
X137440500Y-78455000D01*
X137446500Y-78443000D01*
X137449500Y-78438000D01*
X137452500Y-78432000D01*
X137456500Y-78427000D01*
X137460500Y-78421000D01*
X137464500Y-78416000D01*
X137469500Y-78412000D01*
X137473500Y-78407000D01*
X137478500Y-78403000D01*
X137484500Y-78399000D01*
X137489500Y-78395000D01*
X137494500Y-78392000D01*
X137512500Y-78383000D01*
X137518500Y-78381000D01*
X137525500Y-78379000D01*
X137537500Y-78377000D01*
X137544500Y-78376000D01*
X137550500Y-78375000D01*
X138004500Y-78375000D01*
X138010500Y-78376000D01*
G37*
X138010500Y-78376000D02*
X138017500Y-78377000D01*
X138029500Y-78379000D01*
X138036500Y-78381000D01*
X138042500Y-78383000D01*
X138060500Y-78392000D01*
X138065500Y-78395000D01*
X138070500Y-78399000D01*
X138076500Y-78403000D01*
X138081500Y-78407000D01*
X138085500Y-78412000D01*
X138090500Y-78416000D01*
X138094500Y-78421000D01*
X138098500Y-78427000D01*
X138102500Y-78432000D01*
X138105500Y-78438000D01*
X138108500Y-78443000D01*
X138114500Y-78455000D01*
X138116500Y-78461000D01*
X138118500Y-78468000D01*
X138120500Y-78480000D01*
X138121500Y-78487000D01*
X138122500Y-78493000D01*
X138122500Y-78707000D01*
X138121500Y-78713000D01*
X138120500Y-78720000D01*
X138118500Y-78732000D01*
X138116500Y-78739000D01*
X138114500Y-78745000D01*
X138108500Y-78757000D01*
X138105500Y-78762000D01*
X138102500Y-78768000D01*
X138098500Y-78773000D01*
X138094500Y-78779000D01*
X138090500Y-78784000D01*
X138085500Y-78788000D01*
X138081500Y-78793000D01*
X138076500Y-78797000D01*
X138070500Y-78801000D01*
X138065500Y-78805000D01*
X138060500Y-78808000D01*
X138042500Y-78817000D01*
X138036500Y-78819000D01*
X138029500Y-78821000D01*
X138017500Y-78823000D01*
X138010500Y-78824000D01*
X138004500Y-78825000D01*
X137550500Y-78825000D01*
X137544500Y-78824000D01*
X137537500Y-78823000D01*
X137525500Y-78821000D01*
X137518500Y-78819000D01*
X137512500Y-78817000D01*
X137494500Y-78808000D01*
X137489500Y-78805000D01*
X137484500Y-78801000D01*
X137478500Y-78797000D01*
X137473500Y-78793000D01*
X137469500Y-78788000D01*
X137464500Y-78784000D01*
X137460500Y-78779000D01*
X137456500Y-78773000D01*
X137452500Y-78768000D01*
X137449500Y-78762000D01*
X137446500Y-78757000D01*
X137440500Y-78745000D01*
X137438500Y-78739000D01*
X137436500Y-78732000D01*
X137434500Y-78720000D01*
X137433500Y-78713000D01*
X137432500Y-78707000D01*
X137432500Y-78493000D01*
X137433500Y-78487000D01*
X137434500Y-78480000D01*
X137436500Y-78468000D01*
X137438500Y-78461000D01*
X137440500Y-78455000D01*
X137446500Y-78443000D01*
X137449500Y-78438000D01*
X137452500Y-78432000D01*
X137456500Y-78427000D01*
X137460500Y-78421000D01*
X137464500Y-78416000D01*
X137469500Y-78412000D01*
X137473500Y-78407000D01*
X137478500Y-78403000D01*
X137484500Y-78399000D01*
X137489500Y-78395000D01*
X137494500Y-78392000D01*
X137512500Y-78383000D01*
X137518500Y-78381000D01*
X137525500Y-78379000D01*
X137537500Y-78377000D01*
X137544500Y-78376000D01*
X137550500Y-78375000D01*
X138004500Y-78375000D01*
X138010500Y-78376000D01*
G36*
X135680500Y-77376000D02*
G01*
X135687500Y-77377000D01*
X135699500Y-77379000D01*
X135706500Y-77381000D01*
X135712500Y-77383000D01*
X135730500Y-77392000D01*
X135735500Y-77395000D01*
X135740500Y-77399000D01*
X135746500Y-77403000D01*
X135751500Y-77407000D01*
X135755500Y-77412000D01*
X135760500Y-77416000D01*
X135764500Y-77421000D01*
X135768500Y-77427000D01*
X135772500Y-77432000D01*
X135775500Y-77438000D01*
X135778500Y-77443000D01*
X135784500Y-77455000D01*
X135786500Y-77461000D01*
X135788500Y-77468000D01*
X135790500Y-77480000D01*
X135791500Y-77487000D01*
X135792500Y-77493000D01*
X135792500Y-77707000D01*
X135791500Y-77713000D01*
X135790500Y-77720000D01*
X135788500Y-77732000D01*
X135786500Y-77739000D01*
X135784500Y-77745000D01*
X135778500Y-77757000D01*
X135775500Y-77762000D01*
X135772500Y-77768000D01*
X135768500Y-77773000D01*
X135764500Y-77779000D01*
X135760500Y-77784000D01*
X135755500Y-77788000D01*
X135751500Y-77793000D01*
X135746500Y-77797000D01*
X135740500Y-77801000D01*
X135735500Y-77805000D01*
X135730500Y-77808000D01*
X135712500Y-77817000D01*
X135706500Y-77819000D01*
X135699500Y-77821000D01*
X135687500Y-77823000D01*
X135680500Y-77824000D01*
X135674500Y-77825000D01*
X135220500Y-77825000D01*
X135214500Y-77824000D01*
X135207500Y-77823000D01*
X135195500Y-77821000D01*
X135188500Y-77819000D01*
X135182500Y-77817000D01*
X135164500Y-77808000D01*
X135159500Y-77805000D01*
X135154500Y-77801000D01*
X135148500Y-77797000D01*
X135143500Y-77793000D01*
X135139500Y-77788000D01*
X135134500Y-77784000D01*
X135130500Y-77779000D01*
X135126500Y-77773000D01*
X135122500Y-77768000D01*
X135119500Y-77762000D01*
X135116500Y-77757000D01*
X135110500Y-77745000D01*
X135108500Y-77739000D01*
X135106500Y-77732000D01*
X135104500Y-77720000D01*
X135103500Y-77713000D01*
X135102500Y-77707000D01*
X135102500Y-77493000D01*
X135103500Y-77487000D01*
X135104500Y-77480000D01*
X135106500Y-77468000D01*
X135108500Y-77461000D01*
X135110500Y-77455000D01*
X135116500Y-77443000D01*
X135119500Y-77438000D01*
X135122500Y-77432000D01*
X135126500Y-77427000D01*
X135130500Y-77421000D01*
X135134500Y-77416000D01*
X135139500Y-77412000D01*
X135143500Y-77407000D01*
X135148500Y-77403000D01*
X135154500Y-77399000D01*
X135159500Y-77395000D01*
X135164500Y-77392000D01*
X135182500Y-77383000D01*
X135188500Y-77381000D01*
X135195500Y-77379000D01*
X135207500Y-77377000D01*
X135214500Y-77376000D01*
X135220500Y-77375000D01*
X135674500Y-77375000D01*
X135680500Y-77376000D01*
G37*
X135680500Y-77376000D02*
X135687500Y-77377000D01*
X135699500Y-77379000D01*
X135706500Y-77381000D01*
X135712500Y-77383000D01*
X135730500Y-77392000D01*
X135735500Y-77395000D01*
X135740500Y-77399000D01*
X135746500Y-77403000D01*
X135751500Y-77407000D01*
X135755500Y-77412000D01*
X135760500Y-77416000D01*
X135764500Y-77421000D01*
X135768500Y-77427000D01*
X135772500Y-77432000D01*
X135775500Y-77438000D01*
X135778500Y-77443000D01*
X135784500Y-77455000D01*
X135786500Y-77461000D01*
X135788500Y-77468000D01*
X135790500Y-77480000D01*
X135791500Y-77487000D01*
X135792500Y-77493000D01*
X135792500Y-77707000D01*
X135791500Y-77713000D01*
X135790500Y-77720000D01*
X135788500Y-77732000D01*
X135786500Y-77739000D01*
X135784500Y-77745000D01*
X135778500Y-77757000D01*
X135775500Y-77762000D01*
X135772500Y-77768000D01*
X135768500Y-77773000D01*
X135764500Y-77779000D01*
X135760500Y-77784000D01*
X135755500Y-77788000D01*
X135751500Y-77793000D01*
X135746500Y-77797000D01*
X135740500Y-77801000D01*
X135735500Y-77805000D01*
X135730500Y-77808000D01*
X135712500Y-77817000D01*
X135706500Y-77819000D01*
X135699500Y-77821000D01*
X135687500Y-77823000D01*
X135680500Y-77824000D01*
X135674500Y-77825000D01*
X135220500Y-77825000D01*
X135214500Y-77824000D01*
X135207500Y-77823000D01*
X135195500Y-77821000D01*
X135188500Y-77819000D01*
X135182500Y-77817000D01*
X135164500Y-77808000D01*
X135159500Y-77805000D01*
X135154500Y-77801000D01*
X135148500Y-77797000D01*
X135143500Y-77793000D01*
X135139500Y-77788000D01*
X135134500Y-77784000D01*
X135130500Y-77779000D01*
X135126500Y-77773000D01*
X135122500Y-77768000D01*
X135119500Y-77762000D01*
X135116500Y-77757000D01*
X135110500Y-77745000D01*
X135108500Y-77739000D01*
X135106500Y-77732000D01*
X135104500Y-77720000D01*
X135103500Y-77713000D01*
X135102500Y-77707000D01*
X135102500Y-77493000D01*
X135103500Y-77487000D01*
X135104500Y-77480000D01*
X135106500Y-77468000D01*
X135108500Y-77461000D01*
X135110500Y-77455000D01*
X135116500Y-77443000D01*
X135119500Y-77438000D01*
X135122500Y-77432000D01*
X135126500Y-77427000D01*
X135130500Y-77421000D01*
X135134500Y-77416000D01*
X135139500Y-77412000D01*
X135143500Y-77407000D01*
X135148500Y-77403000D01*
X135154500Y-77399000D01*
X135159500Y-77395000D01*
X135164500Y-77392000D01*
X135182500Y-77383000D01*
X135188500Y-77381000D01*
X135195500Y-77379000D01*
X135207500Y-77377000D01*
X135214500Y-77376000D01*
X135220500Y-77375000D01*
X135674500Y-77375000D01*
X135680500Y-77376000D01*
G36*
X137225500Y-78421000D02*
G01*
X137232500Y-78422000D01*
X137244500Y-78424000D01*
X137251500Y-78426000D01*
X137257500Y-78428000D01*
X137269500Y-78434000D01*
X137274500Y-78437000D01*
X137280500Y-78440000D01*
X137285500Y-78444000D01*
X137291500Y-78448000D01*
X137296500Y-78452000D01*
X137300500Y-78457000D01*
X137305500Y-78461000D01*
X137309500Y-78466000D01*
X137313500Y-78472000D01*
X137317500Y-78477000D01*
X137320500Y-78482000D01*
X137329500Y-78500000D01*
X137331500Y-78506000D01*
X137333500Y-78513000D01*
X137335500Y-78525000D01*
X137336500Y-78532000D01*
X137337500Y-78538000D01*
X137337500Y-78992000D01*
X137336500Y-78998000D01*
X137335500Y-79005000D01*
X137333500Y-79017000D01*
X137331500Y-79024000D01*
X137329500Y-79030000D01*
X137320500Y-79048000D01*
X137317500Y-79053000D01*
X137313500Y-79058000D01*
X137309500Y-79064000D01*
X137305500Y-79069000D01*
X137300500Y-79073000D01*
X137296500Y-79078000D01*
X137291500Y-79082000D01*
X137285500Y-79086000D01*
X137280500Y-79090000D01*
X137275500Y-79093000D01*
X137257500Y-79102000D01*
X137251500Y-79104000D01*
X137244500Y-79106000D01*
X137232500Y-79108000D01*
X137225500Y-79109000D01*
X137219500Y-79110000D01*
X137005500Y-79110000D01*
X136999500Y-79109000D01*
X136992500Y-79108000D01*
X136980500Y-79106000D01*
X136973500Y-79104000D01*
X136967500Y-79102000D01*
X136955500Y-79096000D01*
X136950500Y-79093000D01*
X136944500Y-79090000D01*
X136939500Y-79086000D01*
X136933500Y-79082000D01*
X136928500Y-79078000D01*
X136924500Y-79073000D01*
X136919500Y-79069000D01*
X136915500Y-79064000D01*
X136911500Y-79058000D01*
X136907500Y-79053000D01*
X136904500Y-79048000D01*
X136895500Y-79030000D01*
X136893500Y-79024000D01*
X136891500Y-79017000D01*
X136889500Y-79005000D01*
X136888500Y-78998000D01*
X136887500Y-78992000D01*
X136887500Y-78538000D01*
X136888500Y-78532000D01*
X136889500Y-78525000D01*
X136891500Y-78513000D01*
X136893500Y-78506000D01*
X136895500Y-78500000D01*
X136904500Y-78482000D01*
X136907500Y-78477000D01*
X136911500Y-78472000D01*
X136915500Y-78466000D01*
X136919500Y-78461000D01*
X136924500Y-78457000D01*
X136928500Y-78452000D01*
X136933500Y-78448000D01*
X136939500Y-78444000D01*
X136944500Y-78440000D01*
X136950500Y-78437000D01*
X136955500Y-78434000D01*
X136967500Y-78428000D01*
X136973500Y-78426000D01*
X136980500Y-78424000D01*
X136992500Y-78422000D01*
X136999500Y-78421000D01*
X137005500Y-78420000D01*
X137219500Y-78420000D01*
X137225500Y-78421000D01*
G37*
X137225500Y-78421000D02*
X137232500Y-78422000D01*
X137244500Y-78424000D01*
X137251500Y-78426000D01*
X137257500Y-78428000D01*
X137269500Y-78434000D01*
X137274500Y-78437000D01*
X137280500Y-78440000D01*
X137285500Y-78444000D01*
X137291500Y-78448000D01*
X137296500Y-78452000D01*
X137300500Y-78457000D01*
X137305500Y-78461000D01*
X137309500Y-78466000D01*
X137313500Y-78472000D01*
X137317500Y-78477000D01*
X137320500Y-78482000D01*
X137329500Y-78500000D01*
X137331500Y-78506000D01*
X137333500Y-78513000D01*
X137335500Y-78525000D01*
X137336500Y-78532000D01*
X137337500Y-78538000D01*
X137337500Y-78992000D01*
X137336500Y-78998000D01*
X137335500Y-79005000D01*
X137333500Y-79017000D01*
X137331500Y-79024000D01*
X137329500Y-79030000D01*
X137320500Y-79048000D01*
X137317500Y-79053000D01*
X137313500Y-79058000D01*
X137309500Y-79064000D01*
X137305500Y-79069000D01*
X137300500Y-79073000D01*
X137296500Y-79078000D01*
X137291500Y-79082000D01*
X137285500Y-79086000D01*
X137280500Y-79090000D01*
X137275500Y-79093000D01*
X137257500Y-79102000D01*
X137251500Y-79104000D01*
X137244500Y-79106000D01*
X137232500Y-79108000D01*
X137225500Y-79109000D01*
X137219500Y-79110000D01*
X137005500Y-79110000D01*
X136999500Y-79109000D01*
X136992500Y-79108000D01*
X136980500Y-79106000D01*
X136973500Y-79104000D01*
X136967500Y-79102000D01*
X136955500Y-79096000D01*
X136950500Y-79093000D01*
X136944500Y-79090000D01*
X136939500Y-79086000D01*
X136933500Y-79082000D01*
X136928500Y-79078000D01*
X136924500Y-79073000D01*
X136919500Y-79069000D01*
X136915500Y-79064000D01*
X136911500Y-79058000D01*
X136907500Y-79053000D01*
X136904500Y-79048000D01*
X136895500Y-79030000D01*
X136893500Y-79024000D01*
X136891500Y-79017000D01*
X136889500Y-79005000D01*
X136888500Y-78998000D01*
X136887500Y-78992000D01*
X136887500Y-78538000D01*
X136888500Y-78532000D01*
X136889500Y-78525000D01*
X136891500Y-78513000D01*
X136893500Y-78506000D01*
X136895500Y-78500000D01*
X136904500Y-78482000D01*
X136907500Y-78477000D01*
X136911500Y-78472000D01*
X136915500Y-78466000D01*
X136919500Y-78461000D01*
X136924500Y-78457000D01*
X136928500Y-78452000D01*
X136933500Y-78448000D01*
X136939500Y-78444000D01*
X136944500Y-78440000D01*
X136950500Y-78437000D01*
X136955500Y-78434000D01*
X136967500Y-78428000D01*
X136973500Y-78426000D01*
X136980500Y-78424000D01*
X136992500Y-78422000D01*
X136999500Y-78421000D01*
X137005500Y-78420000D01*
X137219500Y-78420000D01*
X137225500Y-78421000D01*
G36*
X135680500Y-77876000D02*
G01*
X135687500Y-77877000D01*
X135699500Y-77879000D01*
X135706500Y-77881000D01*
X135712500Y-77883000D01*
X135730500Y-77892000D01*
X135735500Y-77895000D01*
X135740500Y-77899000D01*
X135746500Y-77903000D01*
X135751500Y-77907000D01*
X135755500Y-77912000D01*
X135760500Y-77916000D01*
X135764500Y-77921000D01*
X135768500Y-77927000D01*
X135772500Y-77932000D01*
X135775500Y-77938000D01*
X135778500Y-77943000D01*
X135784500Y-77955000D01*
X135786500Y-77961000D01*
X135788500Y-77968000D01*
X135790500Y-77980000D01*
X135791500Y-77987000D01*
X135792500Y-77993000D01*
X135792500Y-78207000D01*
X135791500Y-78213000D01*
X135790500Y-78220000D01*
X135788500Y-78232000D01*
X135786500Y-78239000D01*
X135784500Y-78245000D01*
X135778500Y-78257000D01*
X135775500Y-78262000D01*
X135772500Y-78268000D01*
X135768500Y-78273000D01*
X135764500Y-78279000D01*
X135760500Y-78284000D01*
X135755500Y-78288000D01*
X135751500Y-78293000D01*
X135746500Y-78297000D01*
X135740500Y-78301000D01*
X135735500Y-78305000D01*
X135730500Y-78308000D01*
X135712500Y-78317000D01*
X135706500Y-78319000D01*
X135699500Y-78321000D01*
X135687500Y-78323000D01*
X135680500Y-78324000D01*
X135674500Y-78325000D01*
X135220500Y-78325000D01*
X135214500Y-78324000D01*
X135207500Y-78323000D01*
X135195500Y-78321000D01*
X135188500Y-78319000D01*
X135182500Y-78317000D01*
X135164500Y-78308000D01*
X135159500Y-78305000D01*
X135154500Y-78301000D01*
X135148500Y-78297000D01*
X135143500Y-78293000D01*
X135139500Y-78288000D01*
X135134500Y-78284000D01*
X135130500Y-78279000D01*
X135126500Y-78273000D01*
X135122500Y-78268000D01*
X135119500Y-78262000D01*
X135116500Y-78257000D01*
X135110500Y-78245000D01*
X135108500Y-78239000D01*
X135106500Y-78232000D01*
X135104500Y-78220000D01*
X135103500Y-78213000D01*
X135102500Y-78207000D01*
X135102500Y-77993000D01*
X135103500Y-77987000D01*
X135104500Y-77980000D01*
X135106500Y-77968000D01*
X135108500Y-77961000D01*
X135110500Y-77955000D01*
X135116500Y-77943000D01*
X135119500Y-77938000D01*
X135122500Y-77932000D01*
X135126500Y-77927000D01*
X135130500Y-77921000D01*
X135134500Y-77916000D01*
X135139500Y-77912000D01*
X135143500Y-77907000D01*
X135148500Y-77903000D01*
X135154500Y-77899000D01*
X135159500Y-77895000D01*
X135164500Y-77892000D01*
X135182500Y-77883000D01*
X135188500Y-77881000D01*
X135195500Y-77879000D01*
X135207500Y-77877000D01*
X135214500Y-77876000D01*
X135220500Y-77875000D01*
X135674500Y-77875000D01*
X135680500Y-77876000D01*
G37*
X135680500Y-77876000D02*
X135687500Y-77877000D01*
X135699500Y-77879000D01*
X135706500Y-77881000D01*
X135712500Y-77883000D01*
X135730500Y-77892000D01*
X135735500Y-77895000D01*
X135740500Y-77899000D01*
X135746500Y-77903000D01*
X135751500Y-77907000D01*
X135755500Y-77912000D01*
X135760500Y-77916000D01*
X135764500Y-77921000D01*
X135768500Y-77927000D01*
X135772500Y-77932000D01*
X135775500Y-77938000D01*
X135778500Y-77943000D01*
X135784500Y-77955000D01*
X135786500Y-77961000D01*
X135788500Y-77968000D01*
X135790500Y-77980000D01*
X135791500Y-77987000D01*
X135792500Y-77993000D01*
X135792500Y-78207000D01*
X135791500Y-78213000D01*
X135790500Y-78220000D01*
X135788500Y-78232000D01*
X135786500Y-78239000D01*
X135784500Y-78245000D01*
X135778500Y-78257000D01*
X135775500Y-78262000D01*
X135772500Y-78268000D01*
X135768500Y-78273000D01*
X135764500Y-78279000D01*
X135760500Y-78284000D01*
X135755500Y-78288000D01*
X135751500Y-78293000D01*
X135746500Y-78297000D01*
X135740500Y-78301000D01*
X135735500Y-78305000D01*
X135730500Y-78308000D01*
X135712500Y-78317000D01*
X135706500Y-78319000D01*
X135699500Y-78321000D01*
X135687500Y-78323000D01*
X135680500Y-78324000D01*
X135674500Y-78325000D01*
X135220500Y-78325000D01*
X135214500Y-78324000D01*
X135207500Y-78323000D01*
X135195500Y-78321000D01*
X135188500Y-78319000D01*
X135182500Y-78317000D01*
X135164500Y-78308000D01*
X135159500Y-78305000D01*
X135154500Y-78301000D01*
X135148500Y-78297000D01*
X135143500Y-78293000D01*
X135139500Y-78288000D01*
X135134500Y-78284000D01*
X135130500Y-78279000D01*
X135126500Y-78273000D01*
X135122500Y-78268000D01*
X135119500Y-78262000D01*
X135116500Y-78257000D01*
X135110500Y-78245000D01*
X135108500Y-78239000D01*
X135106500Y-78232000D01*
X135104500Y-78220000D01*
X135103500Y-78213000D01*
X135102500Y-78207000D01*
X135102500Y-77993000D01*
X135103500Y-77987000D01*
X135104500Y-77980000D01*
X135106500Y-77968000D01*
X135108500Y-77961000D01*
X135110500Y-77955000D01*
X135116500Y-77943000D01*
X135119500Y-77938000D01*
X135122500Y-77932000D01*
X135126500Y-77927000D01*
X135130500Y-77921000D01*
X135134500Y-77916000D01*
X135139500Y-77912000D01*
X135143500Y-77907000D01*
X135148500Y-77903000D01*
X135154500Y-77899000D01*
X135159500Y-77895000D01*
X135164500Y-77892000D01*
X135182500Y-77883000D01*
X135188500Y-77881000D01*
X135195500Y-77879000D01*
X135207500Y-77877000D01*
X135214500Y-77876000D01*
X135220500Y-77875000D01*
X135674500Y-77875000D01*
X135680500Y-77876000D01*
G36*
X136225500Y-78421000D02*
G01*
X136232500Y-78422000D01*
X136244500Y-78424000D01*
X136251500Y-78426000D01*
X136257500Y-78428000D01*
X136269500Y-78434000D01*
X136274500Y-78437000D01*
X136280500Y-78440000D01*
X136285500Y-78444000D01*
X136291500Y-78448000D01*
X136296500Y-78452000D01*
X136300500Y-78457000D01*
X136305500Y-78461000D01*
X136309500Y-78466000D01*
X136313500Y-78472000D01*
X136317500Y-78477000D01*
X136320500Y-78482000D01*
X136329500Y-78500000D01*
X136331500Y-78506000D01*
X136333500Y-78513000D01*
X136335500Y-78525000D01*
X136336500Y-78532000D01*
X136337500Y-78538000D01*
X136337500Y-78992000D01*
X136336500Y-78998000D01*
X136335500Y-79005000D01*
X136333500Y-79017000D01*
X136331500Y-79024000D01*
X136329500Y-79030000D01*
X136320500Y-79048000D01*
X136317500Y-79053000D01*
X136313500Y-79058000D01*
X136309500Y-79064000D01*
X136305500Y-79069000D01*
X136300500Y-79073000D01*
X136296500Y-79078000D01*
X136291500Y-79082000D01*
X136285500Y-79086000D01*
X136280500Y-79090000D01*
X136275500Y-79093000D01*
X136257500Y-79102000D01*
X136251500Y-79104000D01*
X136244500Y-79106000D01*
X136232500Y-79108000D01*
X136225500Y-79109000D01*
X136219500Y-79110000D01*
X136005500Y-79110000D01*
X135999500Y-79109000D01*
X135992500Y-79108000D01*
X135980500Y-79106000D01*
X135973500Y-79104000D01*
X135967500Y-79102000D01*
X135955500Y-79096000D01*
X135950500Y-79093000D01*
X135944500Y-79090000D01*
X135939500Y-79086000D01*
X135933500Y-79082000D01*
X135928500Y-79078000D01*
X135924500Y-79073000D01*
X135919500Y-79069000D01*
X135915500Y-79064000D01*
X135911500Y-79058000D01*
X135907500Y-79053000D01*
X135904500Y-79048000D01*
X135895500Y-79030000D01*
X135893500Y-79024000D01*
X135891500Y-79017000D01*
X135889500Y-79005000D01*
X135888500Y-78998000D01*
X135887500Y-78992000D01*
X135887500Y-78538000D01*
X135888500Y-78532000D01*
X135889500Y-78525000D01*
X135891500Y-78513000D01*
X135893500Y-78506000D01*
X135895500Y-78500000D01*
X135904500Y-78482000D01*
X135907500Y-78477000D01*
X135911500Y-78472000D01*
X135915500Y-78466000D01*
X135919500Y-78461000D01*
X135924500Y-78457000D01*
X135928500Y-78452000D01*
X135933500Y-78448000D01*
X135939500Y-78444000D01*
X135944500Y-78440000D01*
X135950500Y-78437000D01*
X135955500Y-78434000D01*
X135967500Y-78428000D01*
X135973500Y-78426000D01*
X135980500Y-78424000D01*
X135992500Y-78422000D01*
X135999500Y-78421000D01*
X136005500Y-78420000D01*
X136219500Y-78420000D01*
X136225500Y-78421000D01*
G37*
X136225500Y-78421000D02*
X136232500Y-78422000D01*
X136244500Y-78424000D01*
X136251500Y-78426000D01*
X136257500Y-78428000D01*
X136269500Y-78434000D01*
X136274500Y-78437000D01*
X136280500Y-78440000D01*
X136285500Y-78444000D01*
X136291500Y-78448000D01*
X136296500Y-78452000D01*
X136300500Y-78457000D01*
X136305500Y-78461000D01*
X136309500Y-78466000D01*
X136313500Y-78472000D01*
X136317500Y-78477000D01*
X136320500Y-78482000D01*
X136329500Y-78500000D01*
X136331500Y-78506000D01*
X136333500Y-78513000D01*
X136335500Y-78525000D01*
X136336500Y-78532000D01*
X136337500Y-78538000D01*
X136337500Y-78992000D01*
X136336500Y-78998000D01*
X136335500Y-79005000D01*
X136333500Y-79017000D01*
X136331500Y-79024000D01*
X136329500Y-79030000D01*
X136320500Y-79048000D01*
X136317500Y-79053000D01*
X136313500Y-79058000D01*
X136309500Y-79064000D01*
X136305500Y-79069000D01*
X136300500Y-79073000D01*
X136296500Y-79078000D01*
X136291500Y-79082000D01*
X136285500Y-79086000D01*
X136280500Y-79090000D01*
X136275500Y-79093000D01*
X136257500Y-79102000D01*
X136251500Y-79104000D01*
X136244500Y-79106000D01*
X136232500Y-79108000D01*
X136225500Y-79109000D01*
X136219500Y-79110000D01*
X136005500Y-79110000D01*
X135999500Y-79109000D01*
X135992500Y-79108000D01*
X135980500Y-79106000D01*
X135973500Y-79104000D01*
X135967500Y-79102000D01*
X135955500Y-79096000D01*
X135950500Y-79093000D01*
X135944500Y-79090000D01*
X135939500Y-79086000D01*
X135933500Y-79082000D01*
X135928500Y-79078000D01*
X135924500Y-79073000D01*
X135919500Y-79069000D01*
X135915500Y-79064000D01*
X135911500Y-79058000D01*
X135907500Y-79053000D01*
X135904500Y-79048000D01*
X135895500Y-79030000D01*
X135893500Y-79024000D01*
X135891500Y-79017000D01*
X135889500Y-79005000D01*
X135888500Y-78998000D01*
X135887500Y-78992000D01*
X135887500Y-78538000D01*
X135888500Y-78532000D01*
X135889500Y-78525000D01*
X135891500Y-78513000D01*
X135893500Y-78506000D01*
X135895500Y-78500000D01*
X135904500Y-78482000D01*
X135907500Y-78477000D01*
X135911500Y-78472000D01*
X135915500Y-78466000D01*
X135919500Y-78461000D01*
X135924500Y-78457000D01*
X135928500Y-78452000D01*
X135933500Y-78448000D01*
X135939500Y-78444000D01*
X135944500Y-78440000D01*
X135950500Y-78437000D01*
X135955500Y-78434000D01*
X135967500Y-78428000D01*
X135973500Y-78426000D01*
X135980500Y-78424000D01*
X135992500Y-78422000D01*
X135999500Y-78421000D01*
X136005500Y-78420000D01*
X136219500Y-78420000D01*
X136225500Y-78421000D01*
G36*
X137225500Y-76591000D02*
G01*
X137232500Y-76592000D01*
X137244500Y-76594000D01*
X137251500Y-76596000D01*
X137257500Y-76598000D01*
X137269500Y-76604000D01*
X137274500Y-76607000D01*
X137280500Y-76610000D01*
X137285500Y-76614000D01*
X137291500Y-76618000D01*
X137296500Y-76622000D01*
X137300500Y-76627000D01*
X137305500Y-76631000D01*
X137309500Y-76636000D01*
X137313500Y-76642000D01*
X137317500Y-76647000D01*
X137320500Y-76652000D01*
X137329500Y-76670000D01*
X137331500Y-76676000D01*
X137333500Y-76683000D01*
X137335500Y-76695000D01*
X137336500Y-76702000D01*
X137337500Y-76708000D01*
X137337500Y-77162000D01*
X137336500Y-77168000D01*
X137335500Y-77175000D01*
X137333500Y-77187000D01*
X137331500Y-77194000D01*
X137329500Y-77200000D01*
X137320500Y-77218000D01*
X137317500Y-77223000D01*
X137313500Y-77228000D01*
X137309500Y-77234000D01*
X137305500Y-77239000D01*
X137300500Y-77243000D01*
X137296500Y-77248000D01*
X137291500Y-77252000D01*
X137285500Y-77256000D01*
X137280500Y-77260000D01*
X137275500Y-77263000D01*
X137257500Y-77272000D01*
X137251500Y-77274000D01*
X137244500Y-77276000D01*
X137232500Y-77278000D01*
X137225500Y-77279000D01*
X137219500Y-77280000D01*
X137005500Y-77280000D01*
X136999500Y-77279000D01*
X136992500Y-77278000D01*
X136980500Y-77276000D01*
X136973500Y-77274000D01*
X136967500Y-77272000D01*
X136955500Y-77266000D01*
X136950500Y-77263000D01*
X136944500Y-77260000D01*
X136939500Y-77256000D01*
X136933500Y-77252000D01*
X136928500Y-77248000D01*
X136924500Y-77243000D01*
X136919500Y-77239000D01*
X136915500Y-77234000D01*
X136911500Y-77228000D01*
X136907500Y-77223000D01*
X136904500Y-77218000D01*
X136895500Y-77200000D01*
X136893500Y-77194000D01*
X136891500Y-77187000D01*
X136889500Y-77175000D01*
X136888500Y-77168000D01*
X136887500Y-77162000D01*
X136887500Y-76708000D01*
X136888500Y-76702000D01*
X136889500Y-76695000D01*
X136891500Y-76683000D01*
X136893500Y-76676000D01*
X136895500Y-76670000D01*
X136904500Y-76652000D01*
X136907500Y-76647000D01*
X136911500Y-76642000D01*
X136915500Y-76636000D01*
X136919500Y-76631000D01*
X136924500Y-76627000D01*
X136928500Y-76622000D01*
X136933500Y-76618000D01*
X136939500Y-76614000D01*
X136944500Y-76610000D01*
X136950500Y-76607000D01*
X136955500Y-76604000D01*
X136967500Y-76598000D01*
X136973500Y-76596000D01*
X136980500Y-76594000D01*
X136992500Y-76592000D01*
X136999500Y-76591000D01*
X137005500Y-76590000D01*
X137219500Y-76590000D01*
X137225500Y-76591000D01*
G37*
X137225500Y-76591000D02*
X137232500Y-76592000D01*
X137244500Y-76594000D01*
X137251500Y-76596000D01*
X137257500Y-76598000D01*
X137269500Y-76604000D01*
X137274500Y-76607000D01*
X137280500Y-76610000D01*
X137285500Y-76614000D01*
X137291500Y-76618000D01*
X137296500Y-76622000D01*
X137300500Y-76627000D01*
X137305500Y-76631000D01*
X137309500Y-76636000D01*
X137313500Y-76642000D01*
X137317500Y-76647000D01*
X137320500Y-76652000D01*
X137329500Y-76670000D01*
X137331500Y-76676000D01*
X137333500Y-76683000D01*
X137335500Y-76695000D01*
X137336500Y-76702000D01*
X137337500Y-76708000D01*
X137337500Y-77162000D01*
X137336500Y-77168000D01*
X137335500Y-77175000D01*
X137333500Y-77187000D01*
X137331500Y-77194000D01*
X137329500Y-77200000D01*
X137320500Y-77218000D01*
X137317500Y-77223000D01*
X137313500Y-77228000D01*
X137309500Y-77234000D01*
X137305500Y-77239000D01*
X137300500Y-77243000D01*
X137296500Y-77248000D01*
X137291500Y-77252000D01*
X137285500Y-77256000D01*
X137280500Y-77260000D01*
X137275500Y-77263000D01*
X137257500Y-77272000D01*
X137251500Y-77274000D01*
X137244500Y-77276000D01*
X137232500Y-77278000D01*
X137225500Y-77279000D01*
X137219500Y-77280000D01*
X137005500Y-77280000D01*
X136999500Y-77279000D01*
X136992500Y-77278000D01*
X136980500Y-77276000D01*
X136973500Y-77274000D01*
X136967500Y-77272000D01*
X136955500Y-77266000D01*
X136950500Y-77263000D01*
X136944500Y-77260000D01*
X136939500Y-77256000D01*
X136933500Y-77252000D01*
X136928500Y-77248000D01*
X136924500Y-77243000D01*
X136919500Y-77239000D01*
X136915500Y-77234000D01*
X136911500Y-77228000D01*
X136907500Y-77223000D01*
X136904500Y-77218000D01*
X136895500Y-77200000D01*
X136893500Y-77194000D01*
X136891500Y-77187000D01*
X136889500Y-77175000D01*
X136888500Y-77168000D01*
X136887500Y-77162000D01*
X136887500Y-76708000D01*
X136888500Y-76702000D01*
X136889500Y-76695000D01*
X136891500Y-76683000D01*
X136893500Y-76676000D01*
X136895500Y-76670000D01*
X136904500Y-76652000D01*
X136907500Y-76647000D01*
X136911500Y-76642000D01*
X136915500Y-76636000D01*
X136919500Y-76631000D01*
X136924500Y-76627000D01*
X136928500Y-76622000D01*
X136933500Y-76618000D01*
X136939500Y-76614000D01*
X136944500Y-76610000D01*
X136950500Y-76607000D01*
X136955500Y-76604000D01*
X136967500Y-76598000D01*
X136973500Y-76596000D01*
X136980500Y-76594000D01*
X136992500Y-76592000D01*
X136999500Y-76591000D01*
X137005500Y-76590000D01*
X137219500Y-76590000D01*
X137225500Y-76591000D01*
%TD*%
D11*
%TO.C,H3*%
X122510000Y-94110000D03*
D12*
X122510000Y-92460000D03*
D11*
X123676726Y-91293274D03*
X121343274Y-93626726D03*
X123676726Y-93626726D03*
X124160000Y-92460000D03*
X121343274Y-91293274D03*
X122510000Y-90810000D03*
X120860000Y-92460000D03*
%TD*%
%TO.C,H4*%
X121343274Y-63126726D03*
X123676726Y-60793274D03*
X121343274Y-60793274D03*
X122510000Y-60310000D03*
X122510000Y-63610000D03*
D12*
X122510000Y-61960000D03*
D11*
X124160000Y-61960000D03*
X120860000Y-61960000D03*
X123676726Y-63126726D03*
%TD*%
%TO.C,H1*%
X154176732Y-60793272D03*
X151843280Y-60793272D03*
X151843280Y-63126724D03*
X153010006Y-63609998D03*
X154660006Y-61959998D03*
X154176732Y-63126724D03*
D12*
X153010006Y-61959998D03*
D11*
X151360006Y-61959998D03*
X153010006Y-60309998D03*
%TD*%
D13*
%TO.C,J9*%
X134865000Y-65860000D03*
X135881000Y-70940000D03*
X133849000Y-70940000D03*
%TD*%
D11*
%TO.C,H2*%
X154176726Y-93626726D03*
X153010000Y-90810000D03*
X154176726Y-91293274D03*
X154660000Y-92460000D03*
X151843274Y-91293274D03*
X153010000Y-94110000D03*
X151360000Y-92460000D03*
D12*
X153010000Y-92460000D03*
D11*
X151843274Y-93626726D03*
%TD*%
D14*
%TO.C,C10*%
X137190000Y-79750000D03*
X136550000Y-79750000D03*
%TD*%
D15*
%TO.C,C22*%
X137360000Y-69120000D03*
X137360000Y-67220000D03*
%TD*%
D14*
%TO.C,C1*%
X137190000Y-80500000D03*
X136550000Y-80500000D03*
%TD*%
D16*
%TO.C,J5*%
X135750000Y-62925000D03*
X136750000Y-62925000D03*
X137750000Y-62925000D03*
X138750000Y-62925000D03*
X139750000Y-62925000D03*
X140750000Y-62925000D03*
X141750000Y-62925000D03*
X142750000Y-62925000D03*
D17*
X144050000Y-59050000D03*
X134450000Y-59050000D03*
%TD*%
D18*
%TO.C,C2*%
X136665000Y-85510000D03*
X137305000Y-85510000D03*
%TD*%
D19*
%TO.C,R20*%
X130840000Y-71570000D03*
X129820000Y-71570000D03*
%TD*%
D14*
%TO.C,R1*%
X125095000Y-82475000D03*
X124455000Y-82475000D03*
%TD*%
%TO.C,R5*%
X149620000Y-90050000D03*
X148980000Y-90050000D03*
%TD*%
D20*
%TO.C,C27*%
X131475000Y-69075000D03*
X129925000Y-69075000D03*
%TD*%
D14*
%TO.C,C8*%
X125780000Y-81185000D03*
X125140000Y-81185000D03*
%TD*%
D16*
%TO.C,J8*%
X126700000Y-62925000D03*
X127700000Y-62925000D03*
X128700000Y-62925000D03*
X129700000Y-62925000D03*
X130700000Y-62925000D03*
X131700000Y-62925000D03*
D17*
X133000000Y-59050000D03*
X125400000Y-59050000D03*
%TD*%
D21*
%TO.C,Y1*%
X137860000Y-81910000D03*
X137860000Y-84110000D03*
X136160000Y-84110000D03*
X136160000Y-81910000D03*
%TD*%
D22*
%TO.C,R25*%
X146280000Y-61840000D03*
X146280000Y-61200000D03*
%TD*%
D23*
%TO.C,C15*%
X145310000Y-64530000D03*
X147210000Y-64530000D03*
%TD*%
D24*
%TO.C,Q1*%
X147210000Y-73807500D03*
X145310000Y-73807500D03*
X146260000Y-71932500D03*
%TD*%
D18*
%TO.C,C3*%
X124455000Y-83175000D03*
X125095000Y-83175000D03*
%TD*%
D25*
%TO.C,R19*%
X129830000Y-72470000D03*
X130850000Y-72470000D03*
%TD*%
D26*
%TO.C,U4*%
X141485000Y-88330000D03*
X141485000Y-87060000D03*
X141485000Y-85790000D03*
X141485000Y-84520000D03*
X149275000Y-84520000D03*
X149275000Y-85790000D03*
X149275000Y-87060000D03*
X149275000Y-88330000D03*
D27*
X145380000Y-86425000D03*
%TD*%
D28*
%TO.C,J2*%
X152160000Y-86035000D03*
X152160000Y-87035000D03*
X152160000Y-88035000D03*
D29*
X156035000Y-89335000D03*
X156035000Y-84735000D03*
%TD*%
D30*
%TO.C,C43*%
X122500000Y-79820000D03*
X122500000Y-80780000D03*
%TD*%
D31*
%TO.C,R3*%
X124460000Y-80465000D03*
X124460000Y-81105000D03*
%TD*%
%TO.C,C6*%
X134260000Y-80540000D03*
X134260000Y-81180000D03*
%TD*%
D14*
%TO.C,R2*%
X125780000Y-85085000D03*
X125140000Y-85085000D03*
%TD*%
%TO.C,C5*%
X125780000Y-80435000D03*
X125140000Y-80435000D03*
%TD*%
D31*
%TO.C,C25*%
X129800000Y-70105000D03*
X129800000Y-70745000D03*
%TD*%
D14*
%TO.C,R10*%
X152170000Y-82475000D03*
X151530000Y-82475000D03*
%TD*%
D32*
%TO.C,SW1*%
X119910000Y-76510000D03*
X119910000Y-73510000D03*
D33*
X121660000Y-77260000D03*
X121660000Y-74260000D03*
X121660000Y-72760000D03*
%TD*%
D28*
%TO.C,J1*%
X152160000Y-66310000D03*
X152160000Y-67310000D03*
X152160000Y-68310000D03*
D29*
X156035000Y-69610000D03*
X156035000Y-65010000D03*
%TD*%
D34*
%TO.C,C4*%
X134400000Y-77605000D03*
X134400000Y-76645000D03*
%TD*%
D35*
%TO.C,U5*%
X139390000Y-66730000D03*
X141690000Y-66730000D03*
D36*
X141690000Y-73030000D03*
D35*
X143990000Y-66730000D03*
%TD*%
D37*
%TO.C,J6*%
X129725000Y-91500000D03*
X128725000Y-91500000D03*
X127725000Y-91500000D03*
X126725000Y-91500000D03*
D38*
X131025000Y-95375000D03*
X125425000Y-95375000D03*
%TD*%
D31*
%TO.C,C9*%
X125810000Y-83790000D03*
X125810000Y-84430000D03*
%TD*%
D39*
%TO.C,J3*%
X123385000Y-68310000D03*
X123385000Y-67310000D03*
X123385000Y-66310000D03*
D40*
X119510000Y-65010000D03*
X119510000Y-69610000D03*
%TD*%
D14*
%TO.C,R22*%
X149700000Y-69640000D03*
X149060000Y-69640000D03*
%TD*%
D41*
%TO.C,D1*%
X146580000Y-66620000D03*
X146580000Y-69920000D03*
%TD*%
D18*
%TO.C,R9*%
X151605000Y-70800000D03*
X152245000Y-70800000D03*
%TD*%
D25*
%TO.C,R26*%
X122940000Y-74275000D03*
X123960000Y-74275000D03*
%TD*%
D42*
%TO.C,C7*%
X133175000Y-77575000D03*
X133175000Y-76025000D03*
%TD*%
D25*
%TO.C,R17*%
X130540000Y-70150000D03*
X131560000Y-70150000D03*
%TD*%
D43*
%TO.C,C29*%
X125600000Y-71300000D03*
X128550000Y-71300000D03*
%TD*%
D34*
%TO.C,C14*%
X150475000Y-89955000D03*
X150475000Y-88995000D03*
%TD*%
D31*
%TO.C,C11*%
X125825000Y-81855000D03*
X125825000Y-82495000D03*
%TD*%
%TO.C,R24*%
X145620000Y-61200000D03*
X145620000Y-61840000D03*
%TD*%
D43*
%TO.C,C31*%
X125600000Y-74250000D03*
X128550000Y-74250000D03*
%TD*%
D39*
%TO.C,J4*%
X123450000Y-87730000D03*
X123450000Y-86730000D03*
X123450000Y-85730000D03*
D40*
X119575000Y-84430000D03*
X119575000Y-89030000D03*
%TD*%
D37*
%TO.C,J11*%
X147325000Y-91500000D03*
X146325000Y-91500000D03*
X145325000Y-91500000D03*
X144325000Y-91500000D03*
D38*
X143025000Y-95375000D03*
X148625000Y-95375000D03*
%TD*%
D22*
%TO.C,R8*%
X140425000Y-89595000D03*
X140425000Y-88955000D03*
%TD*%
D44*
%TO.C,D2*%
X146770000Y-77620000D03*
D45*
X145070000Y-77620000D03*
X145070000Y-75620000D03*
X146970000Y-75620000D03*
%TD*%
D46*
%TO.C,JP1*%
X120775000Y-81025000D03*
D47*
X120775000Y-79575000D03*
%TD*%
D48*
%TO.C,U2*%
X132910000Y-79235000D03*
X132910000Y-79885000D03*
X132910000Y-80535000D03*
X132910000Y-81185000D03*
X132910000Y-81835000D03*
X132910000Y-82485000D03*
X132910000Y-83135000D03*
X132910000Y-83785000D03*
X132910000Y-84435000D03*
X132910000Y-85085000D03*
X132910000Y-85735000D03*
X132910000Y-86385000D03*
X132910000Y-87035000D03*
X132910000Y-87685000D03*
X127160000Y-87685000D03*
X127160000Y-87035000D03*
X127160000Y-86385000D03*
X127160000Y-85735000D03*
X127160000Y-85085000D03*
X127160000Y-84435000D03*
X127160000Y-83785000D03*
X127160000Y-83135000D03*
X127160000Y-82485000D03*
X127160000Y-81835000D03*
X127160000Y-81185000D03*
X127160000Y-80535000D03*
X127160000Y-79885000D03*
X127160000Y-79235000D03*
D49*
X130035000Y-83460000D03*
%TD*%
D18*
%TO.C,R21*%
X149060000Y-68990000D03*
X149700000Y-68990000D03*
%TD*%
D37*
%TO.C,J7*%
X139530000Y-91490000D03*
X138530000Y-91490000D03*
X137530000Y-91490000D03*
X136530000Y-91490000D03*
X135530000Y-91490000D03*
X134530000Y-91490000D03*
D38*
X133230000Y-95365000D03*
X140830000Y-95365000D03*
%TD*%
D50*
%TO.C,P1*%
X150467000Y-79530000D03*
X150467000Y-73750000D03*
D51*
X149392000Y-73290000D03*
X149392000Y-74090000D03*
X149392000Y-75390000D03*
X149392000Y-76390000D03*
X149392000Y-76890000D03*
X149392000Y-77890000D03*
X149392000Y-79190000D03*
X149392000Y-79990000D03*
X149392000Y-79690000D03*
X149392000Y-78890000D03*
X149392000Y-78390000D03*
X149392000Y-77390000D03*
X149392000Y-75890000D03*
X149392000Y-74890000D03*
X149392000Y-74390000D03*
X149392000Y-73590000D03*
D52*
X153897000Y-71530000D03*
X153897000Y-81750000D03*
X149967000Y-71530000D03*
X149967000Y-81750000D03*
%TD*%
D31*
%TO.C,R4*%
X140400000Y-85155000D03*
X140400000Y-85795000D03*
%TD*%
D22*
%TO.C,R28*%
X148140000Y-69410000D03*
X148140000Y-68770000D03*
%TD*%
M02*
