M48
; DRILL file {KiCad (6.0.4)} date Wed Jan 18 22:00:42 2023
; FORMAT={-:-/ absolute / inch / decimal}
; #@! TF.CreationDate,2023-01-18T22:00:42-06:00
; #@! TF.GenerationSoftware,Kicad,Pcbnew,(6.0.4)
; #@! TF.FileFunction,Plated,1,8,PTH
FMAT,2
INCH
; #@! TA.AperFunction,Plated,PTH,ViaDrill
T1C0.0100
; #@! TA.AperFunction,Plated,PTH,ComponentDrill
T2C0.0157
; #@! TA.AperFunction,Plated,PTH,ComponentDrill
T3C0.0866
%
G90
G05
T1
X4.7087Y-2.6638
X4.7205Y-2.8476
X4.722Y-3.061
X4.7965Y-2.6657
X4.8079Y-3.3748
X4.8079Y-3.4146
X4.8083Y-3.3358
X4.8303Y-3.2232
X4.8492Y-3.2571
X4.8496Y-2.7776
X4.8543Y-3.1801
X4.8575Y-2.7264
X4.8602Y-3.2976
X4.8614Y-2.8862
X4.8697Y-3.224
X4.8791Y-3.498
X4.8831Y-2.778
X4.8927Y-2.8947
X4.9059Y-2.8067
X4.9067Y-2.8386
X4.9126Y-3.4146
X4.9378Y-3.565
X4.9406Y-3.3807
X4.9476Y-2.487
X4.9547Y-2.739
X4.9594Y-2.6492
X4.9624Y-3.0083
X4.9815Y-2.9886
X4.9925Y-2.4039
X4.9945Y-2.6492
X5.0039Y-2.7406
X5.0055Y-2.8406
X5.0059Y-2.8071
X5.0323Y-2.6492
X5.0386Y-3.515
X5.0512Y-3.1374
X5.0528Y-2.3339
X5.0539Y-3.0673
X5.0567Y-2.5531
X5.0646Y-3.5298
X5.0669Y-2.4315
X5.0823Y-3.6685
X5.0882Y-3.3768
X5.0917Y-3.5287
X5.1024Y-2.8986
X5.1063Y-2.4272
X5.1075Y-3.6543
X5.1083Y-2.6764
X5.1173Y-3.4457
X5.1228Y-3.3425
X5.1469Y-2.3331
X5.1535Y-3.0016
X5.1539Y-2.9697
X5.1555Y-3.376
X5.1661Y-2.7913
X5.1661Y-3.5039
X5.1772Y-3.1213
X5.1811Y-2.6762
X5.1823Y-3.0268
X5.1961Y-3.4965
X5.198Y-2.7917
X5.2016Y-3.0539
X5.2071Y-2.9272
X5.2165Y-2.7646
X5.2445Y-2.6094
X5.2445Y-3.587
X5.2461Y-3.5563
X5.2543Y-2.9295
X5.2571Y-2.7063
X5.2579Y-2.7504
X5.2602Y-2.6614
X5.2646Y-3.4902
X5.2658Y-2.4666
X5.2786Y-3.2746
X5.2913Y-2.963
X5.2913Y-2.9929
X5.3043Y-3.4445
X5.3047Y-3.413
X5.3102Y-3.4776
X5.3122Y-3.1661
X5.3126Y-3.2016
X5.3134Y-2.8272
X5.3157Y-2.9449
X5.3327Y-3.1346
X5.3331Y-2.9209
X5.3339Y-2.9697
X5.3353Y-3.3756
X5.3353Y-3.4049
X5.3358Y-3.6567
X5.3445Y-2.4126
X5.3465Y-3.1693
X5.3504Y-3.5409
X5.3724Y-2.9189
X5.3752Y-3.5516
X5.3752Y-3.6563
X5.3839Y-2.4114
X5.3981Y-2.9846
X5.4055Y-3.3898
X5.4134Y-2.7728
X5.4146Y-3.6567
X5.415Y-3.5516
X5.4161Y-2.3335
X5.4177Y-2.3929
X5.4189Y-2.6
X5.4244Y-2.9854
X5.4307Y-3.1398
X5.4315Y-2.9193
X5.4346Y-2.9539
X5.4539Y-3.5516
X5.4539Y-3.6567
X5.461Y-3.0748
X5.4681Y-3.1138
X5.4846Y-3.0228
X5.4846Y-3.0524
X5.4909Y-3.1854
X5.4909Y-3.213
X5.4909Y-3.2406
X5.4913Y-3.2697
X5.4933Y-3.4638
X5.4933Y-3.6567
X5.499Y-3.376
X5.5Y-3.4902
X5.5071Y-2.3335
X5.5083Y-2.3984
X5.5207Y-3.3278
X5.5295Y-2.7787
X5.5323Y-2.6272
X5.5323Y-2.6539
X5.5323Y-3.4276
X5.5327Y-2.6028
X5.5346Y-2.8756
X5.5421Y-3.5827
X5.5516Y-2.415
X5.561Y-3.5386
X5.5783Y-2.7083
X5.5783Y-2.7402
X5.5783Y-2.8752
X5.5972Y-2.3335
X5.6055Y-2.5437
X5.6059Y-3.6587
X5.6228Y-2.8752
X5.6252Y-2.7236
X5.627Y-2.939
X5.627Y-2.9715
X5.6386Y-2.5433
X5.6685Y-3.0724
X5.6689Y-3.1071
X5.6689Y-3.1772
X5.6717Y-2.5429
X5.6823Y-3.6547
X5.6898Y-3.3492
X5.6906Y-3.4673
X5.6999Y-3.0046
X5.6999Y-3.0296
X5.702Y-2.4346
X5.7024Y-2.4744
X5.7067Y-2.8323
X5.7343Y-2.7114
X5.7358Y-2.474
X5.7421Y-3.0453
X5.7431Y-2.9941
X5.7559Y-2.922
X5.7559Y-3.3496
X5.7579Y-3.4693
X5.761Y-3.6472
X5.776Y-2.3346
X5.7843Y-2.4094
X5.7874Y-3.0856
X5.8Y-3.6484
X5.8128Y-3.7461
X5.8146Y-3.172
X5.8224Y-2.7843
X5.8374Y-2.652
X5.8378Y-3.3276
X5.8386Y-3.3776
X5.8417Y-3.172
X5.8602Y-2.5492
X5.8606Y-2.4063
X5.8606Y-2.4354
X5.9083Y-2.4913
X5.9248Y-2.9681
X5.9283Y-3.0833
X5.9327Y-2.6988
X5.9343Y-2.6406
X5.9413Y-2.7398
X5.9591Y-3.1598
X5.9602Y-2.8878
X5.9677Y-3.5035
X5.9681Y-3.5417
X5.9689Y-2.7661
X5.9815Y-3.7642
X5.9906Y-3.2169
X5.9941Y-2.8142
X6.0528Y-2.65
X6.0528Y-3.4657
X6.0531Y-2.6114
X6.0677Y-2.6929
X6.0783Y-3.3874
X6.0787Y-3.4264
X6.1008Y-2.6705
T2
X4.7583Y-2.4394
X4.7583Y-3.6402
X4.7773Y-2.3934
X4.7773Y-2.4853
X4.7773Y-3.5942
X4.7773Y-3.6861
X4.8232Y-2.3744
X4.8232Y-2.5043
X4.8232Y-3.5752
X4.8232Y-3.7051
X4.8692Y-2.3934
X4.8692Y-2.4853
X4.8692Y-3.5942
X4.8692Y-3.6861
X4.8882Y-2.4394
X4.8882Y-3.6402
X5.9591Y-3.6402
X5.9591Y-2.4394
X5.9781Y-3.5942
X5.9781Y-3.6861
X5.9781Y-2.3934
X5.9781Y-2.4853
X6.024Y-3.5752
X6.024Y-3.7051
X6.024Y-2.3744
X6.024Y-2.5043
X6.0699Y-3.5942
X6.0699Y-3.6861
X6.07Y-2.3934
X6.07Y-2.4853
X6.089Y-3.6402
X6.089Y-2.4394
T3
X4.8232Y-2.4394
X4.8232Y-3.6402
X6.024Y-3.6402
X6.024Y-2.4394
T0
M30
