%TF.GenerationSoftware,KiCad,Pcbnew,(6.0.4)*%
%TF.CreationDate,2023-01-18T22:00:33-06:00*%
%TF.ProjectId,Flight_Controller,466c6967-6874-45f4-936f-6e74726f6c6c,rev?*%
%TF.SameCoordinates,Original*%
%TF.FileFunction,Paste,Top*%
%TF.FilePolarity,Positive*%
%FSLAX46Y46*%
G04 Gerber Fmt 4.6, Leading zero omitted, Abs format (unit mm)*
G04 Created by KiCad (PCBNEW (6.0.4)) date 2023-01-18 22:00:33*
%MOMM*%
%LPD*%
G01*
G04 APERTURE LIST*
G04 Aperture macros list*
%AMRoundRect*
0 Rectangle with rounded corners*
0 $1 Rounding radius*
0 $2 $3 $4 $5 $6 $7 $8 $9 X,Y pos of 4 corners*
0 Add a 4 corners polygon primitive as box body*
4,1,4,$2,$3,$4,$5,$6,$7,$8,$9,$2,$3,0*
0 Add four circle primitives for the rounded corners*
1,1,$1+$1,$2,$3*
1,1,$1+$1,$4,$5*
1,1,$1+$1,$6,$7*
1,1,$1+$1,$8,$9*
0 Add four rect primitives between the rounded corners*
20,1,$1+$1,$2,$3,$4,$5,0*
20,1,$1+$1,$4,$5,$6,$7,0*
20,1,$1+$1,$6,$7,$8,$9,0*
20,1,$1+$1,$8,$9,$2,$3,0*%
G04 Aperture macros list end*
%ADD10C,0.010000*%
%ADD11RoundRect,0.147500X-0.172500X0.147500X-0.172500X-0.147500X0.172500X-0.147500X0.172500X0.147500X0*%
%ADD12RoundRect,0.079500X0.100500X-0.079500X0.100500X0.079500X-0.100500X0.079500X-0.100500X-0.079500X0*%
%ADD13RoundRect,0.079500X-0.079500X-0.100500X0.079500X-0.100500X0.079500X0.100500X-0.079500X0.100500X0*%
%ADD14RoundRect,0.200000X0.200000X0.275000X-0.200000X0.275000X-0.200000X-0.275000X0.200000X-0.275000X0*%
%ADD15RoundRect,0.135000X-0.185000X0.135000X-0.185000X-0.135000X0.185000X-0.135000X0.185000X0.135000X0*%
%ADD16RoundRect,0.075000X-0.700000X-0.075000X0.700000X-0.075000X0.700000X0.075000X-0.700000X0.075000X0*%
%ADD17RoundRect,0.075000X-0.075000X-0.700000X0.075000X-0.700000X0.075000X0.700000X-0.075000X0.700000X0*%
%ADD18RoundRect,0.140000X-0.170000X0.140000X-0.170000X-0.140000X0.170000X-0.140000X0.170000X0.140000X0*%
%ADD19RoundRect,0.079500X0.079500X0.100500X-0.079500X0.100500X-0.079500X-0.100500X0.079500X-0.100500X0*%
%ADD20RoundRect,0.250000X0.250000X0.475000X-0.250000X0.475000X-0.250000X-0.475000X0.250000X-0.475000X0*%
%ADD21RoundRect,0.135000X-0.135000X-0.185000X0.135000X-0.185000X0.135000X0.185000X-0.135000X0.185000X0*%
%ADD22RoundRect,0.140000X0.140000X0.170000X-0.140000X0.170000X-0.140000X-0.170000X0.140000X-0.170000X0*%
%ADD23RoundRect,0.200000X-1.050000X0.750000X-1.050000X-0.750000X1.050000X-0.750000X1.050000X0.750000X0*%
%ADD24RoundRect,0.249344X-1.000656X0.700656X-1.000656X-0.700656X1.000656X-0.700656X1.000656X0.700656X0*%
%ADD25RoundRect,0.250000X0.475000X-0.250000X0.475000X0.250000X-0.475000X0.250000X-0.475000X-0.250000X0*%
%ADD26RoundRect,0.225000X-0.225000X-0.250000X0.225000X-0.250000X0.225000X0.250000X-0.225000X0.250000X0*%
%ADD27RoundRect,0.250000X-0.325000X-1.100000X0.325000X-1.100000X0.325000X1.100000X-0.325000X1.100000X0*%
%ADD28RoundRect,0.200000X0.275000X-0.200000X0.275000X0.200000X-0.275000X0.200000X-0.275000X-0.200000X0*%
%ADD29RoundRect,0.079500X-0.100500X0.079500X-0.100500X-0.079500X0.100500X-0.079500X0.100500X0.079500X0*%
%ADD30RoundRect,0.135000X0.185000X-0.135000X0.185000X0.135000X-0.185000X0.135000X-0.185000X-0.135000X0*%
%ADD31RoundRect,0.140000X-0.140000X-0.170000X0.140000X-0.170000X0.140000X0.170000X-0.140000X0.170000X0*%
%ADD32RoundRect,0.150000X-0.625000X0.150000X-0.625000X-0.150000X0.625000X-0.150000X0.625000X0.150000X0*%
%ADD33RoundRect,0.250000X-0.650000X0.350000X-0.650000X-0.350000X0.650000X-0.350000X0.650000X0.350000X0*%
%ADD34RoundRect,0.140000X0.170000X-0.140000X0.170000X0.140000X-0.170000X0.140000X-0.170000X-0.140000X0*%
%ADD35RoundRect,0.225000X-0.250000X0.225000X-0.250000X-0.225000X0.250000X-0.225000X0.250000X0.225000X0*%
%ADD36RoundRect,0.007800X-0.412200X-0.122200X0.412200X-0.122200X0.412200X0.122200X-0.412200X0.122200X0*%
%ADD37R,1.050000X3.009999*%
%ADD38RoundRect,0.135000X0.135000X0.185000X-0.135000X0.185000X-0.135000X-0.185000X0.135000X-0.185000X0*%
%ADD39R,1.200000X1.400000*%
%ADD40RoundRect,0.007800X-0.122200X0.412200X-0.122200X-0.412200X0.122200X-0.412200X0.122200X0.412200X0*%
%ADD41RoundRect,0.007000X0.168000X-0.183000X0.168000X0.183000X-0.168000X0.183000X-0.168000X-0.183000X0*%
%ADD42RoundRect,0.150000X-0.150000X-0.625000X0.150000X-0.625000X0.150000X0.625000X-0.150000X0.625000X0*%
%ADD43RoundRect,0.250000X-0.350000X-0.650000X0.350000X-0.650000X0.350000X0.650000X-0.350000X0.650000X0*%
G04 APERTURE END LIST*
%TO.C,U7*%
G36*
X148630000Y-68500000D02*
G01*
X147970000Y-68500000D01*
X147970000Y-66600000D01*
X148630000Y-66600000D01*
X148630000Y-68500000D01*
G37*
D10*
X148630000Y-68500000D02*
X147970000Y-68500000D01*
X147970000Y-66600000D01*
X148630000Y-66600000D01*
X148630000Y-68500000D01*
%TO.C,U6*%
G36*
X127800000Y-67627500D02*
G01*
X125900000Y-67627500D01*
X125900000Y-66967500D01*
X127800000Y-66967500D01*
X127800000Y-67627500D01*
G37*
X127800000Y-67627500D02*
X125900000Y-67627500D01*
X125900000Y-66967500D01*
X127800000Y-66967500D01*
X127800000Y-67627500D01*
%TD*%
D11*
%TO.C,D3*%
X128500000Y-94975000D03*
X128500000Y-95945000D03*
%TD*%
D12*
%TO.C,C39*%
X128135000Y-74785000D03*
X128135000Y-74095000D03*
%TD*%
D13*
%TO.C,C46*%
X132055000Y-71585000D03*
X131365000Y-71585000D03*
%TD*%
D14*
%TO.C,FB1*%
X127235000Y-80960000D03*
X125585000Y-80960000D03*
%TD*%
D15*
%TO.C,R14*%
X131200000Y-94950000D03*
X131200000Y-95970000D03*
%TD*%
D12*
%TO.C,R6*%
X144535000Y-80040000D03*
X144535000Y-80730000D03*
%TD*%
D16*
%TO.C,U8*%
X129535000Y-74910000D03*
X129535000Y-75410000D03*
X129535000Y-75910000D03*
X129535000Y-76410000D03*
X129535000Y-76910000D03*
X129535000Y-77410000D03*
X129535000Y-77910000D03*
X129535000Y-78410000D03*
X129535000Y-78910000D03*
X129535000Y-79410000D03*
X129535000Y-79910000D03*
X129535000Y-80410000D03*
X129535000Y-80910000D03*
X129535000Y-81410000D03*
X129535000Y-81910000D03*
X129535000Y-82410000D03*
D17*
X131460000Y-84335000D03*
X131960000Y-84335000D03*
X132460000Y-84335000D03*
X132960000Y-84335000D03*
X133460000Y-84335000D03*
X133960000Y-84335000D03*
X134460000Y-84335000D03*
X134960000Y-84335000D03*
X135460000Y-84335000D03*
X135960000Y-84335000D03*
X136460000Y-84335000D03*
X136960000Y-84335000D03*
X137460000Y-84335000D03*
X137960000Y-84335000D03*
X138460000Y-84335000D03*
X138960000Y-84335000D03*
D16*
X140885000Y-82410000D03*
X140885000Y-81910000D03*
X140885000Y-81410000D03*
X140885000Y-80910000D03*
X140885000Y-80410000D03*
X140885000Y-79910000D03*
X140885000Y-79410000D03*
X140885000Y-78910000D03*
X140885000Y-78410000D03*
X140885000Y-77910000D03*
X140885000Y-77410000D03*
X140885000Y-76910000D03*
X140885000Y-76410000D03*
X140885000Y-75910000D03*
X140885000Y-75410000D03*
X140885000Y-74910000D03*
D17*
X138960000Y-72985000D03*
X138460000Y-72985000D03*
X137960000Y-72985000D03*
X137460000Y-72985000D03*
X136960000Y-72985000D03*
X136460000Y-72985000D03*
X135960000Y-72985000D03*
X135460000Y-72985000D03*
X134960000Y-72985000D03*
X134460000Y-72985000D03*
X133960000Y-72985000D03*
X133460000Y-72985000D03*
X132960000Y-72985000D03*
X132460000Y-72985000D03*
X131960000Y-72985000D03*
X131460000Y-72985000D03*
%TD*%
D18*
%TO.C,C44*%
X124510000Y-80930000D03*
X124510000Y-81890000D03*
%TD*%
D19*
%TO.C,C41*%
X131865000Y-85760000D03*
X132555000Y-85760000D03*
%TD*%
D20*
%TO.C,C17*%
X148850000Y-63050000D03*
X146950000Y-63050000D03*
%TD*%
D21*
%TO.C,R18*%
X151640000Y-68150000D03*
X152660000Y-68150000D03*
%TD*%
D22*
%TO.C,C38*%
X126890000Y-82060000D03*
X125930000Y-82060000D03*
%TD*%
D15*
%TO.C,R29*%
X127600000Y-94950000D03*
X127600000Y-95970000D03*
%TD*%
D23*
%TO.C,L1*%
X121250000Y-65425000D03*
D24*
X121250000Y-69525000D03*
%TD*%
D25*
%TO.C,C16*%
X131600000Y-67975000D03*
X131600000Y-66075000D03*
%TD*%
D26*
%TO.C,C28*%
X152575000Y-69275000D03*
X154125000Y-69275000D03*
%TD*%
D20*
%TO.C,C19*%
X148850000Y-64750000D03*
X146950000Y-64750000D03*
%TD*%
D27*
%TO.C,C32*%
X146050000Y-74050000D03*
X149000000Y-74050000D03*
%TD*%
D28*
%TO.C,R27*%
X125420000Y-89345000D03*
X125420000Y-87695000D03*
%TD*%
D29*
%TO.C,C45*%
X142285000Y-75505000D03*
X142285000Y-74815000D03*
%TD*%
D30*
%TO.C,R16*%
X150075000Y-65010000D03*
X150075000Y-63990000D03*
%TD*%
D21*
%TO.C,R15*%
X129190000Y-69175000D03*
X130210000Y-69175000D03*
%TD*%
D31*
%TO.C,C34*%
X123310000Y-74470000D03*
X124270000Y-74470000D03*
%TD*%
D11*
%TO.C,D4*%
X130300000Y-94975000D03*
X130300000Y-95945000D03*
%TD*%
D19*
%TO.C,R11*%
X143215000Y-77010000D03*
X143905000Y-77010000D03*
%TD*%
%TO.C,C12*%
X145740000Y-78210000D03*
X146430000Y-78210000D03*
%TD*%
%TO.C,R7*%
X146780000Y-81335000D03*
X146090000Y-81335000D03*
%TD*%
D22*
%TO.C,C35*%
X124270000Y-79770000D03*
X123310000Y-79770000D03*
%TD*%
D12*
%TO.C,C13*%
X144535000Y-78845000D03*
X144535000Y-78155000D03*
%TD*%
D19*
%TO.C,C42*%
X139055000Y-85735000D03*
X138365000Y-85735000D03*
%TD*%
D32*
%TO.C,J10*%
X123450000Y-84725000D03*
X123450000Y-85725000D03*
X123450000Y-86725000D03*
X123450000Y-87725000D03*
D33*
X119575000Y-89025000D03*
X119575000Y-83425000D03*
%TD*%
D19*
%TO.C,R12*%
X143905000Y-76260000D03*
X143215000Y-76260000D03*
%TD*%
D27*
%TO.C,C30*%
X146050000Y-71100000D03*
X149000000Y-71100000D03*
%TD*%
D11*
%TO.C,D5*%
X126700000Y-94975000D03*
X126700000Y-95945000D03*
%TD*%
D23*
%TO.C,L2*%
X142480000Y-67130000D03*
D24*
X142480000Y-71230000D03*
%TD*%
D34*
%TO.C,C23*%
X124425000Y-67855000D03*
X124425000Y-66895000D03*
%TD*%
%TO.C,C24*%
X145650000Y-68010000D03*
X145650000Y-67050000D03*
%TD*%
D15*
%TO.C,R13*%
X129400000Y-94950000D03*
X129400000Y-95970000D03*
%TD*%
D35*
%TO.C,C47*%
X126860000Y-87725000D03*
X126860000Y-89275000D03*
%TD*%
D26*
%TO.C,C36*%
X137975000Y-86810000D03*
X139525000Y-86810000D03*
%TD*%
D27*
%TO.C,C33*%
X125600000Y-71300000D03*
X128550000Y-71300000D03*
%TD*%
D12*
%TO.C,C40*%
X128135000Y-80315000D03*
X128135000Y-81005000D03*
%TD*%
D36*
%TO.C,U7*%
X146865000Y-66550000D03*
X146865000Y-67050000D03*
X146865000Y-67550000D03*
X146865000Y-68050000D03*
X146865000Y-68550000D03*
X149735000Y-68550000D03*
X149735000Y-68050000D03*
X149735000Y-67550000D03*
X149735000Y-67050000D03*
X149735000Y-66550000D03*
D37*
X148300000Y-67550000D03*
%TD*%
D34*
%TO.C,C37*%
X127310000Y-74940000D03*
X127310000Y-73980000D03*
%TD*%
D38*
%TO.C,R23*%
X126930000Y-78290000D03*
X125910000Y-78290000D03*
%TD*%
D39*
%TO.C,Y2*%
X122940000Y-76070000D03*
X122940000Y-78270000D03*
X124640000Y-78270000D03*
X124640000Y-76070000D03*
%TD*%
D40*
%TO.C,U6*%
X127850000Y-65862500D03*
X127350000Y-65862500D03*
X126850000Y-65862500D03*
X126350000Y-65862500D03*
X125850000Y-65862500D03*
X125850000Y-68732500D03*
X126350000Y-68732500D03*
X126850000Y-68732500D03*
X127350000Y-68732500D03*
X127850000Y-68732500D03*
%TD*%
D18*
%TO.C,C21*%
X145690000Y-63490000D03*
X145690000Y-64450000D03*
%TD*%
D31*
%TO.C,C20*%
X129195000Y-64850000D03*
X130155000Y-64850000D03*
%TD*%
D29*
%TO.C,C26*%
X151625000Y-69620000D03*
X151625000Y-68930000D03*
%TD*%
D25*
%TO.C,C18*%
X129750000Y-67975000D03*
X129750000Y-66075000D03*
%TD*%
D41*
%TO.C,U3*%
X145335000Y-79520000D03*
X145335000Y-80020000D03*
X145600000Y-80535000D03*
X146100000Y-80535000D03*
X146600000Y-80535000D03*
X146865000Y-80020000D03*
X146865000Y-79520000D03*
X146600000Y-79005000D03*
X146100000Y-79005000D03*
X145600000Y-79005000D03*
%TD*%
D42*
%TO.C,J12*%
X134530000Y-91490000D03*
X135530000Y-91490000D03*
X136530000Y-91490000D03*
X137530000Y-91490000D03*
X138530000Y-91490000D03*
X139530000Y-91490000D03*
D43*
X133230000Y-95365000D03*
X140830000Y-95365000D03*
%TD*%
M02*
